<svg xmlns="http://www.w3.org/2000/svg" xmlns:xlink="http://www.w3.org/1999/xlink" viewBox="0 0 28.093 18.751">
  <defs>
    <style>
      .cls-1 {
        fill: #9e5353;
      }

      .cls-2 {
        clip-path: url(#clip-path);
      }

      .cls-3 {
        clip-path: url(#clip-path-3);
      }
    </style>
    <clipPath id="clip-path">
      <rect id="Rechteck_23" data-name="Rechteck 23" class="cls-1" width="2.086" height="13.904" transform="matrix(0.875, -0.485, 0.485, 0.875, 0, 1.011)"/>
    </clipPath>
    <clipPath id="clip-path-3">
      <rect id="Rechteck_25" data-name="Rechteck 25" width="21.611" height="4.907" transform="translate(21.611 4.907) rotate(180)"/>
    </clipPath>
  </defs>
  <g id="arrow" transform="translate(-1065 -2295)">
    <g id="Gruppe_maskieren_2" data-name="Gruppe maskieren 2" class="cls-2" transform="translate(1088.664 2308.044) rotate(172)">
      <path id="trenner" d="M12.328.7A1.559,1.559,0,0,0,11.88.619l-.7-.049a.622.622,0,0,0-.315.049h-.091c-.049,0-.077,0-.077-.049s-.056,0,0-.056a.7.7,0,0,0,.4-.252h.161l.475-.049a.482.482,0,0,0,.315,0,.874.874,0,0,1,.482.049l.4.2a.161.161,0,0,1-.084.154L12.657.7ZM8.244,1.731l.475.154a.538.538,0,0,1,.315.049,1.4,1.4,0,0,0,.559-.049h.077V1.829c0-.063.056-.133.161-.2l-.049-.1-.475-.049a.259.259,0,0,0-.2,0,.315.315,0,0,1-.2,0s0-.049-.084,0-.077.042-.077.077-.189.119-.4.049l-.161.049a.189.189,0,0,0,.084.154m-2.685.154.427.133a1.028,1.028,0,0,1,.559.1H6.65l.161-.1c-.056,0-.084,0-.084-.049a.189.189,0,0,1-.077-.126.133.133,0,0,0-.077-.126.07.07,0,0,0-.042-.077H6.412a.168.168,0,0,1-.161,0,.853.853,0,0,0-.559,0c-.1,0-.154,0-.154.1v.063l.049.056m12.657.734a.769.769,0,0,0,.4,0v-.1a.259.259,0,0,0-.2,0,.427.427,0,0,0-.2.077h0M.126,4.01a.7.7,0,0,0,.315.049,1.867,1.867,0,0,0,.28,0,.475.475,0,0,1,.28,0c.1.07.182.07.238,0A.636.636,0,0,1,1.8,4.01a2.433,2.433,0,0,0,.552,0,2.8,2.8,0,0,1,.482,0,6.412,6.412,0,0,1,1.035-.049H4.14a.476.476,0,0,0,.28,0,1.014,1.014,0,0,1,.559.049l.161-.049a.154.154,0,0,1,.154,0h.482a.147.147,0,0,0,.119-.056h.119c.056,0,.077,0,.077-.049s0-.049.084-.049a.517.517,0,0,1,.475,0,.119.119,0,0,0,.119,0,.175.175,0,0,1,.119,0l.4-.049a.42.42,0,0,1,.238-.049,4.328,4.328,0,0,0,1.035.1,4.636,4.636,0,0,0,.7-.049,1.552,1.552,0,0,1,.476.049.839.839,0,0,0,.636-.049.3.3,0,0,1,.4-.1.7.7,0,0,0,.315.056,1.126,1.126,0,0,1,.482,0,1.357,1.357,0,0,0,.475,0c.049,0,.091-.049.119,0a.336.336,0,0,0,.119,0c.1.063.189.063.238,0a2.923,2.923,0,0,1,.7,0h.517a.538.538,0,0,0,.245-.056A7.4,7.4,0,0,1,15.09,3.6h.4a4.636,4.636,0,0,0,.7-.049,2.426,2.426,0,0,1,.636,0h1.035a2.189,2.189,0,0,0,.552.1h.161a.35.35,0,0,1,.238,0l.7-.049a1.077,1.077,0,0,1,.4.049.371.371,0,0,1,.273,0,1.056,1.056,0,0,0,.364,0L21.817,3.6h.315l.559-.049q.084-.1.4,0a.175.175,0,0,1,.119,0h.119a1.357,1.357,0,0,1,.475,0,1.273,1.273,0,0,0,.4,0l.084.056.475.049a.545.545,0,0,1,.315.1v.1a.3.3,0,0,0-.2.077l-.119.07v-.1h-.315a1.9,1.9,0,0,0-.441.056,2.419,2.419,0,0,0-.434.1h-.161a12.5,12.5,0,0,0-1.35.049l-.909.077a1.839,1.839,0,0,1-.475-.056.406.406,0,0,0-.4,0,1.084,1.084,0,0,1-.559.1.28.28,0,0,0-.2-.049.4.4,0,0,1-.2-.056h-.322a3.839,3.839,0,0,1-.636.154h-.28a.657.657,0,0,0-.357.1.329.329,0,0,1-.322,0,.238.238,0,0,0-.238,0,1.154,1.154,0,0,0-.552.056.594.594,0,0,1-.245-.056.231.231,0,0,0-.3-.07.455.455,0,0,1-.238,0,.629.629,0,0,0-.322,0l-.552-.049a3.923,3.923,0,0,0-.7.049h-.434a1.4,1.4,0,0,0-.441.056.21.21,0,0,1-.161,0,.168.168,0,0,0-.161,0,17.342,17.342,0,0,0-1.825.049.622.622,0,0,1-.28.049.566.566,0,0,0-.28.049,1.035,1.035,0,0,0-.322.056.482.482,0,0,1-.315,0H9.888c-.049.1-.189.112-.4.049l-.315.049H8.937a.58.58,0,0,0-.482,0c-.049.07-.133.07-.238,0l-.4-.049-.4-.049a.378.378,0,0,1-.315.049,1.119,1.119,0,0,0-.4.049.643.643,0,0,0-.4,0l-.091-.049a.133.133,0,0,1-.161,0,.14.14,0,0,0-.161,0c-.056,0-.077,0-.077.1a.413.413,0,0,1-.322.1.825.825,0,0,1-.315-.049h.154c.056,0,.056-.063,0-.126a.315.315,0,0,1-.2,0,.462.462,0,0,0-.2,0c-.056,0-.056,0,0,.049s0,.049-.084.049a.175.175,0,0,0-.119,0,.119.119,0,0,1-.119,0,.28.28,0,0,0-.168,0H4.293A1.832,1.832,0,0,1,3.818,4.7c-.049,0-.077,0-.077.049a.21.21,0,0,1-.161,0,.168.168,0,0,0-.161,0c.056,0,.1.042.119,0s.07,0,.126,0l-.482.14V4.765h.161a.126.126,0,0,0-.077-.1c-.077,0-.056-.063,0-.1l-.084.2a.531.531,0,0,1-.392.126.371.371,0,0,1-.2-.126.126.126,0,0,0-.119-.077l-.161.1-.168.1a.629.629,0,0,1-.28,0,.462.462,0,0,0-.2,0c-.056,0-.077,0-.077-.049a.643.643,0,0,1-.4.049.455.455,0,0,0-.238,0H.8a.482.482,0,0,1-.238-.049.5.5,0,0,0-.238-.049M.147.451a.287.287,0,0,0,.315,0C.692.318.783.22.783.15s.182-.154.4-.1a.126.126,0,0,0,.154,0c0-.07.056-.07.161,0L1.58.2h.077s0-.049.077-.049S1.79.241,1.9.325a.343.343,0,0,1,.2.28s0,.049-.084.049H1.58a3.832,3.832,0,0,1-.7.1A.51.51,0,0,0,.643.808c0-.07,0-.1-.077-.1S.434.773.329.7C.329.7.329.64.245.64v.1A.255.255,0,0,0,.406.794c.1,0,.091-.042.119,0a.336.336,0,0,0,.119,0l.322.3a.173.173,0,0,0,.119.077.315.315,0,0,0,.2,0l.161.049c.1.063.182.063.238,0a.385.385,0,0,0,.28,0,.2.2,0,0,1,.2,0,.168.168,0,0,0,.161,0l.322-.1a.8.8,0,0,1,.475-.049.315.315,0,0,0,.28.049.5.5,0,0,1,.2-.049.147.147,0,0,0,.119-.049h.119a.385.385,0,0,0,.28,0l.2-.1A.427.427,0,0,0,4.063.864.965.965,0,0,1,3.426.7H3.273a1.245,1.245,0,0,0-.4-.07.469.469,0,0,1-.28-.1,2.8,2.8,0,0,1-.2-.2h.084A.315.315,0,0,1,2.713.2a.35.35,0,0,1,.238,0,.524.524,0,0,0,.4-.049.168.168,0,0,1,.14,0,.077.077,0,0,1,.077.07.245.245,0,0,0,.161.154.9.9,0,0,1,.238.049,1.231,1.231,0,0,0,.315.049.406.406,0,0,0,.343-.1A.909.909,0,0,1,5.182.325a.545.545,0,0,0,.552-.1A.545.545,0,0,1,5.895.073c.322,0,.5,0,.559.2l.077.049c-.049,0-.063.056,0,.077A.336.336,0,0,0,6.65.4.126.126,0,0,0,6.8.4L6.986.3A.413.413,0,0,0,7.307.2s0-.056.077-.07a.168.168,0,0,1,.161,0,1.35,1.35,0,0,1,.238,0,.315.315,0,0,1,.238.126h.161c.266-.07.42,0,.475.1a.769.769,0,0,1,.357,0,1.056,1.056,0,0,0,.364,0,.371.371,0,0,0,.273,0A1.3,1.3,0,0,1,9.992.3V.6c0,.07-.084.119-.245.154-.049,0-.077,0-.077.049-.1.07-.161.07-.161,0A.538.538,0,0,0,9.2.759.287.287,0,0,0,8.993.7.4.4,0,0,1,8.8.64a.21.21,0,0,1-.238-.2A.126.126,0,0,0,8.44.493a.168.168,0,0,1-.119.049.545.545,0,0,0-.4.154c0,.063-.084.1-.245.1a.238.238,0,0,0-.238,0,.2.2,0,0,1-.154,0,.315.315,0,0,0-.161,0,.783.783,0,0,0-.28-.1.329.329,0,0,0-.28,0A1.007,1.007,0,0,1,6.091.654H5.853c-.056.07-.056.119,0,.154v.1a.811.811,0,0,0,.28.252,1.091,1.091,0,0,0,.441.1h.154a.769.769,0,0,1,.559,0h.238a2.909,2.909,0,0,1,.636-.154.4.4,0,0,1,.238.056.224.224,0,0,1,.245,0,.273.273,0,0,0,.154.077c.056,0,.084,0,.084-.049v.077l-.084-.1c0-.1.084-.133.238-.1l.161.049a1.028,1.028,0,0,0,.559.049h.161a.7.7,0,0,1,.315.049c.1.07.189.07.238,0a1.14,1.14,0,0,1,.238-.1A.524.524,0,0,0,10.95.961l.154.056c.056,0,.07,0,.042-.056s0-.049.042-.049.077.1.238.1a2.8,2.8,0,0,1,.636.049l.4.049a.455.455,0,0,1,.357,0,1.4,1.4,0,0,0,.28.07c.1.07.182.07.238,0l.559-.2a.566.566,0,0,0,.154,0h.084a1.1,1.1,0,0,0,.552.147.643.643,0,0,0,.364,0,.937.937,0,0,1,.273-.049.175.175,0,0,0,.119,0h.126c.056,0,0,.049.077.049s.077,0,.077-.049a.371.371,0,0,1,.4,0h.224a1.8,1.8,0,0,0,.28-.049.622.622,0,0,1,.357,0,.35.35,0,0,0,.238,0,.35.35,0,0,1,.238,0l.084-.1h.077c.266.14.448.238.559.308a.923.923,0,0,1-.8.147.427.427,0,0,0-.322,0l-.392.308a.594.594,0,0,1-.245-.056.6.6,0,0,0-.475-.1,1,1,0,0,1-.2-.049.21.21,0,0,0-.2,0,.385.385,0,0,0-.28,0,3.035,3.035,0,0,1-.357,0,.35.35,0,0,1-.238,0,.7.7,0,0,0-.238-.049,1.678,1.678,0,0,0-.7-.056,1.825,1.825,0,0,1-.482.056,1.028,1.028,0,0,0-.434.07,2.8,2.8,0,0,1-.364.126.441.441,0,0,0,.161.056c.056,0,.056,0,0,.049a.5.5,0,0,1-.476.049.329.329,0,0,0-.322-.049c-.049,0-.077,0-.077-.049s0-.056-.077-.056L11.5,1.7l-.161-.056a.566.566,0,0,0-.4-.07h-.315l-.147.049a.629.629,0,0,0-.084.357,3.014,3.014,0,0,1,1.433.049,3.9,3.9,0,0,0,.636.049h.322a2.923,2.923,0,0,1,.7,0c.266.07.427.056.482-.049a.371.371,0,0,1,.238-.049c.1.07.182.07.238,0a1.867,1.867,0,0,0,.28,0,.385.385,0,0,1,.28,0,.2.2,0,0,0,.154-.049.657.657,0,0,1,.559-.2,8.7,8.7,0,0,0,.958-.049.441.441,0,0,0,.154.049.245.245,0,0,1,.161.049h.063c.056-.07.112-.084.161-.049a.336.336,0,0,0,.161.049h.161c.084,0,.154-.1.315-.1a1.343,1.343,0,0,1,.322.147.7.7,0,0,0,.476.1c.056,0,.091-.042.119,0h.1a1.475,1.475,0,0,0,.7,0l.4.049a.79.79,0,0,1,.315.2.916.916,0,0,0,.2,0,.329.329,0,0,0,.2-.091.112.112,0,0,1,.077-.1.273.273,0,0,1,.161-.049L21.16,2l.238.049c-.1.07-.1.119,0,.154l.161.1c.056,0,.056.07,0,.1s0,.07-.077.1a.168.168,0,0,1-.161,0,.916.916,0,0,1-.2,0,.259.259,0,0,0-.2,0,.566.566,0,0,1-.4-.049l-.252-.091c-.1,0-.161,0-.161.056s-.049.1-.154.1-.161-.035-.161-.1a.07.07,0,0,0-.042-.077h-.119l-.762.2c-.1.07-.077.14.084.2h.154a7.279,7.279,0,0,1,1.014.049,5.951,5.951,0,0,0,.8-.049.315.315,0,0,1,.161,0,.21.21,0,0,0,.161,0,.231.231,0,0,1,.315-.049,3.182,3.182,0,0,1,1.2.252c-.056.1-.189.154-.4.154a.629.629,0,0,1-.28,0,.462.462,0,0,0-.2,0l-.4.1a4.776,4.776,0,0,1-1,0l-.909-.126a.937.937,0,0,0-.7.049H18.8c-.161,0-.238,0-.238.049a.427.427,0,0,0-.322,0,1.021,1.021,0,0,1-.357,0,1.517,1.517,0,0,0-.357,0l-.161.049H17.2a1.077,1.077,0,0,0-.427-.049h-.552a13.146,13.146,0,0,1-1.517-.049,1.573,1.573,0,0,0-.475.049,1.748,1.748,0,0,1-.476.1h-.441a2.923,2.923,0,0,0-.7,0h-.154l-.322-.056a1.468,1.468,0,0,0-.552,0,4.895,4.895,0,0,1-.559.056h-.161a2.14,2.14,0,0,1-1.112,0H9.594a5.028,5.028,0,0,1-.636-.1H8.8a.2.2,0,0,0-.154.1H8.559a.238.238,0,0,1-.2,0H7.846a.413.413,0,0,0-.322.077h-.3a2.1,2.1,0,0,0-.769.14.587.587,0,0,1-.238,0,.259.259,0,0,0-.2,0h-.2c-.056,0-.084,0-.084.056S5.685,3.6,5.58,3.6a1.678,1.678,0,0,0-.692-.1,1.126,1.126,0,0,1-.406,0,.343.343,0,0,0-.294,0,.916.916,0,0,1-.475.049H3.531a1.531,1.531,0,0,0-.441-.049.972.972,0,0,1-.434-.126H2.5c-.056,0-.084,0-.084.1a.308.308,0,0,1-.154-.049.119.119,0,0,0-.161,0H1.979a.126.126,0,0,0-.119-.049h-.2c-.056.07-.21.1-.475.1H1.021a1.049,1.049,0,0,1-.7-.049.5.5,0,0,0-.322,0" transform="translate(4.788 9.664) rotate(-120)"/>
    </g>
    <g id="Gruppe_maskieren_3" data-name="Gruppe maskieren 3" class="cls-2" transform="translate(1080.05 2313.751) rotate(-98)">
      <path id="trenner-2" data-name="trenner" d="M12.328.7A1.559,1.559,0,0,0,11.88.619l-.7-.049a.622.622,0,0,0-.315.049h-.091c-.049,0-.077,0-.077-.049s-.056,0,0-.056a.7.7,0,0,0,.4-.252h.161l.475-.049a.483.483,0,0,0,.315,0,.874.874,0,0,1,.482.049l.4.2a.161.161,0,0,1-.084.154L12.657.7ZM8.244,1.731l.475.154a.538.538,0,0,1,.315.049,1.4,1.4,0,0,0,.559-.049h.077V1.829c0-.063.056-.133.161-.2l-.049-.1-.475-.049a.259.259,0,0,0-.2,0,.315.315,0,0,1-.2,0s0-.049-.084,0-.077.042-.077.077-.189.119-.4.049l-.161.049a.189.189,0,0,0,.084.154m-2.685.154.427.133a1.028,1.028,0,0,1,.559.1H6.65l.161-.1c-.056,0-.084,0-.084-.049a.189.189,0,0,1-.077-.126.133.133,0,0,0-.077-.126.07.07,0,0,0-.042-.077H6.412a.168.168,0,0,1-.161,0,.853.853,0,0,0-.559,0c-.1,0-.154,0-.154.1v.063l.049.056m12.657.734a.769.769,0,0,0,.4,0v-.1a.259.259,0,0,0-.2,0,.427.427,0,0,0-.2.077h0M.126,4.01a.7.7,0,0,0,.315.049,1.867,1.867,0,0,0,.28,0,.476.476,0,0,1,.28,0c.1.07.182.07.238,0A.636.636,0,0,1,1.8,4.01a2.433,2.433,0,0,0,.552,0,2.8,2.8,0,0,1,.482,0,6.412,6.412,0,0,1,1.035-.049H4.14a.476.476,0,0,0,.28,0,1.014,1.014,0,0,1,.559.049l.161-.049a.154.154,0,0,1,.154,0h.482a.147.147,0,0,0,.119-.056h.119c.056,0,.077,0,.077-.049s0-.049.084-.049a.517.517,0,0,1,.476,0,.119.119,0,0,0,.119,0,.175.175,0,0,1,.119,0l.4-.049a.42.42,0,0,1,.238-.049,4.328,4.328,0,0,0,1.035.1,4.636,4.636,0,0,0,.7-.049,1.552,1.552,0,0,1,.475.049.839.839,0,0,0,.636-.049.3.3,0,0,1,.4-.1.7.7,0,0,0,.315.056,1.126,1.126,0,0,1,.482,0,1.357,1.357,0,0,0,.475,0c.049,0,.091-.049.119,0a.336.336,0,0,0,.119,0c.1.063.189.063.238,0a2.923,2.923,0,0,1,.7,0h.517a.538.538,0,0,0,.245-.056A7.4,7.4,0,0,1,15.09,3.6h.4a4.636,4.636,0,0,0,.7-.049,2.426,2.426,0,0,1,.636,0h1.035a2.189,2.189,0,0,0,.552.1h.161a.35.35,0,0,1,.238,0l.7-.049a1.077,1.077,0,0,1,.4.049.371.371,0,0,1,.273,0,1.056,1.056,0,0,0,.364,0L21.817,3.6h.315l.559-.049q.084-.1.4,0a.175.175,0,0,1,.119,0h.119a1.357,1.357,0,0,1,.475,0,1.273,1.273,0,0,0,.4,0l.084.056.475.049a.545.545,0,0,1,.315.1v.1a.3.3,0,0,0-.2.077l-.119.07v-.1h-.315a1.9,1.9,0,0,0-.441.056,2.419,2.419,0,0,0-.434.1h-.161a12.5,12.5,0,0,0-1.35.049l-.909.077a1.839,1.839,0,0,1-.475-.056.406.406,0,0,0-.4,0,1.084,1.084,0,0,1-.559.1.28.28,0,0,0-.2-.049.4.4,0,0,1-.2-.056h-.322a3.839,3.839,0,0,1-.636.154h-.28a.657.657,0,0,0-.357.1.329.329,0,0,1-.322,0,.238.238,0,0,0-.238,0,1.154,1.154,0,0,0-.552.056.594.594,0,0,1-.245-.056.231.231,0,0,0-.3-.07.455.455,0,0,1-.238,0,.629.629,0,0,0-.322,0l-.552-.049a3.923,3.923,0,0,0-.7.049h-.434a1.4,1.4,0,0,0-.441.056.21.21,0,0,1-.161,0,.168.168,0,0,0-.161,0,17.341,17.341,0,0,0-1.825.049.622.622,0,0,1-.28.049.566.566,0,0,0-.28.049,1.035,1.035,0,0,0-.322.056.482.482,0,0,1-.315,0H9.888c-.049.1-.189.112-.4.049l-.315.049H8.937a.58.58,0,0,0-.482,0c-.049.07-.133.07-.238,0l-.4-.049-.4-.049a.378.378,0,0,1-.315.049,1.119,1.119,0,0,0-.4.049.643.643,0,0,0-.4,0l-.091-.049a.133.133,0,0,1-.161,0,.14.14,0,0,0-.161,0c-.056,0-.077,0-.077.1a.413.413,0,0,1-.322.1.825.825,0,0,1-.315-.049h.154c.056,0,.056-.063,0-.126a.315.315,0,0,1-.2,0,.461.461,0,0,0-.2,0c-.056,0-.056,0,0,.049s0,.049-.084.049a.175.175,0,0,0-.119,0,.119.119,0,0,1-.119,0,.28.28,0,0,0-.168,0H4.293A1.832,1.832,0,0,1,3.818,4.7c-.049,0-.077,0-.077.049a.21.21,0,0,1-.161,0,.168.168,0,0,0-.161,0c.056,0,.1.042.119,0s.07,0,.126,0l-.482.14V4.765h.161a.126.126,0,0,0-.077-.1c-.077,0-.056-.063,0-.1l-.084.2a.531.531,0,0,1-.392.126.371.371,0,0,1-.2-.126.126.126,0,0,0-.119-.077l-.161.1-.168.1a.629.629,0,0,1-.28,0,.462.462,0,0,0-.2,0c-.056,0-.077,0-.077-.049a.643.643,0,0,1-.4.049.455.455,0,0,0-.238,0H.8a.482.482,0,0,1-.238-.049.5.5,0,0,0-.238-.049M.147.451a.287.287,0,0,0,.315,0C.692.318.783.22.783.15s.182-.154.4-.1a.126.126,0,0,0,.154,0c0-.07.056-.07.161,0L1.58.2h.077s0-.049.077-.049S1.79.241,1.9.325a.343.343,0,0,1,.2.28s0,.049-.084.049H1.58a3.832,3.832,0,0,1-.7.1A.51.51,0,0,0,.643.808c0-.07,0-.1-.077-.1S.434.773.329.7C.329.7.329.64.245.64v.1A.255.255,0,0,0,.406.794c.1,0,.091-.042.119,0a.336.336,0,0,0,.119,0l.322.3a.173.173,0,0,0,.119.077.315.315,0,0,0,.2,0l.161.049c.1.063.182.063.238,0a.385.385,0,0,0,.28,0,.2.2,0,0,1,.2,0,.168.168,0,0,0,.161,0l.322-.1a.8.8,0,0,1,.475-.049.315.315,0,0,0,.28.049.5.5,0,0,1,.2-.049.147.147,0,0,0,.119-.049h.119a.385.385,0,0,0,.28,0l.2-.1A.427.427,0,0,0,4.063.864.965.965,0,0,1,3.426.7H3.273a1.245,1.245,0,0,0-.4-.07.469.469,0,0,1-.28-.1,2.8,2.8,0,0,1-.2-.2h.084A.315.315,0,0,1,2.713.2a.35.35,0,0,1,.238,0,.524.524,0,0,0,.4-.049.168.168,0,0,1,.14,0,.077.077,0,0,1,.077.07.245.245,0,0,0,.161.154.9.9,0,0,1,.238.049,1.231,1.231,0,0,0,.315.049.406.406,0,0,0,.343-.1A.909.909,0,0,1,5.182.325a.545.545,0,0,0,.552-.1A.545.545,0,0,1,5.895.073c.322,0,.5,0,.559.2l.077.049c-.049,0-.063.056,0,.077A.336.336,0,0,0,6.65.4.126.126,0,0,0,6.8.4L6.986.3A.413.413,0,0,0,7.307.2s0-.056.077-.07a.168.168,0,0,1,.161,0,1.35,1.35,0,0,1,.238,0,.315.315,0,0,1,.238.126h.161c.266-.07.42,0,.475.1a.769.769,0,0,1,.357,0,1.056,1.056,0,0,0,.364,0,.371.371,0,0,0,.273,0A1.3,1.3,0,0,1,9.992.3V.6c0,.07-.084.119-.245.154-.049,0-.077,0-.077.049-.1.07-.161.07-.161,0A.538.538,0,0,0,9.2.759.287.287,0,0,0,8.993.7.4.4,0,0,1,8.8.64a.21.21,0,0,1-.238-.2A.126.126,0,0,0,8.44.493a.168.168,0,0,1-.119.049.545.545,0,0,0-.4.154c0,.063-.084.1-.245.1a.238.238,0,0,0-.238,0,.2.2,0,0,1-.154,0,.315.315,0,0,0-.161,0,.783.783,0,0,0-.28-.1.329.329,0,0,0-.28,0A1.007,1.007,0,0,1,6.091.654H5.853c-.056.07-.056.119,0,.154v.1a.811.811,0,0,0,.28.252,1.091,1.091,0,0,0,.441.1h.154a.769.769,0,0,1,.559,0h.238a2.909,2.909,0,0,1,.636-.154.4.4,0,0,1,.238.056.224.224,0,0,1,.245,0,.273.273,0,0,0,.154.077c.056,0,.084,0,.084-.049v.077l-.084-.1c0-.1.084-.133.238-.1l.161.049a1.028,1.028,0,0,0,.559.049h.161a.7.7,0,0,1,.315.049c.1.07.189.07.238,0a1.14,1.14,0,0,1,.238-.1A.524.524,0,0,0,10.95.961l.154.056c.056,0,.07,0,.042-.056s0-.049.042-.049.077.1.238.1a2.8,2.8,0,0,1,.636.049l.4.049a.455.455,0,0,1,.357,0,1.4,1.4,0,0,0,.28.07c.1.07.182.07.238,0l.559-.2a.566.566,0,0,0,.154,0h.084a1.1,1.1,0,0,0,.552.147.643.643,0,0,0,.364,0,.937.937,0,0,1,.273-.049.175.175,0,0,0,.119,0h.126c.056,0,0,.049.077.049s.077,0,.077-.049a.371.371,0,0,1,.4,0h.224a1.8,1.8,0,0,0,.28-.049.622.622,0,0,1,.357,0,.35.35,0,0,0,.238,0,.35.35,0,0,1,.238,0l.084-.1h.077c.266.14.448.238.559.308a.923.923,0,0,1-.8.147.427.427,0,0,0-.322,0l-.392.308a.594.594,0,0,1-.245-.056.6.6,0,0,0-.476-.1,1,1,0,0,1-.2-.049.21.21,0,0,0-.2,0,.385.385,0,0,0-.28,0,3.035,3.035,0,0,1-.357,0,.35.35,0,0,1-.238,0,.7.7,0,0,0-.238-.049,1.678,1.678,0,0,0-.7-.056,1.825,1.825,0,0,1-.482.056,1.028,1.028,0,0,0-.434.07,2.8,2.8,0,0,1-.364.126.441.441,0,0,0,.161.056c.056,0,.056,0,0,.049a.5.5,0,0,1-.475.049.329.329,0,0,0-.322-.049c-.049,0-.077,0-.077-.049s0-.056-.077-.056L11.5,1.7l-.161-.056a.566.566,0,0,0-.4-.07h-.315l-.147.049a.629.629,0,0,0-.084.357,3.014,3.014,0,0,1,1.433.049,3.9,3.9,0,0,0,.636.049h.322a2.923,2.923,0,0,1,.7,0c.266.07.427.056.482-.049a.371.371,0,0,1,.238-.049c.1.07.182.07.238,0a1.867,1.867,0,0,0,.28,0,.385.385,0,0,1,.28,0,.2.2,0,0,0,.154-.049.657.657,0,0,1,.559-.2,8.7,8.7,0,0,0,.958-.049.441.441,0,0,0,.154.049.245.245,0,0,1,.161.049h.063c.056-.07.112-.084.161-.049a.336.336,0,0,0,.161.049h.161c.084,0,.154-.1.315-.1a1.343,1.343,0,0,1,.322.147.7.7,0,0,0,.475.1c.056,0,.091-.042.119,0h.1a1.475,1.475,0,0,0,.7,0l.4.049a.79.79,0,0,1,.315.2.916.916,0,0,0,.2,0,.329.329,0,0,0,.2-.091.112.112,0,0,1,.077-.1.273.273,0,0,1,.161-.049L21.16,2l.238.049c-.1.07-.1.119,0,.154l.161.1c.056,0,.056.07,0,.1s0,.07-.077.1a.168.168,0,0,1-.161,0,.916.916,0,0,1-.2,0,.259.259,0,0,0-.2,0,.566.566,0,0,1-.4-.049l-.252-.091c-.1,0-.161,0-.161.056s-.049.1-.154.1-.161-.035-.161-.1a.07.07,0,0,0-.042-.077h-.119l-.762.2c-.1.07-.077.14.084.2h.154a7.279,7.279,0,0,1,1.014.049,5.95,5.95,0,0,0,.8-.049.315.315,0,0,1,.161,0,.21.21,0,0,0,.161,0,.231.231,0,0,1,.315-.049,3.182,3.182,0,0,1,1.2.252c-.056.1-.189.154-.4.154a.629.629,0,0,1-.28,0,.462.462,0,0,0-.2,0l-.4.1a4.776,4.776,0,0,1-1,0l-.909-.126a.937.937,0,0,0-.7.049H18.8c-.161,0-.238,0-.238.049a.427.427,0,0,0-.322,0,1.021,1.021,0,0,1-.357,0,1.517,1.517,0,0,0-.357,0l-.161.049H17.2a1.077,1.077,0,0,0-.427-.049h-.552a13.146,13.146,0,0,1-1.517-.049,1.573,1.573,0,0,0-.475.049,1.748,1.748,0,0,1-.476.1h-.441a2.923,2.923,0,0,0-.7,0h-.154l-.322-.056a1.468,1.468,0,0,0-.552,0,4.895,4.895,0,0,1-.559.056h-.161a2.14,2.14,0,0,1-1.112,0H9.594a5.028,5.028,0,0,1-.636-.1H8.8a.2.2,0,0,0-.154.1H8.559a.238.238,0,0,1-.2,0H7.846a.413.413,0,0,0-.322.077h-.3a2.1,2.1,0,0,0-.769.14.587.587,0,0,1-.238,0,.259.259,0,0,0-.2,0h-.2c-.056,0-.084,0-.084.056S5.685,3.6,5.58,3.6a1.678,1.678,0,0,0-.692-.1,1.126,1.126,0,0,1-.406,0,.343.343,0,0,0-.294,0,.916.916,0,0,1-.475.049H3.531a1.531,1.531,0,0,0-.441-.049.972.972,0,0,1-.434-.126H2.5c-.056,0-.084,0-.084.1a.308.308,0,0,1-.154-.049.119.119,0,0,0-.161,0H1.979a.126.126,0,0,0-.119-.049h-.2c-.056.07-.21.1-.475.1H1.021a1.049,1.049,0,0,1-.7-.049.5.5,0,0,0-.322,0" transform="translate(4.788 9.664) rotate(-120)"/>
    </g>
    <g id="Gruppe_maskieren_4" data-name="Gruppe maskieren 4" class="cls-3" transform="translate(1086.611 2309.41) rotate(180)">
      <path id="trenner-3" data-name="trenner" d="M12.748.7A1.559,1.559,0,0,1,13.2.619l.7-.049a.622.622,0,0,1,.315.049H14.3c.049,0,.077,0,.077-.049s.056,0,0-.056a.7.7,0,0,1-.4-.252h-.161L13.342.213a.483.483,0,0,1-.315,0,.874.874,0,0,0-.483.049l-.4.2a.161.161,0,0,0,.084.154L12.419.7Zm4.084,1.035-.476.154a.538.538,0,0,0-.315.049,1.4,1.4,0,0,1-.559-.049h-.077V1.829c0-.063-.056-.133-.161-.2l.049-.1.476-.049a.259.259,0,0,1,.2,0,.315.315,0,0,0,.2,0s0-.049.084,0,.077.042.077.077.189.119.4.049l.161.049a.189.189,0,0,1-.084.154m2.685.154-.427.133a1.028,1.028,0,0,0-.559.1h-.077l-.161-.1c.056,0,.084,0,.084-.049a.189.189,0,0,0,.077-.126.133.133,0,0,1,.077-.126.07.07,0,0,1,.042-.077h.119a.168.168,0,0,0,.161,0,.853.853,0,0,1,.559,0c.1,0,.154,0,.154.1v.063l-.049.056M6.832,2.675a.769.769,0,0,1-.4,0v-.1a.259.259,0,0,1,.2,0,.427.427,0,0,1,.2.077h0M24.95,4.01a.7.7,0,0,1-.315.049,1.867,1.867,0,0,1-.28,0,.476.476,0,0,0-.28,0c-.1.07-.182.07-.238,0a.636.636,0,0,0-.559-.049,2.433,2.433,0,0,1-.552,0,2.8,2.8,0,0,0-.483,0,6.412,6.412,0,0,0-1.035-.049h-.273a.476.476,0,0,1-.28,0,1.014,1.014,0,0,0-.559.049l-.161-.049a.154.154,0,0,0-.154,0H19.3a.147.147,0,0,1-.119-.056h-.119c-.056,0-.077,0-.077-.049s0-.049-.084-.049a.517.517,0,0,0-.476,0,.119.119,0,0,1-.119,0,.175.175,0,0,0-.119,0l-.4-.049a.42.42,0,0,0-.238-.049,4.329,4.329,0,0,1-1.035.1,4.636,4.636,0,0,1-.7-.049,1.552,1.552,0,0,0-.476.049.839.839,0,0,1-.636-.049.3.3,0,0,0-.4-.1.7.7,0,0,1-.315.056,1.126,1.126,0,0,0-.483,0,1.357,1.357,0,0,1-.476,0c-.049,0-.091-.049-.119,0a.336.336,0,0,1-.119,0c-.1.063-.189.063-.238,0a2.923,2.923,0,0,0-.7,0h-.517a.538.538,0,0,1-.245-.056A7.4,7.4,0,0,0,9.986,3.6h-.4a4.636,4.636,0,0,1-.7-.049,2.427,2.427,0,0,0-.636,0H7.217a2.189,2.189,0,0,1-.552.1H6.5a.35.35,0,0,0-.238,0l-.7-.049a1.077,1.077,0,0,0-.4.049.371.371,0,0,0-.273,0,1.056,1.056,0,0,1-.364,0L3.259,3.6H2.944l-.559-.049q-.084-.1-.4,0a.175.175,0,0,0-.119,0H1.748a1.357,1.357,0,0,0-.476,0,1.273,1.273,0,0,1-.4,0L.79,3.612l-.476.049a.545.545,0,0,0-.315.1v.1a.3.3,0,0,1,.2.077l.119.07v-.1H.629a1.9,1.9,0,0,1,.441.056,2.419,2.419,0,0,1,.434.1h.161a12.5,12.5,0,0,1,1.35.049l.909.077A1.839,1.839,0,0,0,4.4,4.136a.406.406,0,0,1,.4,0,1.084,1.084,0,0,0,.559.1.28.28,0,0,1,.2-.049.4.4,0,0,0,.2-.056H6.07a3.839,3.839,0,0,0,.636.154h.28a.657.657,0,0,1,.357.1.329.329,0,0,0,.322,0,.238.238,0,0,1,.238,0,1.154,1.154,0,0,1,.552.056A.594.594,0,0,0,8.7,4.388a.231.231,0,0,1,.3-.07.455.455,0,0,0,.238,0,.629.629,0,0,1,.322,0l.552-.049a3.923,3.923,0,0,1,.7.049h.434a1.4,1.4,0,0,1,.441.056.21.21,0,0,0,.161,0,.168.168,0,0,1,.161,0,17.342,17.342,0,0,1,1.825.049.622.622,0,0,0,.28.049.566.566,0,0,1,.28.049,1.035,1.035,0,0,1,.322.056.482.482,0,0,0,.315,0h.161c.049.1.189.112.4.049l.315.049h.238a.58.58,0,0,1,.483,0c.049.07.133.07.238,0l.4-.049.4-.049a.378.378,0,0,0,.315.049,1.119,1.119,0,0,1,.4.049.643.643,0,0,1,.4,0l.091-.049a.133.133,0,0,0,.161,0,.14.14,0,0,1,.161,0c.056,0,.077,0,.077.1a.413.413,0,0,0,.322.1.825.825,0,0,0,.315-.049h-.154c-.056,0-.056-.063,0-.126a.315.315,0,0,0,.2,0,.462.462,0,0,1,.2,0c.056,0,.056,0,0,.049s0,.049.084.049a.175.175,0,0,1,.119,0,.119.119,0,0,0,.119,0,.28.28,0,0,1,.168,0h.161a1.832,1.832,0,0,0,.476-.049c.049,0,.077,0,.077.049a.21.21,0,0,0,.161,0,.168.168,0,0,1,.161,0c-.056,0-.1.042-.119,0s-.07,0-.126,0l.483.14V4.766h-.161a.126.126,0,0,1,.077-.1c.077,0,.056-.063,0-.1l.084.2a.531.531,0,0,0,.392.126.371.371,0,0,0,.2-.126.126.126,0,0,1,.119-.077l.161.1.168.1a.629.629,0,0,0,.28,0,.462.462,0,0,1,.2,0c.056,0,.077,0,.077-.049a.643.643,0,0,0,.4.049.455.455,0,0,1,.238,0h.161a.482.482,0,0,0,.238-.049.5.5,0,0,1,.238-.049M24.929.451a.287.287,0,0,1-.315,0c-.231-.133-.322-.231-.322-.3s-.182-.154-.4-.1a.126.126,0,0,1-.154,0c0-.07-.056-.07-.161,0L23.5.2h-.077s0-.049-.077-.049-.056.091-.161.175a.343.343,0,0,0-.2.28s0,.049.084.049H23.5a3.832,3.832,0,0,0,.7.1.51.51,0,0,1,.238.049c0-.07,0-.1.077-.1s.133.063.238-.014c0,0,0-.056.084-.056v.1a.255.255,0,0,1-.161.049c-.1,0-.091-.042-.119,0a.336.336,0,0,1-.119,0l-.322.3a.173.173,0,0,1-.119.077.315.315,0,0,1-.2,0l-.161.049c-.1.063-.182.063-.238,0a.385.385,0,0,1-.28,0,.2.2,0,0,0-.2,0,.168.168,0,0,1-.161,0l-.322-.1a.8.8,0,0,0-.476-.049.315.315,0,0,1-.28.049.5.5,0,0,0-.2-.049.147.147,0,0,1-.119-.049h-.119a.385.385,0,0,1-.28,0l-.2-.1a.427.427,0,0,1,.238-.056A.965.965,0,0,0,21.65.7H21.8a1.245,1.245,0,0,1,.4-.07.469.469,0,0,0,.28-.1,2.8,2.8,0,0,0,.2-.2H22.6A.315.315,0,0,0,22.363.2a.35.35,0,0,0-.238,0,.524.524,0,0,1-.4-.049.168.168,0,0,0-.14,0,.077.077,0,0,0-.077.07.245.245,0,0,1-.161.154.9.9,0,0,0-.238.049A1.231,1.231,0,0,1,20.8.472a.406.406,0,0,1-.343-.1.909.909,0,0,0-.559-.049.545.545,0,0,1-.552-.1.545.545,0,0,0-.161-.147c-.322,0-.5,0-.559.2l-.077.049c.049,0,.063.056,0,.077a.336.336,0,0,1-.119,0,.126.126,0,0,1-.154,0L18.09.3a.413.413,0,0,1-.322-.1s0-.056-.077-.07a.168.168,0,0,0-.161,0,1.35,1.35,0,0,0-.238,0,.315.315,0,0,0-.238.126h-.161c-.266-.07-.42,0-.476.1a.769.769,0,0,0-.357,0,1.056,1.056,0,0,1-.364,0,.371.371,0,0,1-.273,0A1.3,1.3,0,0,0,15.084.3V.6c0,.07.084.119.245.154.049,0,.077,0,.077.049.1.07.161.07.161,0a.538.538,0,0,1,.315-.049.287.287,0,0,1,.2-.063.4.4,0,0,0,.2-.056.21.21,0,0,0,.238-.2.126.126,0,0,1,.119.056.168.168,0,0,0,.119.049.545.545,0,0,1,.4.154c0,.063.084.1.245.1a.238.238,0,0,1,.238,0,.2.2,0,0,0,.154,0,.315.315,0,0,1,.161,0,.783.783,0,0,1,.28-.1.329.329,0,0,1,.28,0,1.007,1.007,0,0,0,.476-.042h.238c.056.07.056.119,0,.154v.1a.811.811,0,0,1-.28.252,1.091,1.091,0,0,1-.441.1h-.154a.769.769,0,0,0-.559,0h-.238a2.909,2.909,0,0,0-.636-.154.4.4,0,0,0-.238.056.224.224,0,0,0-.245,0,.273.273,0,0,1-.154.077c-.056,0-.084,0-.084-.049v.077l.084-.1c0-.1-.084-.133-.238-.1l-.161.049a1.028,1.028,0,0,1-.559.049H15.16a.7.7,0,0,0-.315.049c-.1.07-.189.07-.238,0a1.14,1.14,0,0,0-.238-.1.524.524,0,0,1-.245-.154l-.154.056c-.056,0-.07,0-.042-.056s0-.049-.042-.049-.077.1-.238.1a2.8,2.8,0,0,0-.636.049l-.4.049a.455.455,0,0,0-.357,0,1.4,1.4,0,0,1-.28.07c-.1.07-.182.07-.238,0l-.559-.2a.566.566,0,0,1-.154,0h-.084a1.1,1.1,0,0,1-.552.147.643.643,0,0,1-.364,0,.937.937,0,0,0-.273-.049.175.175,0,0,1-.119,0H9.51c-.056,0,0,.049-.077.049s-.077,0-.077-.049a.371.371,0,0,0-.4,0H8.734a1.8,1.8,0,0,1-.28-.049.622.622,0,0,0-.357,0,.35.35,0,0,1-.238,0,.35.35,0,0,0-.238,0l-.084-.1H7.461c-.266.14-.448.238-.559.308a.923.923,0,0,0,.8.147.427.427,0,0,1,.322,0l.392.308a.594.594,0,0,0,.245-.056.6.6,0,0,1,.476-.1,1,1,0,0,0,.2-.049.21.21,0,0,1,.2,0,.385.385,0,0,1,.28,0,3.035,3.035,0,0,0,.357,0,.35.35,0,0,0,.238,0,.7.7,0,0,1,.238-.049,1.678,1.678,0,0,1,.7-.056,1.825,1.825,0,0,0,.483.056,1.028,1.028,0,0,1,.434.07,2.8,2.8,0,0,0,.364.126.441.441,0,0,1-.161.056c-.056,0-.056,0,0,.049a.5.5,0,0,0,.476.049.329.329,0,0,1,.322-.049c.049,0,.077,0,.077-.049s0-.056.077-.056l.161.056.161-.056a.566.566,0,0,1,.4-.07h.315l.147.049a.629.629,0,0,1,.084.357,3.014,3.014,0,0,0-1.434.049,3.9,3.9,0,0,1-.636.049h-.322a2.923,2.923,0,0,0-.7,0c-.266.07-.427.056-.483-.049a.371.371,0,0,0-.238-.049c-.1.07-.182.07-.238,0a1.867,1.867,0,0,1-.28,0,.385.385,0,0,0-.28,0,.2.2,0,0,1-.154-.049.657.657,0,0,0-.559-.2A8.7,8.7,0,0,1,8.4,1.682a.441.441,0,0,1-.154.049.245.245,0,0,0-.161.049H8.021c-.056-.07-.112-.084-.161-.049A.336.336,0,0,1,7.7,1.78H7.538c-.084,0-.154-.1-.315-.1a1.343,1.343,0,0,0-.322.147.7.7,0,0,1-.476.1c-.056,0-.091-.042-.119,0H6.2a1.475,1.475,0,0,1-.7,0l-.4.049a.79.79,0,0,0-.315.2.916.916,0,0,1-.2,0,.329.329,0,0,1-.2-.091A.112.112,0,0,0,4.315,2a.273.273,0,0,0-.161-.049L3.916,2l-.238.049c.1.07.1.119,0,.154l-.161.1c-.056,0-.056.07,0,.1s0,.07.077.1a.168.168,0,0,0,.161,0,.916.916,0,0,0,.2,0,.259.259,0,0,1,.2,0,.566.566,0,0,0,.4-.049L4.8,2.36c.1,0,.161,0,.161.056s.049.1.154.1.161-.035.161-.1a.07.07,0,0,1,.042-.077H5.44l.762.2c.1.07.077.14-.084.2H5.965a7.279,7.279,0,0,0-1.014.049,5.951,5.951,0,0,1-.8-.049.315.315,0,0,0-.161,0,.21.21,0,0,1-.161,0A.231.231,0,0,0,3.517,2.7a3.182,3.182,0,0,0-1.2.252c.056.1.189.154.4.154A.629.629,0,0,0,3,3.1a.462.462,0,0,1,.2,0l.4.1a4.776,4.776,0,0,0,1,0L5.5,3.073a.937.937,0,0,1,.7.049H6.28c.161,0,.238,0,.238.049a.427.427,0,0,1,.322,0,1.021,1.021,0,0,0,.357,0,1.517,1.517,0,0,1,.357,0l.161.049h.161A1.077,1.077,0,0,1,8.3,3.171h.552a13.147,13.147,0,0,0,1.517-.049,1.573,1.573,0,0,1,.476.049,1.748,1.748,0,0,0,.476.1h.441a2.923,2.923,0,0,1,.7,0h.154l.322-.056a1.469,1.469,0,0,1,.552,0,4.9,4.9,0,0,0,.559.056h.161a2.14,2.14,0,0,0,1.112,0h.161a5.028,5.028,0,0,0,.636-.1h.161a.2.2,0,0,1,.154.1h.084a.238.238,0,0,0,.2,0h.517a.413.413,0,0,1,.322.077h.3a2.1,2.1,0,0,1,.769.14.587.587,0,0,0,.238,0,.259.259,0,0,1,.2,0h.2c.056,0,.084,0,.084.056s.049.049.154.049a1.678,1.678,0,0,1,.692-.1,1.126,1.126,0,0,0,.406,0,.343.343,0,0,1,.294,0,.916.916,0,0,0,.476.049h.182a1.531,1.531,0,0,1,.441-.049.972.972,0,0,0,.434-.126h.161c.056,0,.084,0,.084.1a.308.308,0,0,0,.154-.049.119.119,0,0,1,.161,0H23.1a.126.126,0,0,1,.119-.049h.2c.056.07.21.1.476.1h.161a1.049,1.049,0,0,0,.7-.049.5.5,0,0,1,.322,0" transform="translate(20.477 4.907) rotate(180)"/>
    </g>
  </g>
</svg>
