<svg xmlns="http://www.w3.org/2000/svg" viewBox="0 0 97 10">
  <defs>
    <style>
      .cls-1 {
        fill: #ff4141;
      }
    </style>
  </defs>
  <g id="trenner_rot_titel_mitte" data-name="trenner rot titel mitte" transform="translate(-897.357 -903.785)">
    <path id="trenner" class="cls-1" d="M24.592,1.392a3.109,3.109,0,0,0-.892-.153l-1.394-.1a1.241,1.241,0,0,0-.627.1H21.5c-.1,0-.153,0-.153-.1s-.112,0,0-.112a1.394,1.394,0,0,0,.795-.5h.321l.948-.1a.962.962,0,0,0,.627,0,1.743,1.743,0,0,1,.962.1l.795.4a.321.321,0,0,1-.167.307l-.376.153ZM16.449,3.456l.948.307a1.074,1.074,0,0,1,.627.1,2.789,2.789,0,0,0,1.115-.1h.153V3.651c0-.125.112-.265.321-.4l-.1-.2-.948-.1a.516.516,0,0,0-.4,0,.627.627,0,0,1-.39,0s0-.1-.167,0-.153.084-.153.153-.376.237-.795.1l-.321.1a.376.376,0,0,0,.167.307m-5.354.307L12,4.181a2.05,2.05,0,0,1,1.115.209h.153l.321-.209c-.112,0-.167,0-.167-.1a.376.376,0,0,1-.153-.251.265.265,0,0,0-.153-.251.139.139,0,0,0-.084-.153H12.8a.335.335,0,0,1-.321,0,1.7,1.7,0,0,0-1.115,0c-.209,0-.307,0-.307.209v.125l.1.112M36.388,5.338a1.534,1.534,0,0,0,.795,0v-.2a.516.516,0,0,0-.4,0,.85.85,0,0,0-.39.153h0M.261,8a1.394,1.394,0,0,0,.627.1,3.723,3.723,0,0,0,.558,0A.948.948,0,0,1,2,8.1c.209.139.363.139.474,0A1.269,1.269,0,0,1,3.593,8a4.852,4.852,0,0,0,1.1,0,5.577,5.577,0,0,1,.962,0,12.786,12.786,0,0,1,2.064-.1h.544a.948.948,0,0,0,.558,0A2.022,2.022,0,0,1,9.937,8l.321-.1a.307.307,0,0,1,.307,0h.962a.293.293,0,0,0,.237-.112H12c.112,0,.153,0,.153-.1s0-.1.167-.1a1.032,1.032,0,0,1,.948,0,.237.237,0,0,0,.237,0,.349.349,0,0,1,.237,0l.795-.1a.837.837,0,0,1,.474-.1,8.631,8.631,0,0,0,2.064.2,9.244,9.244,0,0,0,1.394-.1,3.1,3.1,0,0,1,.948.1,1.673,1.673,0,0,0,1.269-.1.6.6,0,0,1,.795-.209,1.394,1.394,0,0,0,.627.112,2.245,2.245,0,0,1,.962,0,2.7,2.7,0,0,0,.948,0c.1,0,.181-.1.237,0a.669.669,0,0,0,.237,0c.209.125.376.125.474,0a5.828,5.828,0,0,1,1.394,0h1.032a1.074,1.074,0,0,0,.488-.112,14.752,14.752,0,0,1,2.217-.1h.795a9.244,9.244,0,0,0,1.394-.1,4.838,4.838,0,0,1,1.269,0h2.064a4.364,4.364,0,0,0,1.1.2h.321a.7.7,0,0,1,.474,0l1.394-.1a2.147,2.147,0,0,1,.795.1.739.739,0,0,1,.544,0,2.105,2.105,0,0,0,.725,0l2.538-.1h.627l1.115-.1q.167-.209.795,0a.349.349,0,0,1,.237,0h.237a2.7,2.7,0,0,1,.948,0,2.538,2.538,0,0,0,.795,0l.167.112.948.1a1.088,1.088,0,0,1,.627.2v.209a.6.6,0,0,0-.39.153L49.383,8v-.2h-.627a3.793,3.793,0,0,0-.878.112,4.824,4.824,0,0,0-.864.2h-.321a24.93,24.93,0,0,0-2.691.1l-1.813.153a3.667,3.667,0,0,1-.948-.112.809.809,0,0,0-.795,0,2.161,2.161,0,0,1-1.115.209.558.558,0,0,0-.39-.1.8.8,0,0,1-.39-.112h-.641a7.654,7.654,0,0,1-1.269.307h-.558a1.311,1.311,0,0,0-.711.2.655.655,0,0,1-.641,0,.474.474,0,0,0-.474,0,2.3,2.3,0,0,0-1.1.112,1.185,1.185,0,0,1-.488-.112.46.46,0,0,0-.6-.139.906.906,0,0,1-.474,0,1.255,1.255,0,0,0-.641,0l-1.1-.1a7.822,7.822,0,0,0-1.394.1h-.864a2.789,2.789,0,0,0-.878.112.418.418,0,0,1-.321,0,.335.335,0,0,0-.321,0,34.579,34.579,0,0,0-3.639.1,1.241,1.241,0,0,1-.558.1,1.129,1.129,0,0,0-.558.1,2.064,2.064,0,0,0-.641.112.962.962,0,0,1-.627,0h-.321c-.1.2-.376.223-.795.1l-.627.1h-.474a1.157,1.157,0,0,0-.962,0c-.1.139-.265.139-.474,0l-.795-.1-.795-.1a.753.753,0,0,1-.627.1,2.231,2.231,0,0,0-.795.1,1.283,1.283,0,0,0-.795,0l-.181-.1a.265.265,0,0,1-.321,0,.279.279,0,0,0-.321,0c-.112,0-.153,0-.153.2a.823.823,0,0,1-.641.209,1.645,1.645,0,0,1-.627-.1h.307c.112,0,.112-.125,0-.251a.627.627,0,0,1-.39,0,.92.92,0,0,0-.39,0c-.112,0-.112,0,0,.1s0,.1-.167.1a.349.349,0,0,0-.237,0,.237.237,0,0,1-.237,0,.558.558,0,0,0-.335,0H8.571a3.653,3.653,0,0,1-.948-.1c-.1,0-.153,0-.153.1a.418.418,0,0,1-.321,0,.335.335,0,0,0-.321,0c.112,0,.2.084.237,0s.139,0,.251,0l-.962.279V9.507h.321A.251.251,0,0,0,6.521,9.3c-.153,0-.112-.125,0-.2l-.167.4a1.06,1.06,0,0,1-.781.251.739.739,0,0,1-.39-.251.251.251,0,0,0-.237-.153l-.321.209-.335.2a1.255,1.255,0,0,1-.558,0,.92.92,0,0,0-.39,0c-.112,0-.153,0-.153-.1a1.283,1.283,0,0,1-.795.1.906.906,0,0,0-.474,0H1.6a.962.962,0,0,1-.474-.1,1,1,0,0,0-.474-.1M.3.9A.572.572,0,0,0,.93.9c.46-.265.641-.46.641-.6S1.934,0,2.366.11a.251.251,0,0,0,.307,0c0-.139.112-.139.321,0L3.161.4h.153s0-.1.153-.1.112.181.321.349a.683.683,0,0,1,.39.558s0,.1-.167.1H3.161a7.641,7.641,0,0,1-1.394.209,1.018,1.018,0,0,0-.474.1c0-.139,0-.2-.153-.2s-.265.125-.474-.028c0,0,0-.112-.167-.112V1.49a.509.509,0,0,0,.321.1c.209,0,.181-.084.237,0a.669.669,0,0,0,.237,0l.641.6a.344.344,0,0,0,.237.153.627.627,0,0,0,.39,0l.321.1c.209.125.363.125.474,0a.767.767,0,0,0,.558,0,.39.39,0,0,1,.39,0,.335.335,0,0,0,.321,0l.641-.209a1.59,1.59,0,0,1,.948-.1.627.627,0,0,0,.558.1,1,1,0,0,1,.39-.1.293.293,0,0,0,.237-.1h.237a.767.767,0,0,0,.558,0l.39-.2a.851.851,0,0,0-.474-.112,1.924,1.924,0,0,1-1.269-.335H6.535a2.482,2.482,0,0,0-.795-.139.934.934,0,0,1-.558-.2,5.577,5.577,0,0,1-.4-.4h.167A.627.627,0,0,1,5.42.4a.7.7,0,0,1,.474,0A1.046,1.046,0,0,0,6.689.3a.335.335,0,0,1,.279,0,.153.153,0,0,1,.153.139.488.488,0,0,0,.321.307,1.785,1.785,0,0,1,.474.1,2.454,2.454,0,0,0,.627.1.809.809,0,0,0,.683-.2,1.813,1.813,0,0,1,1.115-.1,1.088,1.088,0,0,0,1.1-.209,1.088,1.088,0,0,1,.321-.293c.641,0,1,0,1.115.4l.153.1c-.1,0-.125.112,0,.153a.669.669,0,0,0,.237,0,.251.251,0,0,0,.307,0l.363-.2A.823.823,0,0,0,14.581.4s0-.112.153-.139a.335.335,0,0,1,.321,0,2.691,2.691,0,0,1,.474,0A.627.627,0,0,1,16,.514h.321c.53-.139.837,0,.948.2a1.534,1.534,0,0,1,.711,0,2.105,2.105,0,0,0,.725,0,.739.739,0,0,0,.544,0,2.593,2.593,0,0,1,.683-.1v.6c0,.139-.167.237-.488.307-.1,0-.153,0-.153.1-.209.139-.321.139-.321,0a1.074,1.074,0,0,0-.627-.1.572.572,0,0,0-.4-.125.8.8,0,0,1-.39-.112.418.418,0,0,1-.474-.4.251.251,0,0,0-.237.112.335.335,0,0,1-.237.1,1.088,1.088,0,0,0-.795.307c0,.125-.167.2-.488.2a.474.474,0,0,0-.474,0,.39.39,0,0,1-.307,0,.627.627,0,0,0-.321,0,1.562,1.562,0,0,0-.558-.2.655.655,0,0,0-.558,0,2.008,2.008,0,0,1-.948-.084H11.68c-.112.139-.112.237,0,.307v.209a1.617,1.617,0,0,0,.558.5,2.175,2.175,0,0,0,.878.2h.307a1.534,1.534,0,0,1,1.115,0h.474a5.8,5.8,0,0,1,1.269-.307.8.8,0,0,1,.474.112.446.446,0,0,1,.488,0,.544.544,0,0,0,.307.153c.112,0,.167,0,.167-.1v.153l-.167-.209c0-.2.167-.265.474-.2l.321.1a2.05,2.05,0,0,0,1.115.1h.321a1.394,1.394,0,0,1,.627.1c.209.139.376.139.474,0a2.273,2.273,0,0,1,.474-.2,1.046,1.046,0,0,0,.488-.307l.307.112c.112,0,.139,0,.084-.112s0-.1.084-.1.153.209.474.209a5.577,5.577,0,0,1,1.269.1l.795.1a.906.906,0,0,1,.711,0,2.789,2.789,0,0,0,.558.139c.209.139.363.139.474,0l1.115-.39a1.129,1.129,0,0,0,.307,0h.167a2.2,2.2,0,0,0,1.1.293,1.283,1.283,0,0,0,.725,0,1.868,1.868,0,0,1,.544-.1.349.349,0,0,0,.237,0h.251c.112,0,0,.1.153.1s.153,0,.153-.1a.739.739,0,0,1,.795,0H32.6a3.583,3.583,0,0,0,.558-.1,1.241,1.241,0,0,1,.711,0,.7.7,0,0,0,.474,0,.7.7,0,0,1,.474,0l.167-.2h.153c.53.279.892.474,1.115.613a1.841,1.841,0,0,1-1.59.293.851.851,0,0,0-.641,0l-.781.613a1.185,1.185,0,0,1-.488-.112,1.2,1.2,0,0,0-.948-.2,1.994,1.994,0,0,1-.39-.1.418.418,0,0,0-.4,0,.767.767,0,0,0-.558,0,6.051,6.051,0,0,1-.711,0,.7.7,0,0,1-.474,0,1.394,1.394,0,0,0-.474-.1,3.346,3.346,0,0,0-1.394-.112,3.639,3.639,0,0,1-.962.112,2.05,2.05,0,0,0-.864.139,5.577,5.577,0,0,1-.725.251.878.878,0,0,0,.321.112c.112,0,.112,0,0,.1a1,1,0,0,1-.948.1.655.655,0,0,0-.641-.1c-.1,0-.153,0-.153-.1s0-.112-.153-.112l-.321.112-.321-.112a1.129,1.129,0,0,0-.795-.139H21.2l-.293.1a1.255,1.255,0,0,0-.167.711,6.009,6.009,0,0,1,2.858.1,7.78,7.78,0,0,0,1.269.1h.641a5.828,5.828,0,0,1,1.394,0c.53.139.851.112.962-.1a.739.739,0,0,1,.474-.1c.209.139.363.139.474,0a3.723,3.723,0,0,0,.558,0,.767.767,0,0,1,.558,0,.39.39,0,0,0,.307-.1,1.311,1.311,0,0,1,1.115-.4,17.346,17.346,0,0,0,1.91-.1.878.878,0,0,0,.307.1.488.488,0,0,1,.321.1h.125c.112-.139.223-.167.321-.1a.669.669,0,0,0,.321.1h.321c.167,0,.307-.2.627-.2a2.677,2.677,0,0,1,.641.293,1.394,1.394,0,0,0,.948.209c.112,0,.181-.084.237,0h.209a2.942,2.942,0,0,0,1.394,0l.795.1a1.576,1.576,0,0,1,.627.4,1.826,1.826,0,0,0,.39,0,.655.655,0,0,0,.4-.181.223.223,0,0,1,.153-.2.544.544,0,0,1,.321-.1l.474.1.474.1c-.209.139-.209.237,0,.307l.321.2c.112,0,.112.139,0,.2s0,.139-.153.209a.335.335,0,0,1-.321,0,1.826,1.826,0,0,1-.39,0,.516.516,0,0,0-.4,0,1.129,1.129,0,0,1-.795-.1l-.5-.181c-.209,0-.321,0-.321.112s-.1.2-.307.2-.321-.07-.321-.2a.139.139,0,0,0-.084-.153h-.237l-1.52.4c-.209.139-.153.279.167.4h.307a14.514,14.514,0,0,1,2.022.1,11.865,11.865,0,0,0,1.59-.1.627.627,0,0,1,.321,0,.418.418,0,0,0,.321,0A.46.46,0,0,1,43,5.38a6.344,6.344,0,0,1,2.384.5c-.112.209-.376.307-.795.307a1.255,1.255,0,0,1-.558,0,.92.92,0,0,0-.39,0l-.795.2a9.523,9.523,0,0,1-1.994,0l-1.813-.251a1.868,1.868,0,0,0-1.394.1h-.153c-.321,0-.474,0-.474.1a.851.851,0,0,0-.641,0,2.036,2.036,0,0,1-.711,0,3.026,3.026,0,0,0-.711,0l-.321.1H34.31a2.147,2.147,0,0,0-.851-.1h-1.1a26.214,26.214,0,0,1-3.026-.1,3.137,3.137,0,0,0-.948.1,3.486,3.486,0,0,1-.948.209h-.878a5.828,5.828,0,0,0-1.394,0h-.307l-.641-.112a2.928,2.928,0,0,0-1.1,0A9.76,9.76,0,0,1,22,6.537h-.321a4.267,4.267,0,0,1-2.217,0H19.14a10.025,10.025,0,0,1-1.269-.209H17.55a.39.39,0,0,0-.307.209h-.167a.474.474,0,0,1-.39,0H15.654a.823.823,0,0,0-.641.153h-.6a4.183,4.183,0,0,0-1.534.279,1.171,1.171,0,0,1-.474,0,.516.516,0,0,0-.4,0h-.39c-.112,0-.167,0-.167.112s-.1.1-.307.1a3.346,3.346,0,0,0-1.38-.209,2.245,2.245,0,0,1-.809,0,.683.683,0,0,0-.586,0,1.827,1.827,0,0,1-.948.1H7.051a3.054,3.054,0,0,0-.878-.1,1.938,1.938,0,0,1-.864-.251H4.988c-.112,0-.167,0-.167.2a.613.613,0,0,1-.307-.1.237.237,0,0,0-.321,0H3.956a.251.251,0,0,0-.237-.1h-.4c-.112.139-.418.2-.948.2H2.046a2.091,2.091,0,0,1-1.394-.1,1,1,0,0,0-.641,0" transform="translate(944.347 903.995)"/>
    <path id="trenner-2" data-name="trenner" class="cls-1" d="M25.416,8.4a3.108,3.108,0,0,0,.892.153l1.394.1a1.24,1.24,0,0,0,.627-.1h.181c.1,0,.153,0,.153.1s.111,0,0,.111a1.394,1.394,0,0,0-.794.5h-.321l-.948.1a.962.962,0,0,0-.627,0,1.742,1.742,0,0,1-.962-.1l-.794-.4a.321.321,0,0,1,.167-.307l.376-.153Zm8.139-2.063-.948-.307a1.073,1.073,0,0,1-.627-.1,2.787,2.787,0,0,0-1.115.1h-.153v.111c0,.125-.111.265-.321.4l.1.2.948.1a.516.516,0,0,0,.4,0,.627.627,0,0,1,.39,0s0,.1.167,0,.153-.084.153-.153.376-.237.794-.1l.321-.1a.376.376,0,0,0-.167-.307m5.352-.307L38,5.611A2.049,2.049,0,0,1,36.886,5.4h-.153l-.321.209c.111,0,.167,0,.167.1a.376.376,0,0,1,.153.251.265.265,0,0,0,.153.251.139.139,0,0,0,.084.153h.237a.334.334,0,0,1,.321,0,1.7,1.7,0,0,0,1.115,0c.209,0,.307,0,.307-.209V6.029l-.1-.111M13.626,4.454a1.533,1.533,0,0,0-.794,0v.2a.516.516,0,0,0,.4,0,.85.85,0,0,0,.39-.153h0m36.11-2.7a1.394,1.394,0,0,0-.627-.1,3.721,3.721,0,0,0-.557,0,.948.948,0,0,1-.557,0c-.209-.139-.362-.139-.474,0a1.268,1.268,0,0,1-1.115.1,4.85,4.85,0,0,0-1.1,0,5.575,5.575,0,0,1-.962,0,12.78,12.78,0,0,1-2.063.1h-.544a.948.948,0,0,0-.557,0,2.021,2.021,0,0,1-1.115-.1l-.321.1a.307.307,0,0,1-.307,0h-.962A.293.293,0,0,0,38.238,2H38c-.111,0-.153,0-.153.1s0,.1-.167.1a1.031,1.031,0,0,1-.948,0,.237.237,0,0,0-.237,0,.348.348,0,0,1-.237,0l-.794.1a.836.836,0,0,1-.474.1,8.627,8.627,0,0,0-2.063-.2,9.24,9.24,0,0,0-1.394.1,3.094,3.094,0,0,1-.948-.1,1.672,1.672,0,0,0-1.268.1.6.6,0,0,1-.794.209,1.394,1.394,0,0,0-.627-.111,2.244,2.244,0,0,1-.962,0,2.7,2.7,0,0,0-.948,0c-.1,0-.181.1-.237,0a.669.669,0,0,0-.237,0c-.209-.125-.376-.125-.474,0a5.825,5.825,0,0,1-1.394,0H22.615a1.073,1.073,0,0,0-.488.111,14.745,14.745,0,0,1-2.216.1h-.794a9.24,9.24,0,0,0-1.394.1,4.836,4.836,0,0,1-1.268,0H14.393a4.362,4.362,0,0,0-1.1-.2h-.321a.7.7,0,0,1-.474,0L11.1,2.6a2.146,2.146,0,0,1-.794-.1.739.739,0,0,1-.544,0,2.1,2.1,0,0,0-.725,0L6.5,2.6H5.877l-1.115.1q-.167.209-.794,0a.348.348,0,0,1-.237,0H3.494a2.7,2.7,0,0,1-.948,0,2.537,2.537,0,0,0-.794,0l-.167-.111-.948-.1a1.087,1.087,0,0,1-.627-.2V2.085A.6.6,0,0,0,.4,1.932l.237-.139v.2h.627a3.791,3.791,0,0,0,.878-.111,4.822,4.822,0,0,0,.864-.2h.321a24.919,24.919,0,0,0,2.69-.1L7.828,1.43a3.665,3.665,0,0,1,.948.111.808.808,0,0,0,.794,0,2.16,2.16,0,0,1,1.115-.209.557.557,0,0,0,.39.1.794.794,0,0,1,.39.111h.641a7.65,7.65,0,0,1,1.268-.307h.557a1.31,1.31,0,0,0,.711-.2.655.655,0,0,1,.641,0,.474.474,0,0,0,.474,0,2.3,2.3,0,0,0,1.1-.111,1.185,1.185,0,0,1,.488.111.46.46,0,0,0,.6.139.906.906,0,0,1,.474,0,1.254,1.254,0,0,0,.641,0l1.1.1a7.819,7.819,0,0,0,1.394-.1h.864a2.787,2.787,0,0,0,.878-.111.418.418,0,0,1,.321,0,.334.334,0,0,0,.321,0,34.563,34.563,0,0,0,3.637-.1,1.24,1.24,0,0,1,.557-.1,1.129,1.129,0,0,0,.557-.1,2.063,2.063,0,0,0,.641-.111.962.962,0,0,1,.627,0h.321c.1-.2.376-.223.794-.1l.627-.1h.474a1.157,1.157,0,0,0,.962,0c.1-.139.265-.139.474,0l.794.1.794.1a.753.753,0,0,1,.627-.1,2.23,2.23,0,0,0,.794-.1,1.282,1.282,0,0,0,.794,0l.181.1a.265.265,0,0,1,.321,0,.279.279,0,0,0,.321,0c.111,0,.153,0,.153-.2a.822.822,0,0,1,.641-.209,1.644,1.644,0,0,1,.627.1h-.307c-.111,0-.111.125,0,.251a.627.627,0,0,1,.39,0,.92.92,0,0,0,.39,0c.111,0,.111,0,0-.1s0-.1.167-.1a.348.348,0,0,0,.237,0,.237.237,0,0,1,.237,0,.557.557,0,0,0,.334,0h.321a3.651,3.651,0,0,1,.948.1c.1,0,.153,0,.153-.1a.418.418,0,0,1,.321,0,.334.334,0,0,0,.321,0c-.111,0-.2-.084-.237,0s-.139,0-.251,0l.962-.279V.287h-.321A.251.251,0,0,0,43.478.5c.153,0,.111.125,0,.2l.167-.4a1.059,1.059,0,0,1,.78-.251.739.739,0,0,1,.39.251.251.251,0,0,0,.237.153l.321-.209.334-.2a1.254,1.254,0,0,1,.557,0,.92.92,0,0,0,.39,0c.111,0,.153,0,.153.1a1.282,1.282,0,0,1,.794-.1.906.906,0,0,0,.474,0H48.4a.962.962,0,0,1,.474.1,1,1,0,0,0,.474.1m.348,8.655a.571.571,0,0,0-.627,0c-.46.265-.641.46-.641.6s-.362.307-.794.2a.251.251,0,0,0-.307,0c0,.139-.111.139-.321,0l-.167-.293h-.153s0,.1-.153.1-.111-.181-.321-.348a.683.683,0,0,1-.39-.557s0-.1.167-.1h.85a7.637,7.637,0,0,1,1.394-.209,1.017,1.017,0,0,0,.474-.1c0,.139,0,.2.153.2s.265-.125.474.028c0,0,0,.111.167.111V8.3a.509.509,0,0,0-.321-.1c-.209,0-.181.084-.237,0a.669.669,0,0,0-.237,0l-.641-.6a.344.344,0,0,0-.237-.153.627.627,0,0,0-.39,0l-.321-.1c-.209-.125-.362-.125-.474,0a.767.767,0,0,0-.557,0,.39.39,0,0,1-.39,0,.334.334,0,0,0-.321,0l-.641.209a1.589,1.589,0,0,1-.948.1.627.627,0,0,0-.557-.1,1,1,0,0,1-.39.1.293.293,0,0,0-.237.1h-.237a.767.767,0,0,0-.557,0l-.39.2a.85.85,0,0,0,.474.111,1.923,1.923,0,0,1,1.268.334h.307a2.481,2.481,0,0,0,.794.139.934.934,0,0,1,.557.2,5.575,5.575,0,0,1,.4.4h-.167a.627.627,0,0,1-.474.251.7.7,0,0,1-.474,0,1.045,1.045,0,0,0-.794.1.334.334,0,0,1-.279,0,.153.153,0,0,1-.153-.139.488.488,0,0,0-.321-.307,1.784,1.784,0,0,1-.474-.1,2.453,2.453,0,0,0-.627-.1.808.808,0,0,0-.683.2,1.812,1.812,0,0,1-1.115.1,1.087,1.087,0,0,0-1.1.209,1.087,1.087,0,0,1-.321.293c-.641,0-1,0-1.115-.4l-.153-.1c.1,0,.125-.111,0-.153a.669.669,0,0,0-.237,0,.251.251,0,0,0-.307,0l-.362.2a.822.822,0,0,0-.641.209s0,.111-.153.139a.334.334,0,0,1-.321,0,2.69,2.69,0,0,1-.474,0A.627.627,0,0,1,34,9.276h-.321c-.53.139-.836,0-.948-.2a1.533,1.533,0,0,1-.711,0,2.1,2.1,0,0,0-.725,0,.739.739,0,0,0-.544,0,2.592,2.592,0,0,1-.683.1v-.6c0-.139.167-.237.488-.307.1,0,.153,0,.153-.1.209-.139.321-.139.321,0a1.073,1.073,0,0,0,.627.1.571.571,0,0,0,.4.125.794.794,0,0,1,.39.111.418.418,0,0,1,.474.4.251.251,0,0,0,.237-.111.334.334,0,0,1,.237-.1A1.087,1.087,0,0,0,34.2,8.4c0-.125.167-.2.488-.2a.474.474,0,0,0,.474,0,.39.39,0,0,1,.307,0,.627.627,0,0,0,.321,0,1.561,1.561,0,0,0,.557.2.655.655,0,0,0,.557,0,2.007,2.007,0,0,1,.948.084h.474c.111-.139.111-.237,0-.307V7.966a1.617,1.617,0,0,0-.557-.5,2.174,2.174,0,0,0-.878-.2H36.58a1.533,1.533,0,0,1-1.115,0h-.474a5.8,5.8,0,0,1-1.268.307.794.794,0,0,1-.474-.111.446.446,0,0,1-.488,0,.544.544,0,0,0-.307-.153c-.111,0-.167,0-.167.1V7.256l.167.209c0,.2-.167.265-.474.2l-.321-.1a2.049,2.049,0,0,0-1.115-.1h-.321a1.394,1.394,0,0,1-.627-.1c-.209-.139-.376-.139-.474,0a2.272,2.272,0,0,1-.474.2,1.045,1.045,0,0,0-.488.307l-.307-.111c-.111,0-.139,0-.084.111s0,.1-.084.1-.153-.209-.474-.209a5.575,5.575,0,0,1-1.268-.1l-.794-.1a.906.906,0,0,1-.711,0,2.787,2.787,0,0,0-.557-.139c-.209-.139-.362-.139-.474,0l-1.115.39a1.129,1.129,0,0,0-.307,0h-.167a2.2,2.2,0,0,0-1.1-.293,1.282,1.282,0,0,0-.725,0,1.867,1.867,0,0,1-.544.1.348.348,0,0,0-.237,0h-.251c-.111,0,0-.1-.153-.1s-.153,0-.153.1a.739.739,0,0,1-.794,0h-.446a3.582,3.582,0,0,0-.557.1,1.24,1.24,0,0,1-.711,0,.7.7,0,0,0-.474,0,.7.7,0,0,1-.474,0l-.167.2H14.88c-.53-.279-.892-.474-1.115-.613A1.84,1.84,0,0,1,15.354,7,.85.85,0,0,0,16,7l.78-.613a1.185,1.185,0,0,1,.488.111,1.2,1.2,0,0,0,.948.2,1.993,1.993,0,0,1,.39.1.418.418,0,0,0,.4,0,.767.767,0,0,0,.557,0,6.048,6.048,0,0,1,.711,0,.7.7,0,0,1,.474,0,1.394,1.394,0,0,0,.474.1A3.345,3.345,0,0,0,22.615,7a3.637,3.637,0,0,1,.962-.111,2.049,2.049,0,0,0,.864-.139,5.575,5.575,0,0,1,.725-.251.878.878,0,0,0-.321-.111c-.111,0-.111,0,0-.1a1,1,0,0,1,.948-.1.655.655,0,0,0,.641.1c.1,0,.153,0,.153.1s0,.111.153.111l.321-.111.321.111a1.129,1.129,0,0,0,.794.139H28.8l.293-.1a1.254,1.254,0,0,0,.167-.711,6.007,6.007,0,0,1-2.857-.1,7.777,7.777,0,0,0-1.268-.1H24.5a5.825,5.825,0,0,1-1.394,0c-.53-.139-.85-.111-.962.1a.739.739,0,0,1-.474.1c-.209-.139-.362-.139-.474,0a3.721,3.721,0,0,0-.557,0,.767.767,0,0,1-.557,0,.39.39,0,0,0-.307.1,1.31,1.31,0,0,1-1.115.4,17.337,17.337,0,0,0-1.909.1.878.878,0,0,0-.307-.1.488.488,0,0,1-.321-.1H16c-.112.139-.223.167-.321.1a.669.669,0,0,0-.321-.1h-.321c-.167,0-.307.2-.627.2a2.676,2.676,0,0,1-.641-.293,1.394,1.394,0,0,0-.948-.209c-.111,0-.181.084-.237,0h-.209a2.941,2.941,0,0,0-1.394,0l-.794-.1a1.575,1.575,0,0,1-.627-.4,1.826,1.826,0,0,0-.39,0,.655.655,0,0,0-.4.181.223.223,0,0,1-.153.2.544.544,0,0,1-.321.1l-.474-.1-.474-.1c.209-.139.209-.237,0-.307l-.321-.2c-.112,0-.112-.139,0-.2s0-.139.153-.209a.334.334,0,0,1,.321,0,1.826,1.826,0,0,1,.39,0,.516.516,0,0,0,.4,0,1.129,1.129,0,0,1,.794.1l.5.181c.209,0,.321,0,.321-.111s.1-.2.307-.2.321.07.321.2a.139.139,0,0,0,.084.153h.237l1.519-.4c.209-.139.153-.279-.167-.4H11.9a14.508,14.508,0,0,1-2.021-.1,11.86,11.86,0,0,0-1.589.1.627.627,0,0,1-.321,0,.418.418,0,0,0-.321,0,.46.46,0,0,1-.627.1,6.341,6.341,0,0,1-2.383-.5c.111-.209.376-.307.794-.307a1.254,1.254,0,0,1,.557,0,.92.92,0,0,0,.39,0l.794-.2a9.519,9.519,0,0,1,1.993,0l1.812.251a1.868,1.868,0,0,0,1.394-.1h.153c.321,0,.474,0,.474-.1a.85.85,0,0,0,.641,0,2.035,2.035,0,0,1,.711,0,3.024,3.024,0,0,0,.711,0l.321-.1H15.7a2.146,2.146,0,0,0,.85.1h1.1a26.2,26.2,0,0,1,3.024.1,3.136,3.136,0,0,0,.948-.1,3.484,3.484,0,0,1,.948-.209h.878a5.825,5.825,0,0,0,1.394,0h.307l.641.111a2.927,2.927,0,0,0,1.1,0,9.756,9.756,0,0,1,1.115-.111h.321a4.265,4.265,0,0,1,2.216,0h.321a10.02,10.02,0,0,1,1.268.209h.321a.39.39,0,0,0,.307-.209h.167a.474.474,0,0,1,.39,0H34.35a.822.822,0,0,0,.641-.153h.6a4.181,4.181,0,0,0,1.533-.279,1.171,1.171,0,0,1,.474,0,.516.516,0,0,0,.4,0h.39c.111,0,.167,0,.167-.111s.1-.1.307-.1a3.345,3.345,0,0,0,1.38.209,2.244,2.244,0,0,1,.808,0,.683.683,0,0,0,.585,0,1.826,1.826,0,0,1,.948-.1h.362a3.052,3.052,0,0,0,.878.1,1.937,1.937,0,0,1,.864.251h.321c.111,0,.167,0,.167-.2a.613.613,0,0,1,.307.1.237.237,0,0,0,.321,0h.237a.251.251,0,0,0,.237.1h.4c.111-.139.418-.2.948-.2h.321a2.09,2.09,0,0,1,1.394.1,1,1,0,0,0,.641,0" transform="translate(897.347 903.78)"/>
  </g>
</svg>
