<svg xmlns="http://www.w3.org/2000/svg" viewBox="0 0 35.771 7">
  <g id="trenner_rot_titel_links" data-name="trenner rot titel links" transform="translate(-360.357 -878)">
    <path id="trenner" d="M17.6,1a2.224,2.224,0,0,0-.638-.11l-1-.07a.888.888,0,0,0-.449.07h-.13c-.07,0-.11,0-.11-.07s-.08,0,0-.08A1,1,0,0,0,15.84.379h.229l.678-.07a.688.688,0,0,0,.449,0,1.247,1.247,0,0,1,.688.07l.569.289a.229.229,0,0,1-.12.219L18.065,1ZM11.771,2.474l.678.219a.768.768,0,0,1,.449.07,2,2,0,0,0,.8-.07h.11v-.08c0-.09.08-.19.229-.289l-.07-.14-.678-.07a.369.369,0,0,0-.289,0,.449.449,0,0,1-.279,0s0-.07-.12,0-.11.06-.11.11-.269.17-.569.07l-.229.07a.269.269,0,0,0,.12.219M7.98,2.8l.608.19a1.466,1.466,0,0,1,.8.15H9.5l.229-.15c-.08,0-.12,0-.12-.07a.269.269,0,0,1-.11-.18.19.19,0,0,0-.11-.18.1.1,0,0,0-.06-.11h-.17a.239.239,0,0,1-.229,0,1.217,1.217,0,0,0-.8,0c-.15,0-.219,0-.219.15v.09l.07.08M26.035,3.82a1.1,1.1,0,0,0,.569,0v-.14a.369.369,0,0,0-.289,0,.608.608,0,0,0-.279.11h0M.19,5.726a1,1,0,0,0,.449.07,2.663,2.663,0,0,0,.4,0,.678.678,0,0,1,.4,0c.15.1.259.1.339,0a.908.908,0,0,1,.8-.07,3.471,3.471,0,0,0,.788,0,3.99,3.99,0,0,1,.688,0,9.147,9.147,0,0,1,1.476-.07h.389a.678.678,0,0,0,.4,0,1.446,1.446,0,0,1,.8.07l.229-.07a.219.219,0,0,1,.219,0h.688a.209.209,0,0,0,.17-.08h.17c.08,0,.11,0,.11-.07s0-.07.12-.07a.738.738,0,0,1,.678,0,.17.17,0,0,0,.17,0,.249.249,0,0,1,.17,0l.569-.07a.6.6,0,0,1,.339-.07,6.175,6.175,0,0,0,1.476.14,6.613,6.613,0,0,0,1-.07,2.214,2.214,0,0,1,.678.07,1.2,1.2,0,0,0,.908-.07.429.429,0,0,1,.569-.15,1,1,0,0,0,.449.08,1.606,1.606,0,0,1,.688,0,1.935,1.935,0,0,0,.678,0c.07,0,.13-.07.17,0a.479.479,0,0,0,.17,0c.15.09.269.09.339,0a4.17,4.17,0,0,1,1,0H19.6a.768.768,0,0,0,.349-.08,10.553,10.553,0,0,1,1.586-.07H22.1a6.613,6.613,0,0,0,1-.07,3.461,3.461,0,0,1,.908,0h1.476a3.122,3.122,0,0,0,.788.14H26.5a.5.5,0,0,1,.339,0l1-.07a1.536,1.536,0,0,1,.569.07.529.529,0,0,1,.389,0,1.506,1.506,0,0,0,.519,0l1.815-.07h.449l.8-.07q.12-.15.569,0a.249.249,0,0,1,.17,0h.17a1.935,1.935,0,0,1,.678,0,1.816,1.816,0,0,0,.569,0l.12.08.678.07a.778.778,0,0,1,.449.14v.15a.429.429,0,0,0-.279.11l-.17.1v-.14h-.449a2.713,2.713,0,0,0-.628.08,3.451,3.451,0,0,0-.618.14h-.229a17.835,17.835,0,0,0-1.925.07l-1.3.11a2.623,2.623,0,0,1-.678-.08.579.579,0,0,0-.569,0,1.546,1.546,0,0,1-.8.15.4.4,0,0,0-.279-.07.569.569,0,0,1-.279-.08h-.459a5.476,5.476,0,0,1-.908.219h-.4a.938.938,0,0,0-.509.14.469.469,0,0,1-.459,0,.339.339,0,0,0-.339,0,1.646,1.646,0,0,0-.788.08.848.848,0,0,1-.349-.08.329.329,0,0,0-.429-.1.648.648,0,0,1-.339,0,.9.9,0,0,0-.459,0l-.788-.07a5.6,5.6,0,0,0-1,.07h-.618a2,2,0,0,0-.628.08.3.3,0,0,1-.229,0,.239.239,0,0,0-.229,0,24.738,24.738,0,0,0-2.6.07.888.888,0,0,1-.4.07.808.808,0,0,0-.4.07,1.476,1.476,0,0,0-.459.08.688.688,0,0,1-.449,0h-.229c-.07.14-.269.16-.569.07l-.449.07h-.339a.828.828,0,0,0-.688,0c-.07.1-.19.1-.339,0l-.569-.07-.569-.07a.539.539,0,0,1-.449.07,1.6,1.6,0,0,0-.569.07.918.918,0,0,0-.569,0l-.13-.07a.19.19,0,0,1-.229,0,.2.2,0,0,0-.229,0c-.08,0-.11,0-.11.14a.589.589,0,0,1-.459.15,1.177,1.177,0,0,1-.449-.07h.219c.08,0,.08-.09,0-.18a.449.449,0,0,1-.279,0,.658.658,0,0,0-.279,0c-.08,0-.08,0,0,.07s0,.07-.12.07a.249.249,0,0,0-.17,0,.17.17,0,0,1-.17,0,.4.4,0,0,0-.239,0H6.135a2.613,2.613,0,0,1-.678-.07c-.07,0-.11,0-.11.07a.3.3,0,0,1-.229,0,.239.239,0,0,0-.229,0c.08,0,.14.06.17,0s.1,0,.18,0l-.688.2V6.8h.229a.18.18,0,0,0-.11-.15c-.11,0-.08-.09,0-.14l-.12.289a.758.758,0,0,1-.559.18.529.529,0,0,1-.279-.18.18.18,0,0,0-.17-.11l-.229.15-.239.14a.9.9,0,0,1-.4,0,.658.658,0,0,0-.279,0c-.08,0-.11,0-.11-.07a.918.918,0,0,1-.569.07.648.648,0,0,0-.339,0H1.147a.688.688,0,0,1-.339-.07.718.718,0,0,0-.339-.07M.219.648a.409.409,0,0,0,.449,0C1,.459,1.127.319,1.127.219S1.387,0,1.7.08a.18.18,0,0,0,.219,0c0-.1.08-.1.229,0l.12.209h.11s0-.07.11-.07.08.13.229.249a.489.489,0,0,1,.279.4s0,.07-.12.07H2.264a5.466,5.466,0,0,1-1,.15.728.728,0,0,0-.339.07c0-.1,0-.14-.11-.14S.628,1.107.479,1c0,0,0-.08-.12-.08v.15a.364.364,0,0,0,.229.07c.15,0,.13-.06.17,0a.479.479,0,0,0,.17,0l.459.429a.246.246,0,0,0,.17.11.449.449,0,0,0,.279,0l.229.07c.15.09.259.09.339,0a.549.549,0,0,0,.4,0,.279.279,0,0,1,.279,0,.239.239,0,0,0,.229,0l.459-.15a1.137,1.137,0,0,1,.678-.07.449.449,0,0,0,.4.07.718.718,0,0,1,.279-.07.209.209,0,0,0,.17-.07h.17a.549.549,0,0,0,.4,0l.279-.14a.608.608,0,0,0-.339-.08A1.377,1.377,0,0,1,4.9,1H4.678A1.776,1.776,0,0,0,4.11.9a.668.668,0,0,1-.4-.14A3.99,3.99,0,0,1,3.421.469h.12A.449.449,0,0,1,3.88.289a.5.5,0,0,1,.339,0,.748.748,0,0,0,.569-.07.239.239,0,0,1,.2,0,.11.11,0,0,1,.11.1.349.349,0,0,0,.229.219,1.277,1.277,0,0,1,.339.07,1.756,1.756,0,0,0,.449.07A.579.579,0,0,0,6.6.539a1.3,1.3,0,0,1,.8-.07A.778.778,0,0,0,8.19.319.778.778,0,0,1,8.419.11c.459,0,.718,0,.8.289l.11.07c-.07,0-.09.08,0,.11a.479.479,0,0,0,.17,0,.18.18,0,0,0,.219,0l.259-.14a.589.589,0,0,0,.459-.15s0-.08.11-.1a.239.239,0,0,1,.229,0,1.925,1.925,0,0,1,.339,0,.449.449,0,0,1,.339.18h.229c.379-.1.6,0,.678.14a1.1,1.1,0,0,1,.509,0,1.506,1.506,0,0,0,.519,0,.529.529,0,0,0,.389,0,1.855,1.855,0,0,1,.489-.07V.868c0,.1-.12.17-.349.219-.07,0-.11,0-.11.07-.15.1-.229.1-.229,0a.768.768,0,0,0-.449-.07A.409.409,0,0,0,12.838,1a.569.569,0,0,1-.279-.08.3.3,0,0,1-.339-.289.18.18,0,0,0-.17.08.239.239,0,0,1-.17.07A.778.778,0,0,0,11.312,1c0,.09-.12.14-.349.14a.339.339,0,0,0-.339,0,.279.279,0,0,1-.219,0,.449.449,0,0,0-.229,0,1.117,1.117,0,0,0-.4-.14.469.469,0,0,0-.4,0A1.436,1.436,0,0,1,8.7.938H8.359c-.08.1-.08.17,0,.219v.15a1.157,1.157,0,0,0,.4.359,1.556,1.556,0,0,0,.628.14h.219a1.1,1.1,0,0,1,.8,0h.339a4.15,4.15,0,0,1,.908-.219.569.569,0,0,1,.339.08.319.319,0,0,1,.349,0,.389.389,0,0,0,.219.11c.08,0,.12,0,.12-.07v.11l-.12-.15c0-.14.12-.19.339-.14l.229.07a1.466,1.466,0,0,0,.8.07h.229a1,1,0,0,1,.449.07c.15.1.269.1.339,0a1.626,1.626,0,0,1,.339-.14.748.748,0,0,0,.349-.219l.219.08c.08,0,.1,0,.06-.08s0-.07.06-.07.11.15.339.15a3.99,3.99,0,0,1,.908.07l.569.07a.648.648,0,0,1,.509,0,2,2,0,0,0,.4.1c.15.1.259.1.339,0l.8-.279a.808.808,0,0,0,.219,0h.12a1.576,1.576,0,0,0,.788.209.918.918,0,0,0,.519,0,1.337,1.337,0,0,1,.389-.07.249.249,0,0,0,.17,0h.18c.08,0,0,.07.11.07s.11,0,.11-.07a.529.529,0,0,1,.569,0h.319a2.564,2.564,0,0,0,.4-.07.888.888,0,0,1,.509,0,.5.5,0,0,0,.339,0,.5.5,0,0,1,.339,0l.12-.14h.11c.379.2.638.339.8.439A1.317,1.317,0,0,1,24.8,2a.608.608,0,0,0-.459,0l-.559.439a.848.848,0,0,1-.349-.08.858.858,0,0,0-.678-.14,1.426,1.426,0,0,1-.279-.07.3.3,0,0,0-.289,0,.549.549,0,0,0-.4,0,4.329,4.329,0,0,1-.509,0,.5.5,0,0,1-.339,0,1,1,0,0,0-.339-.07,2.394,2.394,0,0,0-1-.08,2.6,2.6,0,0,1-.688.08,1.466,1.466,0,0,0-.618.1,3.99,3.99,0,0,1-.519.18.628.628,0,0,0,.229.08c.08,0,.08,0,0,.07a.718.718,0,0,1-.678.07.469.469,0,0,0-.459-.07c-.07,0-.11,0-.11-.07s0-.08-.11-.08l-.229.08-.229-.08a.808.808,0,0,0-.569-.1h-.449l-.209.07a.9.9,0,0,0-.12.509,4.3,4.3,0,0,1,2.045.07,5.566,5.566,0,0,0,.908.07h.459a4.169,4.169,0,0,1,1,0c.379.1.608.08.688-.07a.529.529,0,0,1,.339-.07c.15.1.259.1.339,0a2.663,2.663,0,0,0,.4,0,.549.549,0,0,1,.4,0,.279.279,0,0,0,.219-.07.938.938,0,0,1,.8-.289A12.409,12.409,0,0,0,23.8,2.4a.628.628,0,0,0,.219.07.349.349,0,0,1,.229.07h.09c.08-.1.16-.12.229-.07a.479.479,0,0,0,.229.07h.229c.12,0,.219-.14.449-.14a1.915,1.915,0,0,1,.459.209,1,1,0,0,0,.678.15c.08,0,.13-.06.17,0h.15a2.1,2.1,0,0,0,1,0l.569.07a1.127,1.127,0,0,1,.449.289,1.307,1.307,0,0,0,.279,0,.469.469,0,0,0,.289-.13.16.16,0,0,1,.11-.14.389.389,0,0,1,.229-.07l.339.07.339.07c-.15.1-.15.17,0,.219l.229.14c.08,0,.08.1,0,.14s0,.1-.11.15a.239.239,0,0,1-.229,0,1.307,1.307,0,0,1-.279,0,.369.369,0,0,0-.289,0,.808.808,0,0,1-.569-.07l-.359-.13c-.15,0-.229,0-.229.08s-.07.14-.219.14-.229-.05-.229-.14a.1.1,0,0,0-.06-.11h-.17l-1.087.289c-.15.1-.11.2.12.289h.219a10.384,10.384,0,0,1,1.446.07,8.488,8.488,0,0,0,1.137-.07.449.449,0,0,1,.229,0,.3.3,0,0,0,.229,0,.329.329,0,0,1,.449-.07,4.539,4.539,0,0,1,1.706.359c-.08.15-.269.219-.569.219a.9.9,0,0,1-.4,0,.658.658,0,0,0-.279,0l-.569.14a6.813,6.813,0,0,1-1.426,0l-1.3-.18a1.337,1.337,0,0,0-1,.07h-.11c-.229,0-.339,0-.339.07a.608.608,0,0,0-.459,0,1.456,1.456,0,0,1-.509,0,2.164,2.164,0,0,0-.509,0l-.229.07h-.229a1.536,1.536,0,0,0-.608-.07h-.788a18.754,18.754,0,0,1-2.165-.07,2.244,2.244,0,0,0-.678.07,2.494,2.494,0,0,1-.678.15H19a4.17,4.17,0,0,0-1,0h-.219l-.459-.08a2.1,2.1,0,0,0-.788,0,6.982,6.982,0,0,1-.8.08h-.229a3.052,3.052,0,0,1-1.586,0H13.7a7.172,7.172,0,0,1-.908-.15h-.229a.279.279,0,0,0-.219.15h-.12a.339.339,0,0,1-.279,0H11.2a.589.589,0,0,0-.459.11h-.429a2.993,2.993,0,0,0-1.1.2.838.838,0,0,1-.339,0,.369.369,0,0,0-.289,0H8.309c-.08,0-.12,0-.12.08s-.07.07-.219.07a2.394,2.394,0,0,0-.988-.15,1.606,1.606,0,0,1-.579,0,.489.489,0,0,0-.419,0,1.307,1.307,0,0,1-.678.07H5.047a2.185,2.185,0,0,0-.628-.07,1.387,1.387,0,0,1-.618-.18H3.571c-.08,0-.12,0-.12.14a.439.439,0,0,1-.219-.07.17.17,0,0,0-.229,0h-.17a.18.18,0,0,0-.17-.07H2.374c-.08.1-.3.14-.678.14H1.466a1.5,1.5,0,0,1-1-.07.718.718,0,0,0-.459,0" transform="translate(360.347 877.995)"/>
  </g>
</svg>
