<svg xmlns="http://www.w3.org/2000/svg" viewBox="0 0 40 7.828">
  <defs>
    <style>
      .cls-1 {
        fill: #ff4141;
      }
    </style>
  </defs>
  <path id="active" class="cls-1" d="M19.675,1.115a2.487,2.487,0,0,0-.714-.123L17.846.914a.993.993,0,0,0-.5.078H17.2c-.078,0-.123,0-.123-.078s-.089,0,0-.089a1.115,1.115,0,0,0,.636-.4h.257l.759-.078a.77.77,0,0,0,.5,0A1.394,1.394,0,0,1,20,.423l.636.323A.257.257,0,0,1,20.5.992l-.3.123ZM13.161,2.766l.759.245a.859.859,0,0,1,.5.078,2.231,2.231,0,0,0,.892-.078h.123V2.922c0-.1.089-.212.257-.323l-.078-.156-.759-.078a.413.413,0,0,0-.323,0,.5.5,0,0,1-.312,0s0-.078-.134,0-.123.067-.123.123-.3.19-.636.078l-.257.078a.3.3,0,0,0,.134.245m-4.283.245.68.212a1.64,1.64,0,0,1,.892.167h.123l.257-.167c-.089,0-.134,0-.134-.078a.3.3,0,0,1-.123-.2.212.212,0,0,0-.123-.2.112.112,0,0,0-.067-.123h-.19a.268.268,0,0,1-.257,0,1.361,1.361,0,0,0-.892,0c-.167,0-.245,0-.245.167v.1l.078.089m20.19,1.171a1.227,1.227,0,0,0,.636,0V4.115a.413.413,0,0,0-.323,0,.68.68,0,0,0-.312.123h0M.211,6.4a1.115,1.115,0,0,0,.5.078,2.978,2.978,0,0,0,.446,0,.759.759,0,0,1,.446,0c.167.112.29.112.379,0A1.015,1.015,0,0,1,2.877,6.4a3.882,3.882,0,0,0,.881,0,4.462,4.462,0,0,1,.77,0,10.229,10.229,0,0,1,1.651-.078h.435a.759.759,0,0,0,.446,0,1.617,1.617,0,0,1,.892.078l.257-.078a.245.245,0,0,1,.245,0h.77a.234.234,0,0,0,.19-.089H9.6c.089,0,.123,0,.123-.078s0-.078.134-.078a.825.825,0,0,1,.759,0,.19.19,0,0,0,.19,0,.279.279,0,0,1,.19,0L11.633,6a.669.669,0,0,1,.379-.078,6.9,6.9,0,0,0,1.651.156A7.4,7.4,0,0,0,14.779,6a2.476,2.476,0,0,1,.759.078A1.339,1.339,0,0,0,16.552,6a.48.48,0,0,1,.636-.167,1.115,1.115,0,0,0,.5.089,1.8,1.8,0,0,1,.77,0,2.164,2.164,0,0,0,.759,0c.078,0,.145-.078.19,0a.535.535,0,0,0,.19,0c.167.1.3.1.379,0a4.663,4.663,0,0,1,1.115,0h.825a.859.859,0,0,0,.39-.089,11.8,11.8,0,0,1,1.774-.078h.636a7.4,7.4,0,0,0,1.115-.078,3.871,3.871,0,0,1,1.015,0H28.5a3.491,3.491,0,0,0,.881.156h.257a.558.558,0,0,1,.379,0l1.115-.078a1.718,1.718,0,0,1,.636.078.591.591,0,0,1,.435,0,1.684,1.684,0,0,0,.58,0l2.03-.078h.5l.892-.078q.134-.167.636,0a.279.279,0,0,1,.19,0h.19a2.164,2.164,0,0,1,.759,0,2.03,2.03,0,0,0,.636,0l.134.089.759.078a.87.87,0,0,1,.5.156v.167a.48.48,0,0,0-.312.123l-.19.112V6.246h-.5a3.034,3.034,0,0,0-.7.089,3.859,3.859,0,0,0-.692.156h-.257a19.944,19.944,0,0,0-2.153.078l-1.45.123a2.934,2.934,0,0,1-.759-.089.647.647,0,0,0-.636,0,1.729,1.729,0,0,1-.892.167.446.446,0,0,0-.312-.078.636.636,0,0,1-.312-.089h-.513a6.124,6.124,0,0,1-1.015.245h-.446A1.049,1.049,0,0,0,28.3,7a.524.524,0,0,1-.513,0,.379.379,0,0,0-.379,0,1.84,1.84,0,0,0-.881.089A.948.948,0,0,1,26.134,7a.368.368,0,0,0-.48-.112.725.725,0,0,1-.379,0,1,1,0,0,0-.513,0l-.881-.078a6.258,6.258,0,0,0-1.115.078h-.692a2.231,2.231,0,0,0-.7.089.335.335,0,0,1-.257,0,.268.268,0,0,0-.257,0,27.663,27.663,0,0,0-2.911.078.993.993,0,0,1-.446.078.9.9,0,0,0-.446.078,1.651,1.651,0,0,0-.513.089.77.77,0,0,1-.5,0h-.257c-.078.156-.3.178-.636.078l-.5.078h-.379a.926.926,0,0,0-.77,0c-.078.112-.212.112-.379,0l-.636-.078-.636-.078a.6.6,0,0,1-.5.078,1.785,1.785,0,0,0-.636.078,1.026,1.026,0,0,0-.636,0l-.145-.078a.212.212,0,0,1-.257,0,.223.223,0,0,0-.257,0c-.089,0-.123,0-.123.156a.658.658,0,0,1-.513.167,1.316,1.316,0,0,1-.5-.078h.245c.089,0,.089-.1,0-.2a.5.5,0,0,1-.312,0,.736.736,0,0,0-.312,0c-.089,0-.089,0,0,.078s0,.078-.134.078a.279.279,0,0,0-.19,0,.19.19,0,0,1-.19,0,.446.446,0,0,0-.268,0H6.859A2.922,2.922,0,0,1,6.1,7.506c-.078,0-.123,0-.123.078a.335.335,0,0,1-.257,0,.268.268,0,0,0-.257,0c.089,0,.156.067.19,0s.112,0,.2,0l-.77.223v-.2h.257a.2.2,0,0,0-.123-.167c-.123,0-.089-.1,0-.156l-.134.323a.848.848,0,0,1-.625.2.591.591,0,0,1-.312-.2.2.2,0,0,0-.19-.123L3.7,7.651l-.268.156a1,1,0,0,1-.446,0,.736.736,0,0,0-.312,0c-.089,0-.123,0-.123-.078a1.026,1.026,0,0,1-.636.078.725.725,0,0,0-.379,0H1.282A.77.77,0,0,1,.9,7.729a.8.8,0,0,0-.379-.078M.244.724a.457.457,0,0,0,.5,0c.368-.212.513-.368.513-.48S1.549,0,1.9.089a.2.2,0,0,0,.245,0c0-.112.089-.112.257,0l.134.234h.123s0-.078.123-.078.089.145.257.279A.547.547,0,0,1,3.345.97s0,.078-.134.078h-.68a6.113,6.113,0,0,1-1.115.167.814.814,0,0,0-.379.078c0-.112,0-.156-.123-.156s-.212.1-.379-.022c0,0,0-.089-.134-.089v.167a.407.407,0,0,0,.257.078c.167,0,.145-.067.19,0a.535.535,0,0,0,.19,0l.513.48a.275.275,0,0,0,.19.123.5.5,0,0,0,.312,0l.257.078c.167.1.29.1.379,0a.614.614,0,0,0,.446,0,.312.312,0,0,1,.312,0,.268.268,0,0,0,.257,0l.513-.167a1.272,1.272,0,0,1,.759-.078.5.5,0,0,0,.446.078.8.8,0,0,1,.312-.078.234.234,0,0,0,.19-.078h.19a.613.613,0,0,0,.446,0l.312-.156a.68.68,0,0,0-.379-.089,1.539,1.539,0,0,1-1.015-.268H5.23A1.985,1.985,0,0,0,4.594,1,.747.747,0,0,1,4.148.847,4.462,4.462,0,0,1,3.825.524h.134a.5.5,0,0,1,.379-.2.558.558,0,0,1,.379,0A.837.837,0,0,0,5.353.245a.268.268,0,0,1,.223,0A.123.123,0,0,1,5.7.356.39.39,0,0,0,5.955.6,1.428,1.428,0,0,1,6.335.68a1.963,1.963,0,0,0,.5.078A.647.647,0,0,0,7.383.6,1.45,1.45,0,0,1,8.275.524.87.87,0,0,0,9.157.356.87.87,0,0,1,9.413.122c.513,0,.8,0,.892.323l.123.078c-.078,0-.1.089,0,.123a.535.535,0,0,0,.19,0,.2.2,0,0,0,.245,0l.29-.156a.658.658,0,0,0,.513-.167s0-.089.123-.112a.268.268,0,0,1,.257,0,2.153,2.153,0,0,1,.379,0,.5.5,0,0,1,.379.2h.257c.424-.112.669,0,.759.156a1.227,1.227,0,0,1,.569,0,1.684,1.684,0,0,0,.58,0,.591.591,0,0,0,.435,0A2.075,2.075,0,0,1,15.95.49V.97c0,.112-.134.19-.39.245-.078,0-.123,0-.123.078-.167.112-.257.112-.257,0a.859.859,0,0,0-.5-.078.457.457,0,0,0-.323-.1.636.636,0,0,1-.312-.089A.335.335,0,0,1,13.663.7a.2.2,0,0,0-.19.089.268.268,0,0,1-.19.078.87.87,0,0,0-.636.245c0,.1-.134.156-.39.156a.379.379,0,0,0-.379,0,.312.312,0,0,1-.245,0,.5.5,0,0,0-.257,0,1.249,1.249,0,0,0-.446-.156.524.524,0,0,0-.446,0,1.606,1.606,0,0,1-.759-.067H9.346c-.089.112-.089.19,0,.245v.167a1.294,1.294,0,0,0,.446.4,1.74,1.74,0,0,0,.7.156h.245a1.227,1.227,0,0,1,.892,0h.379a4.64,4.64,0,0,1,1.015-.245.636.636,0,0,1,.379.089.357.357,0,0,1,.39,0,.435.435,0,0,0,.245.123c.089,0,.134,0,.134-.078V2.03l-.134-.167c0-.156.134-.212.379-.156l.257.078a1.64,1.64,0,0,0,.892.078h.257a1.115,1.115,0,0,1,.5.078c.167.112.3.112.379,0a1.818,1.818,0,0,1,.379-.156.837.837,0,0,0,.39-.245l.245.089c.089,0,.112,0,.067-.089s0-.078.067-.078.123.167.379.167a4.462,4.462,0,0,1,1.015.078l.636.078a.725.725,0,0,1,.569,0A2.231,2.231,0,0,0,20.9,1.9c.167.112.29.112.379,0l.892-.312a.9.9,0,0,0,.245,0h.134a1.762,1.762,0,0,0,.881.234,1.026,1.026,0,0,0,.58,0,1.5,1.5,0,0,1,.435-.078.279.279,0,0,0,.19,0h.2c.089,0,0,.078.123.078s.123,0,.123-.078a.591.591,0,0,1,.636,0h.357a2.867,2.867,0,0,0,.446-.078.993.993,0,0,1,.569,0,.558.558,0,0,0,.379,0,.558.558,0,0,1,.379,0l.134-.156h.123c.424.223.714.379.892.491a1.472,1.472,0,0,1-1.272.234.68.68,0,0,0-.513,0l-.625.491a.948.948,0,0,1-.39-.089.959.959,0,0,0-.759-.156A1.6,1.6,0,0,1,25.13,2.4a.335.335,0,0,0-.323,0,.613.613,0,0,0-.446,0,4.841,4.841,0,0,1-.569,0,.558.558,0,0,1-.379,0,1.115,1.115,0,0,0-.379-.078,2.677,2.677,0,0,0-1.115-.089,2.911,2.911,0,0,1-.77.089,1.64,1.64,0,0,0-.692.112,4.462,4.462,0,0,1-.58.2.7.7,0,0,0,.257.089c.089,0,.089,0,0,.078a.8.8,0,0,1-.759.078.524.524,0,0,0-.513-.078c-.078,0-.123,0-.123-.078s0-.089-.123-.089l-.257.089L18.1,2.632a.9.9,0,0,0-.636-.112h-.5l-.234.078a1,1,0,0,0-.134.569,4.808,4.808,0,0,1,2.287.078,6.224,6.224,0,0,0,1.015.078h.513a4.663,4.663,0,0,1,1.115,0c.424.112.68.089.77-.078a.591.591,0,0,1,.379-.078c.167.112.29.112.379,0a2.978,2.978,0,0,0,.446,0,.614.614,0,0,1,.446,0,.312.312,0,0,0,.245-.078,1.049,1.049,0,0,1,.892-.323,13.876,13.876,0,0,0,1.528-.078.7.7,0,0,0,.245.078.39.39,0,0,1,.257.078h.1c.089-.112.178-.134.257-.078a.535.535,0,0,0,.257.078h.257c.134,0,.245-.156.5-.156A2.142,2.142,0,0,1,29,2.922a1.115,1.115,0,0,0,.759.167c.089,0,.145-.067.19,0h.167a2.354,2.354,0,0,0,1.115,0l.636.078a1.26,1.26,0,0,1,.5.323,1.461,1.461,0,0,0,.312,0A.524.524,0,0,0,33,3.346a.178.178,0,0,1,.123-.156.435.435,0,0,1,.257-.078l.379.078.379.078c-.167.112-.167.19,0,.245l.257.156c.089,0,.089.112,0,.156s0,.112-.123.167a.268.268,0,0,1-.257,0,1.461,1.461,0,0,1-.312,0,.413.413,0,0,0-.323,0,.9.9,0,0,1-.636-.078l-.4-.145c-.167,0-.257,0-.257.089s-.078.156-.245.156-.257-.056-.257-.156a.112.112,0,0,0-.067-.123h-.19l-1.216.323c-.167.112-.123.223.134.323H30.5a11.612,11.612,0,0,1,1.617.078,9.492,9.492,0,0,0,1.272-.078.5.5,0,0,1,.257,0,.335.335,0,0,0,.257,0,.368.368,0,0,1,.5-.078,5.075,5.075,0,0,1,1.907.4c-.089.167-.3.245-.636.245a1,1,0,0,1-.446,0,.736.736,0,0,0-.312,0l-.636.156a7.619,7.619,0,0,1-1.6,0l-1.45-.2a1.5,1.5,0,0,0-1.115.078h-.123c-.257,0-.379,0-.379.078a.68.68,0,0,0-.513,0,1.629,1.629,0,0,1-.569,0,2.42,2.42,0,0,0-.569,0l-.257.078H27.45a1.718,1.718,0,0,0-.68-.078h-.881a20.971,20.971,0,0,1-2.421-.078,2.51,2.51,0,0,0-.759.078,2.789,2.789,0,0,1-.759.167h-.7a4.663,4.663,0,0,0-1.115,0h-.245l-.513-.089a2.342,2.342,0,0,0-.881,0,7.808,7.808,0,0,1-.892.089h-.257a3.413,3.413,0,0,1-1.774,0h-.257A8.02,8.02,0,0,1,14.3,5.064h-.257a.312.312,0,0,0-.245.167h-.134a.379.379,0,0,1-.312,0h-.825a.658.658,0,0,0-.513.123h-.48a3.346,3.346,0,0,0-1.227.223.937.937,0,0,1-.379,0,.413.413,0,0,0-.323,0H9.291c-.089,0-.134,0-.134.089s-.078.078-.245.078a2.677,2.677,0,0,0-1.1-.167,1.8,1.8,0,0,1-.647,0,.547.547,0,0,0-.468,0,1.461,1.461,0,0,1-.759.078h-.29a2.443,2.443,0,0,0-.7-.078,1.55,1.55,0,0,1-.692-.2H3.992c-.089,0-.134,0-.134.156a.491.491,0,0,1-.245-.078.19.19,0,0,0-.257,0h-.19a.2.2,0,0,0-.19-.078H2.654c-.089.112-.335.156-.759.156H1.639A1.673,1.673,0,0,1,.523,5.454a.8.8,0,0,0-.513,0" transform="translate(-0.01 -0.005)"/>
</svg>
