<svg xmlns="http://www.w3.org/2000/svg" viewBox="0 0 72.323 63.46">
  <defs>
    <style>
      .cls-1 {
        fill: #fff;
      }
    </style>
  </defs>
  <g id="logo_weiss" data-name="logo weiss" transform="translate(-14.838 -26.642)">
    <path id="Pfad_1" data-name="Pfad 1" class="cls-1" d="M57.1,106.748c.067,0,.1,0,.1.031a.107.107,0,0,1-.054.1h-.027a.085.085,0,0,0-.076-.031v-.1Zm-5.5.38c-.036-.045-.072-.054-.1-.036s-.085.076-.049.1h.1l.1-.031Zm14.364.094a1.208,1.208,0,0,0-.3-.063l-.448-.031a.412.412,0,0,0-.2.031h-.058c-.031,0-.049,0-.049-.031s-.036,0,0-.036a.407.407,0,0,0,.255-.161h.1l.3-.031a.291.291,0,0,0,.2,0,.573.573,0,0,1,.309.031l.255.13a.107.107,0,0,1-.054.1l-.1.063Zm-22.108-.192-.1-.063c-.036-.067-.1-.09-.206-.067a1.343,1.343,0,0,1-.3.13c-.031,0-.049,0-.049.063l.1.067.3.1.2.031c.1,0,.152-.031.152-.1s0-.031.054-.031l.1-.031a.291.291,0,0,0,.2,0l-.2-.067-.1-.031Zm1.629.063a.277.277,0,0,0-.13-.031.219.219,0,0,1-.125-.031,1.224,1.224,0,0,0-.179,0,.251.251,0,0,0-.179.081s0,.031.054.031a.192.192,0,0,1,.1.031.17.17,0,0,0,.1.031c.036,0,.054,0,.054.036v.063a1.647,1.647,0,0,0,.354-.031c.067-.045.1-.085.1-.13v-.067Zm7.641.13a.063.063,0,0,0,.076,0,.063.063,0,0,1,.076,0s-.04.036,0,.049a.054.054,0,0,1,0,.045l.054.1.049.063c.067-.04.1-.085.1-.125v-.1c.031,0,.049,0,.049.031s0,.031.054.031a.331.331,0,0,0,.152-.063.121.121,0,0,0,0-.2.336.336,0,0,0-.152-.031h-.448l-.206.067h.206Zm3.514.389c.036.022.063.027.076,0s.027,0,.027,0c.067,0,.1,0,.1-.031s.049,0,.049-.031v.027a.166.166,0,0,0-.125,0,.34.34,0,0,0-.13.049Zm-4.329-.1v.13q-.1.067,0,.067a.139.139,0,0,0,.1-.031c.036-.031.1-.058.1-.036.139.045.206,0,.206-.094a.134.134,0,0,1,0-.161.157.157,0,0,0,0-.166.112.112,0,0,0-.049-.094l-.1.094c0,.067-.054.067-.152,0s-.085,0-.152.067,0,.206-.054.224,0,.027.054,0h.049m4.924.166c.2-.045.3,0,.3.125l.054.036q.049.094.2,0a.142.142,0,0,0,.125-.081c.013-.031,0-.072-.125-.116a.349.349,0,0,1-.152-.063.3.3,0,0,0-.179,0,1.22,1.22,0,0,1-.179,0,.367.367,0,0,0-.152.063Zm-6.061.255a.112.112,0,0,0,.1,0,.277.277,0,0,1,.1,0,.528.528,0,0,0,.255-.094.1.1,0,0,0,.049-.1h-.1c-.1,0-.152,0-.152.1,0,0,0,.031-.054.031s-.049,0-.049-.031a.313.313,0,0,0-.152-.1.107.107,0,0,0-.054.1q0,.094.054.094m-.564,0a.085.085,0,0,0,.1,0,.1.1,0,0,0,.049-.094.609.609,0,0,1,.054-.291v-.067a.5.5,0,0,1-.13-.175.688.688,0,0,1,0-.116c-.036,0-.054,0-.054.031a.3.3,0,0,1-.125.1.385.385,0,0,1-.228,0,.187.187,0,0,0-.152.067c-.067.067-.036.054-.1.094,0,.067.031.1.1.1h.054l.049-.031a.3.3,0,0,1,.206,0,.094.094,0,0,1,.049.081.094.094,0,0,0,.054.081.081.081,0,0,0-.076.031h-.076a.313.313,0,0,0-.255.13.13.13,0,0,1,.076,0,.049.049,0,0,1,0,.045c0,.045.036.067.1.067l.206-.067Zm12.739-.063.3.1a.4.4,0,0,1,.2.031.788.788,0,0,0,.358-.031h.049v-.036c0-.04.036-.085.1-.13l-.049-.063-.3-.031a.179.179,0,0,0-.13,0,.166.166,0,0,1-.125,0s0-.031-.054,0-.049.027-.049.049-.121.076-.255.031l-.1.031a.107.107,0,0,0,.054.1m-1.683.1.255.094a.7.7,0,0,1,.358.067h.049l.1-.1c-.036,0-.054,0-.054-.031a.1.1,0,0,1-.049-.081.094.094,0,0,0-.049-.081.049.049,0,0,0-.027-.049h-.076a.089.089,0,0,1-.1,0,.542.542,0,0,0-.358,0c-.067,0-.1,0-.1.067v.063l.049.036m-11.92.192v-.067c0-.04-.036-.063-.1-.063a1.012,1.012,0,0,1-.407-.031h-.049a.748.748,0,0,1-.282,0,.394.394,0,0,0-.228,0,.107.107,0,0,1-.1,0,.09.09,0,0,0-.1,0,.175.175,0,0,0-.152,0l-.1.13a.192.192,0,0,0,.251.063.721.721,0,0,1,.407.1.318.318,0,0,0,.179,0,.175.175,0,0,1,.13,0h.1a.26.26,0,0,1,.255,0,.64.64,0,0,1,.179.049.34.34,0,0,0,.228,0l-.1-.063-.1-.161m20.022.322a.492.492,0,0,0,.255,0v-.063a.179.179,0,0,0-.13,0,.318.318,0,0,0-.125.049h0m-20.483.743a.448.448,0,0,1,.255-.063l-.049-.036c.036-.04,0-.063-.152-.063s-.152.031-.152.1-.036.036,0,.045h.049Zm24.62.063h-.2a1.71,1.71,0,0,0-.282.036,1.751,1.751,0,0,0-.278.063h-.1a8.5,8.5,0,0,0-.864.031l-.564.036a1.021,1.021,0,0,1-.3-.036.282.282,0,0,0-.255,0,.69.69,0,0,1-.358.067.219.219,0,0,0-.125-.031.219.219,0,0,1-.125-.036h-.206a2,2,0,0,1-.407.1h-.179a.448.448,0,0,0-.228.063.2.2,0,0,1-.206,0,.175.175,0,0,0-.152,0,.774.774,0,0,0-.354.036.291.291,0,0,1-.157-.036.152.152,0,0,0-.2-.031.228.228,0,0,1-.152,0,.448.448,0,0,0-.206,0l-.354-.031a2.8,2.8,0,0,0-.448.031h-.278a.917.917,0,0,0-.282.036.121.121,0,0,1-.1,0,.125.125,0,0,0-.1,0,11.1,11.1,0,0,0-1.168.031.353.353,0,0,1-.179.031.412.412,0,0,0-.179.031.689.689,0,0,0-.206.036.309.309,0,0,1-.2,0h-.1c-.031.063-.121.072-.255.031l-.2.031h-.152a.4.4,0,0,0-.309,0c-.031.045-.085.045-.152,0l-.255-.031-.255-.031a.237.237,0,0,1-.2.031.828.828,0,0,0-.255.031.447.447,0,0,0-.255,0l-.049-.031a.085.085,0,0,1-.1,0,.089.089,0,0,0-.1,0c-.036,0-.049,0-.049.063a.251.251,0,0,1-.206.067.448.448,0,0,1-.2-.031.381.381,0,0,0,.1,0c.036,0,.036-.04,0-.081a.166.166,0,0,1-.125,0,.493.493,0,0,0-.125,0c-.036,0-.036,0,0,.031s0,.031-.054.031a.174.174,0,0,0-.076,0,.076.076,0,0,1-.076,0,.183.183,0,0,0-.107.009h-.1a1.052,1.052,0,0,1-.3-.031c-.031,0-.049,0-.049.031a.125.125,0,0,1-.1,0,.107.107,0,0,0-.1,0c.036,0,.063.027.076,0s.045,0,.081,0l-.309.063v-.063h.1a.079.079,0,0,0-.049-.067c-.049-.022-.036-.04,0-.063l-.054.13a.313.313,0,0,1-.255.063.215.215,0,0,1-.125-.081.09.09,0,0,0-.076-.049l-.1.067-.1.063a.367.367,0,0,1-.179,0,.492.492,0,0,0-.125,0c-.036,0-.049,0-.049-.031a.385.385,0,0,1-.255.031.287.287,0,0,0-.152,0,.3.3,0,0,1-.1,0,.278.278,0,0,1-.152-.031.323.323,0,0,0-.152-.031h-.765l-.712.031h-.309a.5.5,0,0,1-.255,0h-.152a.9.9,0,0,1-.38.049h-.282a.367.367,0,0,0-.179,0,.3.3,0,0,1-.175,0,.219.219,0,0,1-.157,0,1.519,1.519,0,0,0-.2,0,.4.4,0,0,1-.206,0,.448.448,0,0,0-.2,0,1.039,1.039,0,0,1-.407.063h-.255a.989.989,0,0,0-.3,0,1.419,1.419,0,0,1-.613,0,.318.318,0,0,0-.125.036.134.134,0,0,1-.13,0c-.031,0-.049,0-.049.031a.193.193,0,0,1-.206,0h-.179a.573.573,0,0,1-.309.031.081.081,0,0,0-.1,0,.694.694,0,0,1-.407,0c-.036,0-.063-.027-.081,0s-.04,0-.076,0a.372.372,0,0,0-.1,0,.251.251,0,0,1-.157,0l-.3-.036h-.049a2.3,2.3,0,0,1-.448-.063.658.658,0,0,0-.448.031.228.228,0,0,0-.1.031.085.085,0,0,1-.1,0,.363.363,0,0,1-.3,0,.834.834,0,0,0-.125,0,.318.318,0,0,1-.179,0,1.531,1.531,0,0,0-.613,0h0c0-.031-.027,0-.027,0a.4.4,0,0,1-.206,0,.448.448,0,0,0-.2,0,2.268,2.268,0,0,0-.3.049,2.459,2.459,0,0,0-.309.049.282.282,0,0,1-.152-.036,3.784,3.784,0,0,0-.712,0,1.119,1.119,0,0,1-.56,0h-.206a.363.363,0,0,1-.3,0,.9.9,0,0,0-.13,0,.17.17,0,0,1-.125,0,.175.175,0,0,1-.152,0,.09.09,0,0,0-.1,0,.345.345,0,0,1-.407,0,.148.148,0,0,0-.152-.045h-.152l-.1.067a.121.121,0,0,1-.1,0,.125.125,0,0,0-.1,0c-.031,0-.031,0,0-.031s0-.036-.152-.036h-.049a2.3,2.3,0,0,1-.448.036,3.384,3.384,0,0,1-.761-.1,1.22,1.22,0,0,1-.179,0,.3.3,0,0,0-.179,0,2.332,2.332,0,0,1-.483,0h-.448a1.02,1.02,0,0,0-.2,0,.747.747,0,0,1-.255,0,.34.34,0,0,1-.255-.031.488.488,0,0,0-.255,0c-.067.04-.121.054-.152.031a1.611,1.611,0,0,0-.407-.031c-.036,0-.063.027-.076,0a.179.179,0,0,0-.076,0c-.036-.067-.152-.1-.358-.1h-.448a2.542,2.542,0,0,1-.282,0,.537.537,0,0,0-.331.081.676.676,0,0,1-.206-.031.506.506,0,0,0-.152-.031.532.532,0,0,0-.152.031.309.309,0,0,1-.2,0h-.26a.157.157,0,0,0-.13,0,1.379,1.379,0,0,1-.3.031h-.255a.139.139,0,0,1-.1-.063c-.031,0-.049,0-.049.031a1.224,1.224,0,0,0-.179,0,1.27,1.27,0,0,1-.331,0l-.2.031a.251.251,0,0,0-.206.067,1.652,1.652,0,0,0-.2-.049,1.062,1.062,0,0,1-.206-.049.412.412,0,0,1-.2-.031.179.179,0,0,0-.152,0,.094.094,0,0,1-.081-.031h-.076a1.589,1.589,0,0,1-.407.031.448.448,0,0,0-.255,0,.107.107,0,0,1,.054.1h-.255v.031h-.049l-.054-.031s0-.036.054-.036-.036-.085-.1-.063H33a1.025,1.025,0,0,0-.309,0,1.883,1.883,0,0,1-.255,0l-.354-.031a.354.354,0,0,0-.358.063h-.049a.573.573,0,0,0-.309-.031.282.282,0,0,0-.152,0,.255.255,0,0,1-.1,0h-.188a.09.09,0,0,0-.1,0,.085.085,0,0,1-.1,0,.094.094,0,0,0-.076.031.085.085,0,0,1-.076.031.349.349,0,0,0-.152-.063h-.049a.363.363,0,0,1-.3,0H29.23a2.345,2.345,0,0,1-.448-.031,2.985,2.985,0,0,0-.533,0,3.038,3.038,0,0,1-.537,0c-.237,0-.56-.036-.967-.036h-.054c-.031-.04-.116-.04-.251,0h-.255a2,2,0,0,0-.407-.031h-.219l-.1-.031a1.553,1.553,0,0,0-.56-.067,7.657,7.657,0,0,1-.967-.031,2.771,2.771,0,0,0-.448-.031l-1.227-.031-.609-.067a4.4,4.4,0,0,0-.56-.031,1.24,1.24,0,0,0-.358,0,.989.989,0,0,1-.3,0,9.2,9.2,0,0,0-.971-.063l-.448-.036a1.593,1.593,0,0,1-.206,0,.206.206,0,0,0-.152,0h-.1a.492.492,0,0,0-.255,0,1.11,1.11,0,0,1-.282-.031,1.11,1.11,0,0,0-.282-.031h-.049a.448.448,0,0,0-.407,0h-.219a6.347,6.347,0,0,0-.712-.067h-.152a.448.448,0,0,0-.255.067l.206.13c.067,0,.1,0,.1.063s0,.031.054.031a.179.179,0,0,1,.1.036.269.269,0,0,0,.206.063.228.228,0,0,1,.1.031q.049.031,0,.067a1.553,1.553,0,0,1-.309.13l-.1-.036a.193.193,0,0,0-.152-.063h-.152a2.384,2.384,0,0,1-.448-.067h-.3a.64.64,0,0,1-.206-.031.787.787,0,0,0-.2-.031h-.1a.286.286,0,0,0-.152-.031.242.242,0,0,1-.255-.1c-.067-.045-.067-.085,0-.13s.1-.076.1-.094a.376.376,0,0,1,.152-.2A1.007,1.007,0,0,1,14.32,109a1.1,1.1,0,0,1-.152-.081c-.067,0-.085-.063-.054-.13q.157-.058,0-.161l-.152-.161a.251.251,0,0,1-.1-.228s0-.031.054-.031a.215.215,0,0,0,.1-.192c-.072-.063-.054-.13.049-.192a.667.667,0,0,0,.2-.116.725.725,0,0,1,.206-.112l.049-.1a.367.367,0,0,0,.1-.291v-.081l-.049-.067c-.036,0-.036-.054,0-.094a.358.358,0,0,0,.152-.26.175.175,0,0,1,.1-.161.846.846,0,0,0,.354-.448c0-.067.036-.1.1-.1.134-.063.206-.139.206-.228s.031-.063.1-.063l.206-.067a.188.188,0,0,1,.125,0,.175.175,0,0,0,.13,0H16.1c.036.045.1.045.206,0a.282.282,0,0,1,.255,0l.1.031a.761.761,0,0,1,.407.1l.157.067a1.061,1.061,0,0,1,.3.063l.2.031a.537.537,0,0,1,.282,0,.64.64,0,0,0,.179.049,1.616,1.616,0,0,0,.712.13.994.994,0,0,1,.716.13l.251.094.206.067.51-.036h.152a1.822,1.822,0,0,1,.448,0h.533c.1,0,.152,0,.152-.031a.255.255,0,0,1,.255,0l.51.1h.1a1.4,1.4,0,0,1,.3-.031H23.3a.868.868,0,0,1,.56.13.367.367,0,0,0,.152.063,1.222,1.222,0,0,1,.448-.063h.049l.358-.067h.125a.314.314,0,0,1,.179,0,1.343,1.343,0,0,1,.3.13.246.246,0,0,0,.309-.031l.049-.067.152.1a.282.282,0,0,1,.358,0l.2.1a.609.609,0,0,1,.309-.13.354.354,0,0,1,.3,0h.1a.447.447,0,0,1,.2,0,.542.542,0,0,0,.206,0,.251.251,0,0,1,.125.045.309.309,0,0,0,.179.049c.031,0,.049,0,.049.031s0,.045.054.067a.363.363,0,0,1,.2-.067v-.009c-.067.04-.049.063.054.063a2.852,2.852,0,0,0,.448-.031,2.81,2.81,0,0,1,.448-.031l.1-.036a.286.286,0,0,1,.358-.063s0,.031.049.031a.175.175,0,0,1,.206,0,.121.121,0,0,0,.1,0,.112.112,0,0,1,.1,0c0,.045.036.067.1.067l.1-.067c.031-.063.116-.085.255-.063a.474.474,0,0,0,.2-.031c.067,0,.1,0,.1.031a.21.21,0,0,0,.152.081.358.358,0,0,1,.152.049h.1a1.159,1.159,0,0,1,.358-.067l.407-.031h.049a.228.228,0,0,0,.152,0h.152a.246.246,0,0,1,.206.036l.1.031a1.092,1.092,0,0,0,.152.081.6.6,0,0,0,.255.049.282.282,0,0,0,.152-.036s0,.036.049.036a.273.273,0,0,0,.152-.036.107.107,0,0,1,.1,0l.206.1c.031-.13.134-.161.3-.1.067,0,.1,0,.1-.031h.255c0,.045.031.045.1,0a.627.627,0,0,1,.354-.063.134.134,0,0,0,.1-.031.264.264,0,0,0,.125-.049c.054-.031.094-.04.13,0a.755.755,0,0,1,.152.031.72.72,0,0,1,.152.067A2.452,2.452,0,0,1,36,106.6h.255a1.379,1.379,0,0,0,.3-.031c.067-.045.1-.031.1.031l.049.067a.029.029,0,0,0-.022.049c.018.013.04,0,.076,0l.1-.031c.134-.067.2-.045.2.063s0,.067.054.067a.685.685,0,0,1,.278-.116,3.308,3.308,0,0,1,.331,0,.358.358,0,0,1,.255.094.094.094,0,0,0,.076-.031.4.4,0,0,1,.076-.063v-.018c0-.022.036-.054.1-.1a.166.166,0,0,1,.125,0,.179.179,0,0,0,.13,0l.049.031a.358.358,0,0,1,.049.224.488.488,0,0,0,.255,0c-.031-.04,0-.063.054-.063a.224.224,0,0,0,.152,0,.233.233,0,0,1,.152,0c.067.045.121.045.152,0a.277.277,0,0,1,.13-.031h.483c0-.022.031-.031.1-.031a.152.152,0,0,0,.2-.031.233.233,0,0,1,.206.031c0,.045.031.063.1.063a.081.081,0,0,0,.076-.031q.027-.036.081,0a.479.479,0,0,0,.448.031,1.079,1.079,0,0,1,.51,0,1.022,1.022,0,0,1,.2,0,.447.447,0,0,0,.206,0,.273.273,0,0,1,.152,0,.379.379,0,0,0,.1,0,.981.981,0,0,0,.407-.094c.067,0,.1,0,.1-.036.1,0,.157,0,.157.067-.072.045-.072.063,0,.063s.1.045.1,0a.228.228,0,0,1,.157,0,.475.475,0,0,0,.251,0h.1a2.383,2.383,0,0,0,.448.067h.1q.255,0,.309.094c.067.045.116.045.152,0a2.773,2.773,0,0,1,.448-.031H45.3a.448.448,0,0,0,.354,0H45.7a.206.206,0,0,0,.179,0,.224.224,0,0,1,.125-.049c.036-.022.058-.027.076,0a.174.174,0,0,0,.076,0,.514.514,0,0,0,.179.049.537.537,0,0,1,.179.045.318.318,0,0,0,.152.067.3.3,0,0,0,.206,0,.533.533,0,0,1,.3-.1l.278-.063.233-.067a.094.094,0,0,0,.076-.031.081.081,0,0,1,.076-.031c.067,0,.1.031.1.094l.152.067.049.063c-.036,0-.04.054-.027.1a.072.072,0,0,1,0,.1s0,.031-.054.031a.076.076,0,0,0-.076,0h-.076a1.124,1.124,0,0,0-.56,0h-.049a1.316,1.316,0,0,0-.56.063l-.054.031c0,.045.036.067.1.067a.9.9,0,0,1,.407.063.34.34,0,0,1,.125.036.161.161,0,0,0,.13,0l.1.031.049.063a.085.085,0,0,0,.1,0c.031,0,.049,0,.049-.031a.159.159,0,0,1,.152-.13.358.358,0,0,1,.206-.063l.049.094q.054.067.255.067h.049a.4.4,0,0,0,.206,0,.228.228,0,0,1,.152,0s0-.031-.049-.031a.215.215,0,0,1-.1-.031c.134-.09.17-.166.1-.228v-.049c.1-.045.17-.054.2-.036a.381.381,0,0,0,.152.049.2.2,0,0,1,.152.116c0,.04.036.04.1,0s.054,0,.054-.036a.155.155,0,0,1,.049-.13l.255-.094.049-.067c0-.04.027-.072.076-.094a.246.246,0,0,1,.179,0c.067.04.1.04.1,0a.148.148,0,0,1,.125-.067h.282a.282.282,0,0,1,.2.045c-.031,0-.04.04,0,.049s.04,0,.076,0a.98.98,0,0,1,.407-.036l.51-.031.354.031h.157l.049.036h.1l.2-.067a1.625,1.625,0,0,1,.716-.13,1.258,1.258,0,0,1,.448.036.251.251,0,0,1,.125.045.148.148,0,0,0,.179,0,.681.681,0,0,1,.358.031.13.13,0,0,1,.076,0,.166.166,0,0,0,.076,0c.134,0,.17.031.1.1l.1.031c.031,0,.049,0,.049.031s.036,0,.1,0c.031.067.085.076.152.036s.1,0,.1-.036a.219.219,0,0,1,.152,0c.1.067.134.112.1.13a.048.048,0,0,1-.054,0h.054a.4.4,0,0,0,.228.067.215.215,0,0,0,.179-.067c.067-.04.1-.085.1-.125a.3.3,0,0,1,.206-.1.076.076,0,0,0,.076,0,.121.121,0,0,1,.076,0l.049-.1a.157.157,0,0,1,.206-.031.573.573,0,0,0,.255.031.332.332,0,0,1,.2.067c0,.063,0,.094-.049.094s-.1,0-.1.067.045.045.027.063,0,.031.027.031a.447.447,0,0,1,.152.049.246.246,0,0,0,.2,0h.152a.3.3,0,0,0,.157.031.761.761,0,0,1,.407-.1h.152a.17.17,0,0,0,.2,0c.139-.085.206-.148.206-.192s.116-.107.255-.063a.081.081,0,0,0,.1,0c0-.045.036-.045.1,0l.054.094h.049s0-.031.049-.031.036.058.1.112a.237.237,0,0,1,.1.179s0,.031-.054.031h-.251a2.385,2.385,0,0,1-.448.067.324.324,0,0,0-.152.031c0-.045,0-.063-.049-.063s-.085.04-.152,0c0,0,0-.036-.054-.036v.067c0,.022.036.031.1.031s.058-.027.076,0a.166.166,0,0,0,.076,0l.206.192c0,.022.022.04.076.049a.17.17,0,0,0,.125,0l.1.031c.067.04.116.04.152,0a.246.246,0,0,0,.179,0,.125.125,0,0,1,.125,0,.09.09,0,0,0,.1,0l.206-.067a.555.555,0,0,1,.3-.031.184.184,0,0,0,.179.031.394.394,0,0,1,.125-.031.085.085,0,0,0,.076-.031h.076a.246.246,0,0,0,.179,0l.125-.063a.273.273,0,0,0-.152-.036.6.6,0,0,1-.407-.13h-.1a1.016,1.016,0,0,0-.255-.031.273.273,0,0,1-.179-.063.894.894,0,0,1-.13-.13h.054a.21.21,0,0,1,.152-.081.233.233,0,0,1,.152,0,.322.322,0,0,0,.255-.031.107.107,0,0,1,.1,0,.049.049,0,0,1,.049.045.154.154,0,0,0,.1.1.757.757,0,0,1,.152.031.631.631,0,0,0,.2.031A.251.251,0,0,0,61.03,107a.627.627,0,0,1,.358-.031.336.336,0,0,0,.354-.067.35.35,0,0,1,.1-.094c.206-.022.322,0,.358.13l.049.031c-.031,0-.04.036,0,.049a.152.152,0,0,0,.076,0,.081.081,0,0,0,.1,0l.1-.063a.251.251,0,0,0,.206-.067s0-.036.049-.045a.107.107,0,0,1,.1,0,.829.829,0,0,1,.152,0,.224.224,0,0,1,.152.081h.1c.17-.045.269,0,.3.063a.541.541,0,0,1,.228,0,.568.568,0,0,0,.233,0,.224.224,0,0,0,.175,0,.894.894,0,0,1,.233-.031v.192c0,.045-.054.076-.157.1-.031,0-.049,0-.049.031-.067.045-.1.045-.1,0a.4.4,0,0,0-.2-.031.233.233,0,0,0-.13-.031.219.219,0,0,1-.125-.036.134.134,0,0,1-.152-.13.085.085,0,0,0-.076.036.094.094,0,0,1-.076.031.345.345,0,0,0-.255.1c0,.04-.054.063-.157.063a.175.175,0,0,0-.152,0,.112.112,0,0,1-.1,0,.3.3,0,0,0-.1,0,.573.573,0,0,0-.179-.063.237.237,0,0,0-.179,0,.569.569,0,0,1-.3-.036h-.152c-.036.045-.036.076,0,.1v.067a.448.448,0,0,0,.179.161.654.654,0,0,0,.282.063h.1a.492.492,0,0,1,.358,0h.152a1.924,1.924,0,0,1,.407-.1.273.273,0,0,1,.152.036.157.157,0,0,1,.157,0,.13.13,0,0,0,.1.049c.036,0,.054,0,.054-.031v.049l-.054-.067c0-.063.054-.085.152-.063l.1.031a.627.627,0,0,0,.358.031h.1a.488.488,0,0,1,.2.031c.067.045.121.045.152,0a1.137,1.137,0,0,1,.152-.063.327.327,0,0,0,.157-.1l.1.036c.036,0,.045,0,.027-.036s0-.031.027-.031.049.067.152.067a2,2,0,0,1,.407.031l.255.031a.318.318,0,0,1,.228,0,.586.586,0,0,0,.179.045c.067.045.116.045.152,0l.358-.125a.382.382,0,0,0,.1,0h.054a.662.662,0,0,0,.354.094.411.411,0,0,0,.233,0,.752.752,0,0,1,.175-.031.112.112,0,0,0,.076,0h.081c.036,0,0,.031.049.031s.049,0,.049-.031a.255.255,0,0,1,.255,0h.143a.778.778,0,0,0,.179-.031.394.394,0,0,1,.228,0,.206.206,0,0,0,.152,0,.224.224,0,0,1,.152,0l.054-.063h.049c.17.09.286.152.358.2a.586.586,0,0,1-.51.094.3.3,0,0,0-.206,0l-.251.2a.291.291,0,0,1-.157-.036.4.4,0,0,0-.3-.063.393.393,0,0,1-.125-.031.134.134,0,0,0-.13,0,.291.291,0,0,0-.179,0,1.452,1.452,0,0,1-.228,0,.215.215,0,0,1-.152,0,.533.533,0,0,0-.152-.031,1.164,1.164,0,0,0-.448-.036,1.079,1.079,0,0,1-.309.036.77.77,0,0,0-.278.045,1.614,1.614,0,0,1-.233.081.206.206,0,0,0,.1.036c.036,0,.036,0,0,.031a.313.313,0,0,1-.3.031.228.228,0,0,0-.206-.031c-.031,0-.049,0-.049-.031s0-.036-.049-.036l-.1.036-.1-.036a.389.389,0,0,0-.255-.045h-.2l-.1.031a.371.371,0,0,0-.054.228,1.965,1.965,0,0,1,.918.031,2,2,0,0,0,.407.031h.206a1.942,1.942,0,0,1,.448,0c.17.045.273.036.309-.031a.264.264,0,0,1,.152-.031c.067.045.116.045.152,0a1.275,1.275,0,0,0,.179,0,.3.3,0,0,1,.179,0,.124.124,0,0,0,.1-.031.421.421,0,0,1,.358-.13,4.951,4.951,0,0,0,.613-.031.211.211,0,0,0,.1.031.184.184,0,0,1,.1.031h.04c.036-.045.072-.054.1-.031a.184.184,0,0,0,.1.031h.1c.054,0,.1-.063.2-.063a1.4,1.4,0,0,1,.206.094A.4.4,0,0,0,70,108c.036,0,.058-.027.076,0a.174.174,0,0,0,.076,0,.9.9,0,0,0,.448,0l.255.031a.515.515,0,0,1,.2.13.492.492,0,0,0,.125,0,.2.2,0,0,0,.13-.081.07.07,0,0,1,.049-.063.184.184,0,0,1,.1-.031l.152.031.152.031c-.067.045-.067.076,0,.1l.1.063c.036,0,.036.045,0,.063s0,.045-.049.067a.089.089,0,0,1-.1,0,.447.447,0,0,1-.125,0,.175.175,0,0,0-.13,0,.34.34,0,0,1-.255-.031l-.152-.036c-.067,0-.1,0-.1.036s-.031.063-.1.063-.1-.022-.1-.063a.049.049,0,0,0-.027-.049h-.076l-.51.13c-.067.045-.049.09.054.13h.1a5.4,5.4,0,0,1,.662.031,3.228,3.228,0,0,0,.51-.031.278.278,0,0,1,.1,0,.125.125,0,0,0,.1,0,.152.152,0,0,1,.2-.031,2.1,2.1,0,0,1,.765.161c-.036.067-.121.1-.255.1a.367.367,0,0,1-.179,0,.492.492,0,0,0-.125,0l-.255.063a2.615,2.615,0,0,1-.64,0l-.582-.081a.609.609,0,0,0-.448.031c-.031.022-.049.022-.049,0-.1,0-.152,0-.152.031a.3.3,0,0,0-.206,0,.542.542,0,0,1-.228,0,1.452,1.452,0,0,0-.228,0l-.1.031h-.1a.828.828,0,0,0-.255-.031h-.354a8.418,8.418,0,0,1-.971-.031,1.051,1.051,0,0,0-.3.031,1.079,1.079,0,0,1-.3.067h-.282a1.867,1.867,0,0,0-.448,0h-.1l-.206-.036a.936.936,0,0,0-.354,0,2.3,2.3,0,0,1-.358.036h-.1a1.343,1.343,0,0,1-.712,0h-.1a2.451,2.451,0,0,1-.407-.067h-.1a.134.134,0,0,0-.1.067h-.054a.153.153,0,0,1-.125,0h-.331a.269.269,0,0,0-.206.049l-.192.009a1.378,1.378,0,0,0-.51.1.273.273,0,0,1-.152-.036.179.179,0,0,0-.13,0h-.125c-.036,0-.054,0-.054.036s-.031.031-.1.031a1.164,1.164,0,0,0-.448-.031.577.577,0,0,1-.255-.036.237.237,0,0,0-.2.036.559.559,0,0,1-.3.031h-.1a1.244,1.244,0,0,0-.282-.049.582.582,0,0,1-.278-.081h-.1c-.036,0-.054.022-.054.063a.17.17,0,0,1-.1-.031.085.085,0,0,0-.1,0h-.076a.094.094,0,0,0-.076-.031h-.13c-.036.045-.134.063-.3.063h-.1a.654.654,0,0,1-.448-.031.322.322,0,0,0-.206,0,.322.322,0,0,1-.206,0,.219.219,0,0,1-.125.031.219.219,0,0,0-.125.036.3.3,0,0,0-.179,0h-.179l-.1.031a.6.6,0,0,1-.255.031.448.448,0,0,0-.255,0,.447.447,0,0,1-.2,0,1.066,1.066,0,0,0-.206,0h-.179a1.079,1.079,0,0,0-.331,0,.492.492,0,0,0-.125,0,.371.371,0,0,1-.179,0,2.346,2.346,0,0,0-.448.031c-.067,0-.1,0-.1-.031a.734.734,0,0,0-.358.031,1.079,1.079,0,0,1-.3.067h-.3l-.1-.031h-.027a.193.193,0,0,1-.206,0,.184.184,0,0,0-.1-.031.143.143,0,0,1-.1.031.448.448,0,0,0-.331-.067,1.852,1.852,0,0,1-.233.036.632.632,0,0,0-.2.031.4.4,0,0,1-.206,0,.51.51,0,0,1-.407.031,2.686,2.686,0,0,0-.506.063h-.054a.148.148,0,0,1-.125,0,.224.224,0,0,1-.13-.081c-.031-.045-.1-.063-.2-.063h-.054a.34.34,0,0,0-.228,0,.676.676,0,0,1-.228.049c-.067,0-.1,0-.1.063a.613.613,0,0,0,.51.2h.1a2.319,2.319,0,0,1,.448-.031.389.389,0,0,0,.3,0h.1a.389.389,0,0,0,.3,0,.21.21,0,0,1,.157,0,.228.228,0,0,0,.152,0,.094.094,0,0,1,.076.036h0s.054-.031.054,0,0,0,.049,0,.121.04.152,0a.421.421,0,0,1,.206-.036c.067.045.1.054.1.036s.058-.022.076,0,.04,0,.076,0l.1-.036a1.616,1.616,0,0,0,.609-.063h.1a.779.779,0,0,0,.358-.031c.1,0,.152,0,.152.031s0,.036.076.049.058.027,0,.049,0,.031.054.031h.049c.036,0,.054,0,.054-.049s0-.04.049,0c.17,0,.273.022.3.067s.067.063.206.063a7.124,7.124,0,0,0,.761-.063,7.843,7.843,0,0,0,1.276-.1h.125a.157.157,0,0,1,.13,0,.367.367,0,0,0,.179,0,.493.493,0,0,1,.125,0c.1-.045.17-.054.206-.031a.412.412,0,0,0,.2.031,1.044,1.044,0,0,0,.179,0,.314.314,0,0,1,.179,0c.067.045.116.045.152,0a.412.412,0,0,1,.358-.031,1.416,1.416,0,0,0,.354,0,2.379,2.379,0,0,1,.309,0,4.615,4.615,0,0,1,.662-.031h.175a.3.3,0,0,0,.179,0,.681.681,0,0,1,.358.031l.1-.031a.1.1,0,0,1,.1,0,.3.3,0,0,0,.1,0h.206a.094.094,0,0,0,.076-.036h.076c.036,0,.049,0,.049-.031s0-.031.054-.031a.354.354,0,0,1,.3,0,.076.076,0,0,0,.076,0,.13.13,0,0,1,.076,0l.255-.031a.278.278,0,0,1,.152-.031,2.552,2.552,0,0,0,.662.063A2.793,2.793,0,0,0,64,109.17a1.07,1.07,0,0,1,.3.031.51.51,0,0,0,.407-.031.2.2,0,0,1,.255-.067.4.4,0,0,0,.2.036.72.72,0,0,1,.309,0,.869.869,0,0,0,.3,0c.031,0,.058-.031.076,0a.157.157,0,0,0,.076,0c.067.04.121.04.152,0a1.858,1.858,0,0,1,.448,0h.331a.282.282,0,0,0,.152-.036,5.143,5.143,0,0,1,.712-.031h.255a2.37,2.37,0,0,0,.448-.031,1.588,1.588,0,0,1,.407,0H69.5a1.284,1.284,0,0,0,.354.063.407.407,0,0,0,.1,0,.237.237,0,0,1,.152,0l.448-.031a.864.864,0,0,1,.255.031.251.251,0,0,1,.175,0,.569.569,0,0,0,.233,0l.815-.031h.2l.358-.031q.049-.067.255,0a.178.178,0,0,1,.076,0H73a1,1,0,0,1,.3,0,.645.645,0,0,0,.255,0l.054.036.3.031a.349.349,0,0,1,.2.063v.067a.224.224,0,0,0-.125.049l-.076.045Z" transform="translate(7.184 -31.695)"/>
    <path id="Pfad_2" data-name="Pfad 2" class="cls-1" d="M70.031,133.273H71.2v-5.819h1.128v-1.025H68.9v1.025h1.128Zm-4.073,0h1.186v-5.819h1.128v-1.025H64.848v1.025H65.98Zm-1.831,0v-1.021h-2.09v-1.992h1.526v-1.025H62.055v-1.759h1.956v-1.025H60.877v6.84Zm-6.607,0v-2.426l.412-.756h0l.949,3.183h1.186l-1.419-4.288,1.258-2.551H58.742l-1.222,2.529h0v-2.529H56.352v6.84Zm-4.749-2.8a4.72,4.72,0,0,0,.6-.031l.828,2.833h1.186l-.989-3.1c.4-.179.819-.622.819-1.723,0-1.459-.667-2.019-1.974-2.019H51.6v6.84h1.168Zm0-3.071h.412c.631,0,.868.237.868,1.052s-.237,1.052-.868,1.052h-.412Zm-4.655,4.355H49.4l.206,1.517H50.73l-1.253-6.84H48.031l-1.249,6.84H47.9Zm.631-3.957h0l.448,2.936h-.94Zm-4.767,5.475v-2.8h.506c1.437,0,2.108-.56,2.108-2.019s-.671-2.019-2.108-2.019H42.811v6.84Zm0-5.873h.448c.765,0,1,.237,1,1.052s-.233,1.052-1,1.052h-.448Zm-5.859-.967-.828,4h0l-.828-4H34.915v6.84h1.012v-5.34h0l1.052,5.34h.564l1.052-5.34h0v5.34h1.016v-6.84Zm-4.373,0H32.583v6.84h1.164ZM26.8,130.462a4.84,4.84,0,0,0,.6-.031l.824,2.833h1.186l-.985-3.1c.394-.179.815-.622.815-1.723,0-1.459-.667-2.019-1.974-2.019H25.636v6.84H26.8Zm0-3.071h.412c.631,0,.868.237.868,1.052s-.237,1.052-.868,1.052H26.8Zm-2.158,5.873v-1.021H22.556v-1.983h1.5v-1.025h-1.5v-1.759h1.956v-1.025H21.379v6.84Zm-6.423,0h1.168v-5.819h1.128V126.42H17.09v1.025h1.128Zm-3.863-1.517h1.28l.206,1.517H16.97l-1.249-6.84H14.27l-1.249,6.84H14.15Zm.631-3.957h0l.448,2.936h-.94Zm-2.735,5.474v-1.021H10.166v-1.983h1.5v-1.025h-1.5v-1.759h1.956v-1.025H8.988v6.84Zm-6.791,0v-3H6.714v3.03H7.878v-6.858H6.714v2.784H5.461v-2.784H4.3v6.84Zm-4.333,0H2.3v-5.819H3.424V126.42H0v1.025H1.128Z" transform="translate(14.838 -43.189)"/>
    <path id="Pfad_3" data-name="Pfad 3" class="cls-1" d="M52.3,25.654a.448.448,0,0,1-.107-.636c.054-.054,0-.107,0-.161a.167.167,0,0,1,.157-.157.184.184,0,0,0,.157-.054s-.049-.107.054-.054,0,.054-.054.107c-.157.318-.157.372.161.582v.054c-.318.157-.318.157-.367.318m2.238-5.291a.054.054,0,0,1-.054-.054V20.2c-.21-.049-.1-.21-.157-.313a1.526,1.526,0,0,0-.21-.636.3.3,0,0,1,.054-.21l.313-.318.157-.161c.054-.21.161-.264.318-.372a1.343,1.343,0,0,0,.313-.26,1.822,1.822,0,0,1,.524-.372,2.211,2.211,0,0,0,.421-.318c.054-.107.21-.161.367-.21a1.6,1.6,0,0,0,.318-.161c.107-.054.157-.21.26-.157.21-.107.372-.107.474-.318.054-.054.054-.107.1-.107a1.231,1.231,0,0,1,.421-.1.412.412,0,0,0,.421-.107.448.448,0,0,1,.367-.054c0,.054.054,0,.107,0,.313-.107.627-.264,1-.372.049,0,.049,0,.1.054h-.054a2.852,2.852,0,0,0-.421.636c-.049.054-.157.054-.157.107a.273.273,0,0,0-.1.21c-.054.054-.157.107-.157.157a.407.407,0,0,0-.107.215c-.054.157-.157.21-.26.313a7.953,7.953,0,0,0-.631.689c0,.054-.054.107-.054.21V18.3c-.21.054-.157.318-.313.425s0,.1,0,.157.049.054.1.107c-.054.1-.157.054-.21.1s-.1-.049-.157,0c-.054.161-.21.161-.264.264s-.21.107-.313.161a.855.855,0,0,1-.264.21,1.294,1.294,0,0,1-.734.318c-.054,0-.1,0-.1.054a.21.21,0,0,1-.264.157,1.4,1.4,0,0,1-.842-.054.076.076,0,0,0-.1,0c-.054.054-.054.107-.107.107s-.049.054-.1.054M61.807,2.484c-.161-.054-.107-.21-.107-.318s0-.049.054-.1c0,.054.054.054.1.054a.242.242,0,0,1,.054.313.17.17,0,0,0-.1.054M53.092,17.346a.192.192,0,0,1-.107-.049.448.448,0,0,1,.107-.372c.049,0,.049,0,.1-.054s-.1-.157,0-.21.1-.107.157-.161a.193.193,0,0,0-.054-.157c-.049-.054,0-.157-.049-.264a.515.515,0,0,1,.1-.448c.054-.049.107-.1.054-.157,0-.21,0-.21.21-.318,0-.21-.264-.157-.318-.318a.054.054,0,0,1,.054-.054h.157c0-.054.054-.157,0-.21v-.1a.26.26,0,0,1,.054-.372c.054-.054.054-.107.054-.215-.054,0-.054-.1-.054-.1a.175.175,0,0,1,0-.264c.21-.054.157-.264.157-.372a1.4,1.4,0,0,0,0-.474.054.054,0,0,0,.054-.054.448.448,0,0,0,.1-.372v-.264c0-.21.161-.264.21-.421,0,.049.054.049.054-.054.107-.264.107-.528.21-.792,0-.107.054-.215-.054-.318s0-.054,0-.107.107-.107.157-.107a.188.188,0,0,0,.21-.21c.054-.1.107-.21,0-.318s-.1-.21.054-.318a.492.492,0,0,0,.107-.367c0-.107,0-.161.049-.161s.161-.107.107-.157c-.107-.161-.054-.264,0-.425a4.029,4.029,0,0,0,.367-.636,1.925,1.925,0,0,0,.233-.43.166.166,0,0,1,.054-.107A6.224,6.224,0,0,0,56,6.477,3.855,3.855,0,0,1,56.261,6c.054-.1.054-.157.157-.21s.054-.161.107-.21a1.566,1.566,0,0,0,.1-.533c0-.1.161-.21.264-.264a.116.116,0,0,0,.107-.1.448.448,0,0,1,.157-.264.743.743,0,0,0,.26-.528c0-.054.054-.054.107-.107a.775.775,0,0,0,.157-.21.327.327,0,0,1,.21-.318c.054,0,.054-.161.157-.161.054-.157.21-.21.313-.318a.686.686,0,0,1,.264-.157V2.538a6.741,6.741,0,0,1,.685-.421c.049-.054.157-.107.157-.161s.054-.1.1-.157a2.077,2.077,0,0,1,.577,0c.107,0,.157.1.21.157s.107.161.157.107.107,0,.107.054c0,.21.21.264.313.367h.018l.157-.1c0,.049,0,.1.107.157s.1.107.157,0h.049a.188.188,0,0,0,.054.107L61.32,2.8c-.157.161-.157.161-.054.318a.054.054,0,0,0,.054.054c.21-.054.21-.372.421-.448.1.054.054.161.054.264a.667.667,0,0,0,0,.636c.049,0,.1,0,.1-.054s0-.1.054-.049l.1.1C61.9,3.68,62,3.787,62,3.89a.4.4,0,0,0,.1.264c.054.049.054.054,0,.054s-.054.215-.054.264-.049.161.054.21.1.107.054.215a.756.756,0,0,0,.1.318v.1a.448.448,0,0,0,0,.372v.13a.756.756,0,0,0,.054.367c.054.054.054.054.054.107s0,.161.049.161a.931.931,0,0,1,.107.367c.054.107.1.161.054.264s0,.054,0,.107c.157.054.157.21.157.318s.1.264,0,.421a.448.448,0,0,0,0,.372c.054.107,0,.21-.054.318a.311.311,0,0,0-.054.21.389.389,0,0,0,.054.264.2.2,0,0,1,.054.161c0,.049,0,.1-.054.049a.307.307,0,0,0-.21-.049c-.054,0-.157,0-.157.1a.56.56,0,0,0,.054.264c-.054.054-.161,0-.161.054-.1.054-.1.161-.1.264s.21.264.21.425c-.107.054-.21,0-.157.157a.389.389,0,0,1-.107.264.81.81,0,0,0-.21.479c0,.157-.049.318-.049.474s-.161.21-.21.372a.931.931,0,0,1,0,.372,4.029,4.029,0,0,1-.21.421c0,.054-.054.107,0,.157s0,.107-.054.107l-.9.318a1.115,1.115,0,0,0-.577.21.166.166,0,0,1-.107.054c-.157,0-.26.107-.421.157a1.741,1.741,0,0,1-.734.318.479.479,0,0,0-.421.215c-.049.054-.049.054-.157.054a.743.743,0,0,0-.448.313c-.054.107-.21.161-.21.318s-.21.161-.21.318l-.054.054c-.1,0-.21.107-.313.157s-.054,0-.054-.049-.107-.107-.21-.054-.264,0-.367.1a4.476,4.476,0,0,0-.524.448c-.107.107-.21.157-.318.107a.385.385,0,0,0-.26.1c-.054.054-.107.161-.21.21a1.343,1.343,0,0,1-.372.215A2.005,2.005,0,0,0,53.88,17c-.1.1-.26.1-.313.264,0,.054-.054.054-.1.054a1.089,1.089,0,0,0-.367.049M48.835,41.992c.107,0,.21-.049.318,0s.1.054.1,0a.246.246,0,0,1,.157-.264.264.264,0,0,0,.107-.21.184.184,0,0,1,.054-.157c.206-.054.206-.054.313-.264.054-.054.157-.161.157-.215s.157-.049.157-.1v-.318a1.025,1.025,0,0,0,.054-.372c.157-.157.421-.264.474-.582,0-.054.049-.054.049-.107.161-.049.161-.049.054-.21.054,0,.107-.054.157-.054a.2.2,0,0,1,.161.054c.054.054,0,.054.049.054a.9.9,0,0,1,.318-.318.157.157,0,0,0,.1-.21c0-.054.054-.054.054-.107.157-.1.1-.264.1-.421l.054-.215c0-.1.1-.264.054-.367a.931.931,0,0,1-.054-.743c0-.157-.054-.21-.054-.318s.107-.157.107-.264v-.049a1.276,1.276,0,0,1,.157-1.061c0-.049.1-.157,0-.264a.188.188,0,0,1,.054-.157.448.448,0,0,0,.1-.264c.107-.107,0-.264.054-.372a.519.519,0,0,0,0-.479v-.157c.054-.21.054-.421.1-.636a.51.51,0,0,0-.157-.528c-.054-.054-.1-.1-.1-.157s.049-.054.1-.054H52.3V32.05a.819.819,0,0,1,.206-.367c.107-.107.264-.318.054-.479a.313.313,0,0,1,.054-.21.134.134,0,0,0,.054-.21.448.448,0,0,1-.161-.479c0-.1-.1-.21-.1-.367a.2.2,0,0,1-.054-.161c.054-.054.054-.054.107-.054s.049,0,.049.054.054.107.107.054a.273.273,0,0,0,.1-.21V29.4c-.049-.049-.157.054-.157,0-.054-.157-.21-.21-.157-.367V28.72c.054-.21.054-.479.264-.582.049,0,.049-.054.1-.107v-.054c-.1,0-.1-.049-.1-.049.049-.107,0-.161-.107-.161,0-.054-.054,0-.1-.054a.412.412,0,0,0,.049-.21l.107-.107c0-.049,0-.1.1-.1s.107,0,.107-.107a.765.765,0,0,0-.107-.318c-.1.107-.21.161-.26.264s-.107.054-.107,0-.157-.1-.157-.21v-.21a.336.336,0,0,1,0-.318c.054-.107.157-.161,0-.264a.054.054,0,0,1-.054-.054c.107-.107.054-.21.054-.318.054.054.157.054.21.107a1.007,1.007,0,0,1,.264.582c0,.054,0,.1.049.1s.107-.049.107-.157v-.107c0-.1-.054-.21.1-.264h.054c-.1-.1,0-.21-.157-.264a.054.054,0,0,1-.054-.054c.054-.1-.054-.21,0-.318a.192.192,0,0,1,.054-.157.546.546,0,0,0,.264-.421c-.054-.161,0-.215,0-.318s.1-.107.049-.161a.757.757,0,0,1-.367-.107c-.1-.049-.21-.049-.313.107,0-.21-.157-.372.1-.528a.291.291,0,0,0,.318.21c-.054-.1.1-.21.049-.318-.049,0-.049.054-.1.107s0,.054-.054,0-.054-.054,0-.107l.054-.049a.2.2,0,0,0,.054-.161l.049-.21c.054-.054.107.054.161,0,.049-.21.157-.318.049-.528a.322.322,0,0,1,.054-.215c.1.054.157,0,.21.054a.157.157,0,0,1,0,.21h.054a.38.38,0,0,0,.313.318.4.4,0,0,1,.421.264.116.116,0,0,0,.1.107.291.291,0,0,1,.264.161h.125a1.791,1.791,0,0,1,.631.367c.107.054.157.107.264.054s.1-.054.1.054.054.1.107.054.157,0,.21.049.157,0,.21-.049.157,0,.206-.054.161,0,.21-.054a.155.155,0,0,1,.21-.054c.1.054.21.107.318,0,.1.107.157,0,.26-.054a.9.9,0,0,1,.474-.157.233.233,0,0,0,.264-.054,4.951,4.951,0,0,1,.734-.157c.157-.054.313-.054.448-.107a1.925,1.925,0,0,0,.474-.21.188.188,0,0,0,.157-.054,1.791,1.791,0,0,0,.734-.264,1.665,1.665,0,0,1,.367-.264,5.052,5.052,0,0,0,.474-.21c.157-.107.264-.264.474-.318s.26-.161.416-.161a3.388,3.388,0,0,0,.9-.631,2.113,2.113,0,0,1,.627-.533c.161-.21.421-.318.577-.582,0-.054.107-.054.161-.1a.161.161,0,0,1,.1-.054,3.213,3.213,0,0,0,.528-.743l.157-.264c0-.049.049-.049.1-.1a.251.251,0,0,0,.21-.318c0-.107,0-.161.107-.161s.1-.049.1-.157a.528.528,0,0,1,.21-.372c0-.049.054-.049,0-.1a.448.448,0,0,1,.1-.372l.161-.474a1.043,1.043,0,0,1,.21-.582c-.107-.054.049-.107,0-.161a.9.9,0,0,1,.157-.636l.1-.264c.054-.21.054-.421.107-.636a3.874,3.874,0,0,1,.1-.421c.054-.054,0-.107,0-.157,0-.318.107-.533.367-.582a.448.448,0,0,0,.421-.318c.054-.107.157-.161.1-.215-.049-.157,0-.21.107-.318a.17.17,0,0,0,.054-.1c-.161,0-.21-.107-.318-.21a.3.3,0,0,0-.26-.107h-.107c-.054.054-.1,0-.1-.107v-.528c.049-.157,0-.372.1-.528v-.054a1.732,1.732,0,0,1,0-.528.5.5,0,0,0,0-.474V9.942c0-.1.054-.264,0-.367s0-.269,0-.425-.1-.21-.054-.372a.931.931,0,0,0-.157-.631.327.327,0,0,1,0-.372c0-.054,0-.054.054-.107s-.054-.264-.157-.318-.157-.1-.054-.157,0-.107.054-.161-.107-.049-.157-.1a.166.166,0,0,0,.049-.215c-.049-.21-.157-.421-.049-.631A.34.34,0,0,0,67,5.712c-.054-.054-.054-.107,0-.21s0-.161-.054-.264c-.157-.107-.21-.318-.313-.533.054-.26-.21-.474-.264-.739l-.1-.1a1.7,1.7,0,0,1-.474-.372c-.054-.161-.21-.318-.264-.479a1.606,1.606,0,0,0-.26-.313,3.156,3.156,0,0,0-.421-.448c-.054-.054-.054-.157-.157-.157a3.017,3.017,0,0,1-.609-.51,5.319,5.319,0,0,0-.524-.528c-.054,0-.107-.054-.157-.054-.161,0-.161,0-.264-.1a.278.278,0,0,1-.107-.21c-.049-.054-.1-.161-.206-.161s-.107-.1-.161-.157-.1-.107-.157-.107-.1.054-.157.054A.282.282,0,0,1,61.933.21c-.1-.054-.157-.1-.21-.054a.389.389,0,0,1-.313-.1l-.054.054C61.3.157,61.3.054,61.3.054a.161.161,0,0,0-.1.054c-.054.054-.054,0-.107,0A1.2,1.2,0,0,0,60.675,0a4.512,4.512,0,0,0-.842.107c-.157,0-.313-.054-.474.049a.349.349,0,0,1-.313.215c-.1.157-.313.21-.474.318a.157.157,0,0,1-.21.049c-.049-.049-.1,0-.1.054s-.1.107-.21.054A.188.188,0,0,0,57.891.9a2.014,2.014,0,0,1-.577.264,1.925,1.925,0,0,0-.734.528,4.338,4.338,0,0,1-.631.448,2.364,2.364,0,0,0-.367.367,1.2,1.2,0,0,1-.157.264.277.277,0,0,0-.107.215.3.3,0,0,1-.157.264c-.1.049-.157.1-.1.157a.179.179,0,0,1,0,.264,1.486,1.486,0,0,0-.318,1.056v.318a.166.166,0,0,1-.054.107.246.246,0,0,0-.157.264h-.054c-.049,0-.049,0-.049-.054V5.313a1.54,1.54,0,0,0-.107-.689.17.17,0,0,1,0-.21c0-.107.054-.215-.049-.318-.054,0-.054-.054-.054-.107.1-.1.054-.1,0-.157-.21-.161-.367-.318-.524-.448l-.161-.107c-.049-.049,0-.157-.157-.157s-.1-.157-.21-.157-.049,0-.049-.054a.054.054,0,0,0-.054-.054.076.076,0,0,1-.107,0,.192.192,0,0,0-.21-.157l-.313-.161c-.1,0-.21-.157-.313-.21L51.7,2.167a1.643,1.643,0,0,0-.474-.1.3.3,0,0,1-.367-.054c-.1,0-.157-.054-.21-.054A.721.721,0,0,1,50.2,1.9a.282.282,0,0,0-.161-.049.2.2,0,0,0-.049.157c-.107,0-.161-.107-.21-.107h-.107c0-.157-.157-.157-.21-.21a5.372,5.372,0,0,0-1.312-.318.9.9,0,0,1-.631-.157c-.049-.107-.157-.054-.206-.054a2.507,2.507,0,0,1-.68-.054.246.246,0,0,0-.318.054c0,.054-.049.054-.1.054a1.137,1.137,0,0,0-.313.1.291.291,0,0,0-.21.318l-.054.215c0,.1.054.21,0,.313a.166.166,0,0,0,.054.107v.107c-.107.1,0,.21.049.264s.054.264.161.318a.282.282,0,0,1,.286.17,2.556,2.556,0,0,0,.157.582,1.123,1.123,0,0,1,0,.448.953.953,0,0,0-.1.739c0,.107.054.157.054.21a.21.21,0,0,0,.1.318c-.054.054-.157.107-.157.21s.054.161-.054.269-.157.1-.054.21.107.21,0,.264a.206.206,0,0,0-.049.157.3.3,0,0,1-.054.21c-.054.054-.054.107-.054.215a.971.971,0,0,1-.049.528c0,.107-.054.264.1.318a.188.188,0,0,1,.054.157c0,.107-.107.161-.054.215.1.157.054.21-.054.313v.161a8.6,8.6,0,0,0-.157,1.11v.081a.564.564,0,0,0,0,.421c.054.107.107.264-.054.372-.049,0-.049.054-.049.107l.049.367c0,.161.107.318-.049.448v.582a.922.922,0,0,0,.21.528c-.054.054-.161.1-.161.21.054.21-.1.318-.157.425a.188.188,0,0,0-.054.157c.107.107.054.264,0,.372a.465.465,0,0,0-.049.264V15a.725.725,0,0,0,.049.318c.054,0,.107.1-.049.157-.054,0-.054.054,0,.054s0,.107,0,.21V16a.219.219,0,0,0,.1.215c.054,0,.054.1,0,.157,0,.157-.054.264-.054.448a.9.9,0,0,1,.054.367.448.448,0,0,1-.1.372.246.246,0,0,0-.054.318c.054.157.054.157,0,.264a.157.157,0,0,0,0,.21c.054.21-.054.372,0,.582-.1.054,0,.161,0,.21a.5.5,0,0,0,0,.533c.054.049.054.049,0,.1v.161a.175.175,0,0,1,0,.264.313.313,0,0,0,0,.367.166.166,0,0,1,0,.215c-.054,0-.054.049-.054.1.107.054.054.161.054.264a.161.161,0,0,0,0,.215v.1c-.054.161,0,.318-.1.479,0,.049-.054.049,0,.049a.21.21,0,0,1,.049.161.251.251,0,0,0,0,.264c.107.107,0,.21.054.264s0,.054-.054.107-.049.1,0,.21.107.107,0,.157c0,.054.107.054.107.107s0,.318-.054.318c-.157.054-.054.107-.1.157-.054.161.049.264,0,.372,0,.21.049.474.049.743.054.1,0,.157-.049.21a.394.394,0,0,0,0,.528.179.179,0,0,1,0,.264.237.237,0,0,0,.049.264c.054.054.107.107.107.157a1.459,1.459,0,0,1-.054.479.4.4,0,0,0,0,.474c.054.161-.054.161-.1.21s-.107.054-.054.215v.054c-.107.21-.054.421-.107.631.107-.054.161-.054.21-.1s0-.107.054-.054a.112.112,0,0,1,.1.1c0,.107.054.161.054.269v.1a.1.1,0,0,1-.157,0c-.054,0-.1-.1-.157-.054a.278.278,0,0,0-.107.215v.528c.054.1.054.21.161.318a.192.192,0,0,1,.049.1,1.585,1.585,0,0,1-.049.479.721.721,0,0,0,0,.474.421.421,0,0,1,.049.21c-.049.054,0,.107,0,.161a.394.394,0,0,1,.107.21c-.157.054-.21.107-.107.21a.6.6,0,0,1-.049.318c-.054.107-.161.264-.107.372.107.21,0,.474.107.739-.107.161,0,.372-.054.582,0,.054-.054.107,0,.107.1.1.054.21-.054.264a.188.188,0,0,0-.054.157c0,.161.107.264.107.448.054.054.054,0,.1,0a.188.188,0,0,1,.157.1c-.157.161,0,.269,0,.372s.107.318-.1.318a.054.054,0,0,0-.054.054c-.1.107,0,.21-.049.318s.1.1.157.157a.193.193,0,0,1,.049.161c0,.157.107.21.21.264s.054.054.054.1a1.159,1.159,0,0,1-.081.354,1.074,1.074,0,0,1-.416.21c-.054.054-.107.054-.107.107h.107c.049-.054.1,0,.157.054s.1.157.21.21.049.107.049.157v.107a2.86,2.86,0,0,0,.318.421c.049.054.049.107.049.215a.407.407,0,0,0-.049.528.17.17,0,0,1,0,.21.313.313,0,0,0-.054.21c.054.107,0,.107,0,.161-.1.421.1.636.421.636a.1.1,0,0,0,.157-.054c0-.107.054-.161.054-.264s-.107-.107,0-.107.054.054.1.107a.188.188,0,0,1,.054.1.3.3,0,0,0,.313.318c.054.054.107.107.107.161a2.238,2.238,0,0,1,.26.636c0,.049,0,.1.054.1s.054.107.107,0v-.054c.1,0,.1.161.26.107,0-.054.107.054.107.157v.161a.5.5,0,0,0,.313.528l.054.054a1.213,1.213,0,0,0,.47.1M37.049,38.133H37.1c.1-.054.21-.054.264-.107s0-.1.049,0a.054.054,0,0,0,.054.054l.206-.031a.054.054,0,0,0,.054-.054l-.054-.072-.448-.161c-.049,0-.049-.054-.1,0a.228.228,0,0,0-.054.372m-.739-3.912a.054.054,0,0,1-.054-.054V34.06c.054.054.107.054.107.107s0,.054-.054.054m-.072-1.1a.474.474,0,0,1-.157-.318.2.2,0,0,0-.054-.161c0-.1-.049-.157.054-.21-.054-.161.107-.161.157-.264-.1-.054-.157-.107-.157-.21s-.054-.264.157-.318c.054,0,.107.1.107.21v.054c.054.107,0,.157-.107.21v.054c.107.054,0,.21.161.21.049.054.049.161.157.21s.049.054,0,.107a.188.188,0,0,0-.054.107.537.537,0,0,0-.264.318m7.234-3.4a.116.116,0,0,0-.107-.1c-.157,0-.1-.107-.1-.215a.242.242,0,0,0,.313.054c0-.054.054-.054.054,0a.1.1,0,0,1,0,.161c-.054.054-.054.157-.157.1m-7.86-.582c-.161.054-.161-.049-.264-.1.054,0,.1-.161.157-.161Zm.7-2.538a.327.327,0,0,1-.1-.372.515.515,0,0,1,.049-.264c.107.054.161.161.264.161s.157.1.157.21a.054.054,0,0,0-.054.054c-.049,0-.049,0-.049-.054-.107-.054-.21-.054-.21.054V26.5c0,.049,0,.1-.054.1m.107-1.056a.68.68,0,0,1-.264-.582c0-.157.054-.264.054-.448a.1.1,0,0,1,.157,0c0,.054.054.107.054.161s.049.157.049.21.054.054.107.054.157,0,.157.054a.448.448,0,0,1-.125.519c-.049.107-.1.107-.206.054m.416-1.164c-.1-.054-.157-.21-.1-.21.21-.161.157-.318.157-.479v-.049a.054.054,0,0,1,.054-.054A.806.806,0,0,1,37,24.3c-.054.054-.054.161-.161.107m-.9,16.079a.645.645,0,0,1,.313-.054.747.747,0,0,0,.318-.107c.1-.049.21.054.313,0a4.476,4.476,0,0,0,1.423-.483c.1-.107.21-.21.313-.21l.107-.107c.1-.21.313-.318.416-.474s.372-.161.474-.318c0-.054.054-.054.1-.054.21-.054.318-.318.528-.421.054-.054.054-.161.1-.215s.054-.21.157-.21a.779.779,0,0,0,.161-.228c.1-.318.448-.582.627-.9.054,0,.054,0,.107-.054a.671.671,0,0,0,.367-.528c0-.107.1-.161.157-.264s.054-.107.107-.21A.416.416,0,0,0,42.2,35.2a.533.533,0,0,0,.049-.157c.054,0,.054-.054.107-.107.1-.157.157-.372.264-.528,0-.054,0-.054.049-.107.157-.1.157-.318.21-.474a.448.448,0,0,1,.054-.264.4.4,0,0,1,.1-.21.766.766,0,0,0,.107-.318c-.054-.107.1-.161.1-.215v-.049a.233.233,0,0,1,.054-.264c.054-.107.157-.215.054-.372l.049-.054.107-.157c.1-.161.1-.318.21-.479a.448.448,0,0,1,.157-.474.054.054,0,0,0,.054-.054c-.107-.21.049-.372.1-.528.054-.054.107-.054.107-.107a.506.506,0,0,1,.157-.421.322.322,0,0,0,0-.372.054.054,0,0,1-.054-.054.336.336,0,0,0,0-.318c-.054-.1.054-.157,0-.264a.327.327,0,0,1,.107-.421c.049,0,.049-.054.049-.107.054-.157-.049-.318-.157-.474.107-.054.157,0,.21,0a.837.837,0,0,1,.264-.21.2.2,0,0,0,.054-.161c-.107-.157,0-.157.1-.157s.1-.054.054-.107a.2.2,0,0,1,.049-.157c.107-.107.054-.161,0-.215l-.1-.1a.577.577,0,0,1,0-.425c.054-.107.1-.107.157-.21a.278.278,0,0,0,.107-.21c0-.107,0-.264.1-.318s.054,0,.054-.054-.054-.107-.054-.161.107-.1.054-.21a.072.072,0,0,0-.009-.085.336.336,0,0,0-.264-.264c-.1-.054-.157-.107-.26-.054s-.054.054-.054,0-.157-.107-.264-.161-.1,0-.21.054H44.18a.161.161,0,0,0-.157-.157.407.407,0,0,0-.157.367.322.322,0,0,1-.054.215,2.372,2.372,0,0,0-.1.582c.054.049,0,.1,0,.157a.568.568,0,0,0-.054.582c.107.107.054.264-.157.318-.107.054-.157.157-.21.318v.157c0,.054.054.054.1.054s.107.054.054.107.054.157.107.157.1.054.1,0c.107-.054.157-.21.264-.264s-.054-.157,0-.21a.188.188,0,0,0-.054-.107c-.054-.107.054-.21.054-.318s.1-.054.157-.054a.627.627,0,0,0,.264-.264c.1.107,0,.215,0,.318v.318a.85.85,0,0,1-.107.264v.054a.246.246,0,0,1-.157.264.2.2,0,0,0-.054.161c.054.049.107.1.054.157s-.054.157-.054.318c.054.054,0,.157,0,.264s-.054.157-.1.157l-.157.161c0-.161,0-.161-.161-.21a.143.143,0,0,1-.157-.161v-.107c0-.1-.054-.1-.157-.1a.325.325,0,0,0-.313.21c0,.054-.054.107-.107.21s-.054.161-.157.215a.372.372,0,0,0-.1.21v.372c.049.049.049.1,0,.21s-.054.157-.107.264a.264.264,0,0,0,0,.372c.054.1,0,.157.054.264s-.107.1-.157.21-.107.264,0,.372c0,.1-.054.21.049.21s0-.107.054-.157a.188.188,0,0,0,.107-.054c.049-.054.157-.161.1-.215-.1-.157-.054-.264-.054-.421a.166.166,0,0,1,.054-.107c.1-.054.264-.21.421-.1l.054-.054c0-.107,0-.161.1-.161a.143.143,0,0,1,.157.161.394.394,0,0,1-.054.21,1.674,1.674,0,0,0-.1.474c0,.054.054.054,0,.107l-.2-.049c-.1.054-.054.161-.1.215l-.161.1c0,.107-.1.161,0,.264a.21.21,0,0,1-.049.161,1.231,1.231,0,0,0-.367.21c0-.157.1-.264,0-.425-.107.107-.264.054-.367.107s-.107.264-.21.372a.188.188,0,0,1-.054.107c.1.157-.107.21-.107.313-.26-.054-.313.264-.524.318-.1.264-.313.479-.26.846v.054c.049,0,.049.1.1.054a.1.1,0,0,1,.157,0c.054.049.107.1.21.049s.157-.049.21-.157a1.38,1.38,0,0,1,.264-.318.049.049,0,0,1,.049-.049c.054.049.107.049.054.1v.264l.054.054c.054,0,.1,0,.1-.054s.054-.1.107-.054.1.054.1.161-.21.264-.313.21a.26.26,0,0,0-.318.157c-.049.107-.206.215-.1.372v.107a.546.546,0,0,1-.264.318c-.049,0-.1-.107-.21-.107s-.1-.054-.206,0c-.21-.21-.372-.054-.528.107l-.1.157c-.054.054-.054.107-.054.215a.775.775,0,0,1-.157.21c-.107.054-.157.054-.264-.054-.054.107-.26.107-.26.21s0,.107-.054.107c-.157-.054-.264,0-.264.157-.054.054-.054.107-.1.107a.38.38,0,0,0-.107.318v.1c-.21.264-.26.636-.524.9,0,.054-.054.107-.054.161,0,.157-.049.264-.21.264s-.21.157-.157.21.054.21.21.264.107.318,0,.372a1.638,1.638,0,0,1-.474.157c-.157,0-.26,0-.26.161,0,.049-.054.049-.107.049s-.1,0-.1-.049a.893.893,0,0,0-.107-.264c-.049.054-.049.157-.157.1s-.21.054-.26.161a.116.116,0,0,1-.107.1l-.157-.157c-.1,0-.1-.054-.054-.157a.98.98,0,0,0-.1-.506v-.054c0-.1-.054-.1-.107-.157s-.157-.107-.157-.157a.479.479,0,0,0,.054-.264.2.2,0,0,0,.054-.161,1.79,1.79,0,0,0-.107-.739c0-.161-.054-.318.107-.448.049,0,.1-.054.1-.157s0-.161.107-.161c0-.1.157-.157,0-.264,0-.1-.107-.264.049-.367.054-.054-.049-.161,0-.215s0-.1-.157-.054-.157-.049-.21-.157a.228.228,0,0,1,.054-.264c.054,0,.1-.054.1,0,0,.157.107.157.21.157,0-.157.157-.21.264-.367,0-.054.054-.107,0-.215V33.8a.479.479,0,0,0,.054-.264c0-.107-.054-.21.1-.264a.2.2,0,0,0,.054-.318.416.416,0,0,1-.054-.421.448.448,0,0,0-.054-.372.4.4,0,0,1,.054-.474,1.665,1.665,0,0,0,.157-.479c0-.054.054-.1.054-.157a1.415,1.415,0,0,0,.367-.582.448.448,0,0,0-.054-.372c0-.054-.26-.107-.313-.107a.4.4,0,0,0-.1.318.448.448,0,0,0,.049.215.166.166,0,0,1-.049.1c-.107.054-.161.161-.21.21-.107.161-.107.161-.21.054a.237.237,0,0,1,0-.264c0-.054.049-.054.049-.1a.367.367,0,0,0-.313.157c-.21.107-.474,0-.474-.21a.389.389,0,0,1,.107-.264c.1-.107.157,0,.21.049h.054v-.1c.049-.21.049-.21-.107-.264s-.157,0-.157-.21c.054-.054.054-.054,0-.107a.34.34,0,0,1-.107-.448A.322.322,0,0,1,36,28.8c.157-.049.157-.21.1-.367a.2.2,0,0,1,.054-.161.336.336,0,0,0,0-.318,2.113,2.113,0,0,1,0-.582c.1.054.1.161.157.269s.157.049.21.1c-.054.107-.21.21-.054.372-.1.1-.049.21.054.318,0,.054-.054.157.054.157s.049,0,.049.054-.1.107-.1.157-.157.215-.054.372a.774.774,0,0,1-.049.479c-.054.1-.054.157,0,.313,0,.054.049.107.1.054h.157c.107.054.21,0,.21-.1s.157-.161.21-.264.157-.107.264-.215a.8.8,0,0,0,.157-.21c.054-.107.054-.21.157-.318s.054-.318-.1-.474c-.054-.054-.161-.054-.21-.107.1-.054.1-.157.157-.264s0-.21-.107-.21-.049-.054-.049-.107l.313-.318v.264c0,.054.054.054.1.054s.107-.1.054-.21,0-.161.054-.264.1-.054.157-.054a.188.188,0,0,0,.054-.107c-.054-.1,0-.264,0-.367a.287.287,0,0,0-.107-.215c-.054-.054-.049,0-.1.054s-.054-.054-.107-.054-.1,0-.049-.049.1-.107.049-.161c-.1-.157-.049-.21.054-.318,0-.054.054-.1.054-.157a1.092,1.092,0,0,1,.21-.582c.054-.107.054-.161.157-.21a.1.1,0,0,0,0-.161c-.157-.054-.21-.21-.313-.372,0-.049-.054-.21.049-.264s.107-.157.161-.21A.958.958,0,0,0,38.2,23.2c-.049-.054-.049-.054,0-.107a.582.582,0,0,0,.054-.421V22.56c.054-.054.054-.1-.054-.157a.13.13,0,0,1-.049-.21c.049-.107.1-.161,0-.215s-.054-.054,0-.1.049-.054.049-.107c-.049-.157,0-.318-.049-.474a.233.233,0,0,1,0-.264.649.649,0,0,0-.054-.448v-.107a.448.448,0,0,0,.054-.367v-.161a.188.188,0,0,0-.054-.157,4.888,4.888,0,0,0-.631-1.164l-.157-.161a2.511,2.511,0,0,0-.474-.318,1.674,1.674,0,0,1-.448-.21.286.286,0,0,0-.21-.1c-.054,0-.107,0-.107-.054a.448.448,0,0,0-.367-.161c-.049.054-.1-.1-.157.054-.054.054-.157-.054-.21-.1s-.1-.054-.157-.107-.157-.161-.264-.161a2.471,2.471,0,0,1-.627-.049.054.054,0,0,1-.054-.054.192.192,0,0,0-.157-.054c-.107.054-.21,0-.367-.054a1.79,1.79,0,0,0-.528-.054h-.1c-.054-.157-.157-.1-.264-.1a2.789,2.789,0,0,0-.944,0,1.446,1.446,0,0,0-.68.1.524.524,0,0,0-.264.215c0,.1-.054.264.054.367s.049.161.1.215a1.343,1.343,0,0,1,.107.367v.264c.049.161-.054.372,0,.533.049.049,0,.157.049.21a.1.1,0,0,0,0,.157c.054.107.157.215.107.264a1.159,1.159,0,0,0-.21.528.4.4,0,0,0,.054.269.251.251,0,0,1,0,.264.5.5,0,0,0,0,.474c0,.054.049.107,0,.161a.85.85,0,0,0-.107.528c0,.049-.054.157,0,.21s0,.107-.054.107-.072.21-.072.255a1.907,1.907,0,0,1,.049.528c0,.107-.049.157-.1.264s.1.21.054.318,0,.107-.054.157c.1,0,.054.054.1.161a.152.152,0,0,0,.054.1.1.1,0,0,1,0,.161.716.716,0,0,0-.1.318c0,.1-.054.157.049.157s0,.054,0,.054a.21.21,0,0,0-.049.161v.313c0,.107-.054.107-.161.161a.488.488,0,0,1,.054.474c-.054.054-.054.107-.054.21a.322.322,0,0,0,.054.215.1.1,0,0,1,0,.157c-.054.054-.1.161,0,.21s.054.215,0,.215c-.157.1-.1.21-.1.318a.9.9,0,0,1-.054.367v.161c.1.1,0,.264,0,.367v.582a1.629,1.629,0,0,0-.054.537v.528c0,.1-.1.157-.1.264s.054.21.054.318-.107.21-.054.318.054.21-.054.264v.049c.107.107.054.269.054.448v1.164a1.271,1.271,0,0,1-.054.421v.107a.569.569,0,0,1,.054.264,4.6,4.6,0,0,0,.1.9c.107.107,0,.264.054.372a.883.883,0,0,1,.054.367.909.909,0,0,0,.1.479c.1.161-.054.318,0,.474a5.2,5.2,0,0,1,.157.846,4.7,4.7,0,0,1,.161.846,6.714,6.714,0,0,0,.416.9c.107.161.264.264.367.421a.828.828,0,0,0,.372.372c.049.107.157.107.157.161a.286.286,0,0,0,.21.157c.049,0,.1.054.157.107a3,3,0,0,0,.68.421,1.007,1.007,0,0,0,.685.161.9.9,0,0,1,.367.054c.1.1.264.1.421.157a.606.606,0,0,0,.524-.054c.157-.107.21-.054.264.054a.184.184,0,0,0,.157.054m1.419-30.04c-.107-.215.1-.264.21-.318a.325.325,0,0,1,.313,0,2.238,2.238,0,0,1,.054.264h-.107c-.157-.107-.313,0-.421.054Zm.734-.448c-.054-.157-.21-.157-.318-.21a.976.976,0,0,1-.26-.21l-.054-.054c.054-.054.054-.215.157-.264.157.049.157.157.157.318,0,.049,0,.1.054.049a1.558,1.558,0,0,1,.474-.049V9.62c-.054.107.054.161,0,.215s-.107.054-.107.157Zm-.425-.949s-.054,0-.054-.049.054-.054.107-.107.049.054.049.054c0,.1-.049.1-.1.1m.448-1.321c-.054,0-.107-.054-.157-.054s0-.1,0-.157a.209.209,0,0,1,.049-.161.054.054,0,0,1,.054.054c.054.107.157.161.157.264s-.049.107-.1.054m-2.686,5.448a.98.98,0,0,1,.416-.054.2.2,0,0,1,.161-.054,1.459,1.459,0,0,0,.765-.21c.049-.054.049-.054.1,0s.107.054.21,0,.1-.157.21-.21.1-.107.1-.157a.116.116,0,0,1,.107-.107c.054,0,.157.054.21,0a1.253,1.253,0,0,0,.313-.425c0-.1-.054-.157-.1-.264s0-.1-.054-.1c0,.367-.054.421-.421.367,0-.1.054-.21.054-.318s-.107-.1-.107-.049-.049.049-.1.049-.107.107-.157.107a.116.116,0,0,1-.1-.1c.107-.1.157-.21.264-.264a1.133,1.133,0,0,1-.264-.21c-.1-.107-.26-.054-.313-.21h.21a.3.3,0,0,0,.313-.264c.054-.054,0-.054.054-.107a.072.072,0,0,1,.1,0c0,.107.107.161.264.21.054,0,.1,0,.1.107s0,.054.054.054a.783.783,0,0,0,.367.157.389.389,0,0,1,.107-.318c.054-.049.054-.157.054-.264l.049-.367c0-.107.157-.107.107-.215s0-.1.049-.1.107-.107.107-.161a.1.1,0,0,0,0-.157.116.116,0,0,1-.107-.125c.107-.107,0-.264.107-.372.157-.318.157-.474-.054-.631,0,.1-.054.1-.1.157V8.4c-.054-.215.049-.372.26-.318a.188.188,0,0,0,.107-.054.9.9,0,0,0,0-.636c0-.054-.054-.1-.054-.21s-.054-.161-.1-.264-.264,0-.367-.107c-.161.054-.107-.054-.054-.157V6.6c.054-.107.054-.107,0-.157s-.107-.161-.157-.161c-.054-.107-.107-.157-.107-.264-.054-.21-.054-.21-.264-.264-.1,0-.26.054-.313-.107-.054-.054-.1-.1-.157-.1s-.21,0-.21-.107-.1-.157-.21-.21a1.137,1.137,0,0,0-.421-.054.448.448,0,0,1-.448-.161c0-.049-.054-.049-.107-.1-.21-.054-.367-.215-.631-.215a.376.376,0,0,1-.206-.1.116.116,0,0,0-.107-.107c-.157.054-.367-.049-.577-.049a1.285,1.285,0,0,1-.421-.054h-.282a2.238,2.238,0,0,1-.842.1.931.931,0,0,0-.367.107l-.528.157c-.049.054-.157.054-.206.107-.161.107-.161.21-.054.318s.1.107.1.157,0,.215.054.264a.2.2,0,0,1,.054.161,6.266,6.266,0,0,1-.049,1.016.166.166,0,0,0-.054.107c0,.474-.049.9-.049,1.374V9.785a4.968,4.968,0,0,1,.1.9V11c0,.21.1.313.1.528.21,0,.054.157.107.21a.192.192,0,0,1,.054.157c0,.054.049.054.1.054s.107-.1.054.054a.054.054,0,0,0,.054.054c.313.21.627.582,1.1.582,0,.054.054.054.1.054a.9.9,0,0,0,.631.1c.054,0,.107.054.054.107a.054.054,0,0,0,.054.054c.1-.054.157,0,.26.054s.21-.054.264.049c.21.054.421,0,.631.107M16.234,41.728v-.367H16.19c-.107,0-.157,0-.21.1a.116.116,0,0,0,.1.107c.054.054.054.157.161.157m-1.262-2.484a1.244,1.244,0,0,1-.157-.264.166.166,0,0,1,.054-.107c.049,0,.1,0,.1.054a.336.336,0,0,1,0,.318m.054-.582s.054.054-.054.054a.112.112,0,0,1-.1-.107c.049-.049.049-.049.1-.049s.054.049.054.1m9.082-.474c-.1.054-.1.1-.054.157s-.049.054-.1.054a.184.184,0,0,1-.157-.054c-.054-.054-.107-.1-.161-.054a.072.072,0,0,1-.1,0c0-.049.054-.049.054-.1h.049c.161-.054.21-.107.161-.264a.049.049,0,0,1,.049-.054c.107,0,.107-.107.161-.161h.1v.054a.336.336,0,0,0,0,.318.076.076,0,0,1,0,.107m-9.2-.528h.054c-.054.1.054.157.054.264s-.054.157-.107.157a.351.351,0,0,1-.26-.157.64.64,0,0,1,.26-.264m3.1.1c-.049.054-.1,0-.1-.054-.107,0-.054-.049-.054-.1s0-.054.054-.107c0,.054.054.054.054.107s.1.1.049.157m-2.887-.792a.116.116,0,0,0,.107.107c.157-.054.367-.269.313-.448s-.1-.157-.1-.264a.38.38,0,0,0-.161-.318l-.157.448a.1.1,0,0,0,0,.157.076.076,0,0,1,0,.107c-.049.049,0,.1,0,.21m9.19-.846c-.107-.107-.21-.21-.157-.372,0-.054,0-.1.049-.054s.107,0,.107.054Zm-9.4-.846c.107.107,0,.21.107.372a.116.116,0,0,1-.107.1c-.1.107-.157.054-.21-.054-.049,0-.049-.049,0-.049s.107-.161.107-.264v-.107a.054.054,0,0,1,.054-.054c.049,0,.049,0,.049.054m10.031-.264c-.107,0-.107,0-.157.054s-.107.1-.161.054a.158.158,0,0,1-.049-.215.394.394,0,0,0,.1-.318.054.054,0,0,1,.054-.054c.054,0,.054,0,.054.054s-.054.107,0,.161c.1-.054.1-.054.157.054s.049.157.1.21c-.054.054-.1.054-.1,0m-1.683-1.343c-.1.107-.1.107-.1.215,0-.107-.107-.215-.107-.372a.152.152,0,0,1,.21.054c.054,0,.107.049,0,.1m1.155.264-.049.372a.143.143,0,0,1-.161.161.184.184,0,0,1,.054.157c.054.107,0,.21-.054.21a.228.228,0,0,1-.26-.049c-.054-.107-.107-.215-.054-.318a2.005,2.005,0,0,0,.054-.8c-.054-.054-.054-.054,0-.1a.376.376,0,0,1,.313-.107c.107,0,.107,0,.107-.1a.049.049,0,0,1,.049-.054c.054,0,.054,0,.054.054a2.1,2.1,0,0,1-.054.577m-1.258-.9c.054.054.1,0,.1.1s0,.107-.1.107-.054-.054-.054-.107,0-.1.054-.1m.944-.479c-.054-.049-.1-.049-.1-.157s.049-.161.206-.21c.054.049,0,.1,0,.21s0,.157-.1.157m.421-.779c0,.107-.107.054-.157.054s-.054.107-.161.054c0-.107.054-.21-.049-.318,0-.054.049-.107.1-.161.157,0,.21.107.264.215Zm-5.936-1.164c0,.054-.049.054-.1.054h-.063a.116.116,0,0,1,.107-.107c0-.049,0-.049.049-.049Zm6.777-.157c0-.161.049-.215.1-.215s.264.054.264.107-.054.21-.107.161-.157.049-.26,0Zm-1.526.264a1.678,1.678,0,0,1,.161-.479c.1-.049.1-.21.049-.313s-.049-.054,0-.107a.636.636,0,0,0,.107-.448.049.049,0,0,1,.049-.049c.054,0,.054,0,.054.049a.725.725,0,0,0,.107.318v.161c-.054.157,0,.157.157.264s.21.1.157.318c0,.054-.054.1,0,.157a.142.142,0,0,1-.1.21c-.1,0-.107,0-.107.054v.264a.116.116,0,0,1-.1.107c-.054.054-.054,0-.107-.054s0-.1-.054-.054-.1,0-.157.107a.2.2,0,0,1-.049.157c-.161-.157-.107-.367-.21-.528a.2.2,0,0,1,.049-.157m.161-1.692c0-.107.049-.215,0-.318s.1-.107.157-.107a.188.188,0,0,0,.157-.054c.054-.054.054,0,.1.054a2.775,2.775,0,0,1,.161.479c-.054,0-.107-.054-.21,0,0,0-.054,0-.054.049-.107.107-.157.161-.21.107a.143.143,0,0,1-.1-.21m.524-2.274c-.054.1-.157.157-.157.318,0,.049-.054.049-.107.049a.157.157,0,0,1-.1-.264l.157-.264a.1.1,0,0,1,.157,0,.2.2,0,0,1,.054.161m-.474-1.643c.107-.049.107-.157.157-.157.21.21.21.318,0,.636-.1,0-.1-.054-.1-.107v-.21c.054-.054-.157-.107-.054-.161m-.448-.421c.049,0,.049.054.049.054s0,.054-.049.054a.054.054,0,0,1-.054-.054c0-.054,0-.054.054-.054m.627-.372a.774.774,0,0,1,.107-.372c0-.049.054-.049.1-.049s.161.157.318.157c.054.054.054.054.054.157s0,.107-.054.161-.157.054-.107.157a.112.112,0,0,1-.1.107c-.054.054-.107,0-.157.054s-.054.107-.107.054a.2.2,0,0,1-.054-.161.237.237,0,0,0,0-.264M33.347,4.548a.367.367,0,0,1-.26-.21c0-.107.1-.054.157-.161-.054-.049-.1-.1-.1-.157a3.935,3.935,0,0,1,.47-.474.56.56,0,0,0-.313-.372.054.054,0,0,1-.054-.04c-.1-.107-.1-.157-.054-.264s.107-.107,0-.157l-.1-.107.157-.161-.1-.1a1.406,1.406,0,0,0-.474,0c-.313,0-.577.1-.842.1a.617.617,0,0,1-.448-.1c-.054,0-.054-.054-.107-.054a1,1,0,0,0-.367.054c-.107.054-.26,0-.313.1s-.21-.1-.318-.049c0,.049-.049,0-.1.049a1.822,1.822,0,0,0-.551.094c-.107.054-.161-.054-.21,0a.21.21,0,0,1-.21.107c-.157,0-.264-.054-.367,0a6.782,6.782,0,0,1-1.45.157h-.1a.336.336,0,0,1-.318,0,.3.3,0,0,0-.206.054,2.592,2.592,0,0,1-.631.107.192.192,0,0,0-.264.1,1.209,1.209,0,0,1-.631.107c-.049,0-.049,0-.1-.054-.107-.21-.313-.318-.421-.528a.349.349,0,0,0-.313-.21h-.21c-.107,0-.157-.107-.264-.161h-.072l-.577-.157a1.258,1.258,0,0,1-.416-.054l-.474-.157a3.581,3.581,0,0,0-1.312-.269,1.643,1.643,0,0,0-.474-.1,3.908,3.908,0,0,0-.734.157c-.107,0-.157.107-.313,0,0-.054-.054,0-.107,0a.842.842,0,0,0-.367.372,1.738,1.738,0,0,0-.157.676v.049c-.054.107-.107.215.054.318v.492a.188.188,0,0,1-.054.1c-.157-.1-.318.054-.421,0h-.313a.2.2,0,0,0-.161.054c-.1,0-.21-.054-.26,0-.107-.054-.157,0-.264.054s-.1,0-.1.054h-.161a3.42,3.42,0,0,1-1.258.1c-.157,0-.264.054-.367.054s-.264,0-.264.161h-.045a2.686,2.686,0,0,1-.68.049.994.994,0,0,0-.367.054c-.107,0-.21.054-.264,0-.157,0-.21.107-.313.107a7.954,7.954,0,0,0-1.052.21c-.1,0-.21.054-.313.054a.837.837,0,0,0-.367,0c-.054,0-.107.054-.21.054a3.134,3.134,0,0,0-.685.157.537.537,0,0,1-.416.054c-.161-.054-.372-.054-.582-.107a.474.474,0,0,0-.367.161l-.313.372a.143.143,0,0,0-.1.157v.107a.264.264,0,0,0-.107.21c.054.107,0,.21.054.318a.233.233,0,0,1,0,.264c-.157.107-.054.318-.157.474.157.107.1.264.157.372s.21.157,0,.21v.054c.1.157.054.318.1.421a.9.9,0,0,1,0,.533.613.613,0,0,0,.157.582.806.806,0,0,1,.318.421c.1.21.157.21.421.264a.049.049,0,0,1,.049.054c.054,0,.054,0,.054.054.054.264.054.264.21.421.054,0,.054,0,.054.054.054.161.157.21.21.318a2.444,2.444,0,0,0,.524.528.73.73,0,0,0,.631.161,1.2,1.2,0,0,0,.421,0l.21-.054a.721.721,0,0,0,.47-.054A1,1,0,0,1,13.3,11c.26-.107.577-.054.837-.161l.054-.054c.157,0,.21-.049.367-.049-.054-.107.054-.107.107-.107s.1-.054.21-.054a.192.192,0,0,0,.157-.054l.47-.157c.107-.054.264-.161.421-.107.157-.157.474,0,.577-.21L16.557,10c.157.054.264,0,.421.054A1.271,1.271,0,0,0,17.609,10a2.149,2.149,0,0,1,.577-.1l.157-.107c.1-.107.21-.21.313-.054.054.054.107,0,.157.054.107.157.21.372.107.528a.394.394,0,0,0-.054.21,3.93,3.93,0,0,1,.054.792,2.122,2.122,0,0,1-.054.582c0,.161.157.269.157.448s-.1.318-.1.474a2.427,2.427,0,0,1,.054.264,8.469,8.469,0,0,1,.049,1.164v.269a.9.9,0,0,1,0,.528,5.2,5.2,0,0,1-.049.846V17.1c0,.054,0,.107.049.107a.859.859,0,0,1,0,.372c-.049.21-.1.372.054.528s.1.318-.054.474v.054c-.1.054-.1.157,0,.264s.107.161-.049.264v.161c0,.21-.054.367-.054.582s-.107.21-.054.367c0,.054-.054,0-.054,0s-.1,0-.1.054-.107.107-.107.161a.546.546,0,0,1-.1.313c-.054.161-.157.269-.157.448,0,.054-.054.107-.107.21l-.157.161c-.1.1-.264.21-.264.421a1.791,1.791,0,0,1-.282.645c0,.054-.054.1-.107.21a2.9,2.9,0,0,1-.34.689.448.448,0,0,0-.157.318v.049c-.157.107-.1.264-.157.372,0,.21,0,.372-.21.479l-.054.049c.054.215-.054.318-.054.479a1.97,1.97,0,0,1-.264.582,1.661,1.661,0,0,0-.318.685c-.049.054-.049.161-.1.264-.054.215-.21.372-.264.582-.1.372-.26.689-.367,1.007l-.313.949a1.311,1.311,0,0,0-.054.448,1.191,1.191,0,0,1-.21.689c-.054.1-.157.21-.157.313a.859.859,0,0,0,0,.372,3.38,3.38,0,0,1-.21.689,6.715,6.715,0,0,0-.21.949,1.459,1.459,0,0,1-.054.479.416.416,0,0,0-.049.264,3.03,3.03,0,0,1-.107.685v.533a.725.725,0,0,1-.049.318c0,.1.1.21,0,.313a.824.824,0,0,1-.161.582,1.4,1.4,0,0,0-.1.792c0,.161.054.269.054.448a.192.192,0,0,0,.049.107c.107.1.21.157.107.264a.421.421,0,0,0,.1.21c0,.054.054.054.054.107a1.132,1.132,0,0,0,.21.636c0,.1.054.157,0,.21a.389.389,0,0,0,.054.474.483.483,0,0,1,0,.372c-.054.1-.107.21.049.264a.054.054,0,0,1,.054.054c-.054.157.107.264.054.421a.291.291,0,0,0,.1.215.824.824,0,0,1,.157.474c0,.1.054.1.161.054h.1c.054.049.054.1.157.157s.21.054.264-.157v-.054c-.054-.107,0-.161.1-.21a.154.154,0,0,0,.107-.161c0-.054,0-.21-.107-.264s-.157-.21-.206-.264c-.161-.21-.161-.318.049-.474.107-.107.107-.107.054-.318a.291.291,0,0,0-.1-.215c0-.054,0-.054.049-.1h.054a.116.116,0,0,0,.1.1c.107-.054.107,0,.107.107a1.611,1.611,0,0,0,.1.474c.049.1.21.161.318.215v.049l-.157.318c-.054.161-.054.215.1.269h.1l.054.049c-.157.107-.1.215-.054.264s.054.107.054.215a.161.161,0,0,0,.054.1c.054,0,.1-.054.157-.1a.321.321,0,0,0,.054-.318c-.054-.1-.107-.318,0-.425v-.112c-.054-.157-.054-.318-.157-.421a.354.354,0,0,1-.21-.264.506.506,0,0,0-.157-.479.3.3,0,0,1-.054-.367.161.161,0,0,0,.054-.21c-.054,0-.054-.054-.054-.107a.228.228,0,0,0-.21-.21c-.054-.054-.107,0-.107-.054s-.1-.161-.1-.264.157,0,.21,0a.421.421,0,0,0,.21.1c.1-.054.157-.054.157-.157s.054-.21-.054-.21-.1-.054-.1-.107c.1-.107.054-.107-.054-.21a.421.421,0,0,0-.367-.054c-.054.21-.1.21-.313.107h-.054a.1.1,0,0,1,0-.161c.054,0,.1-.054.157-.107h.054c-.054-.049-.157-.049-.21-.1a.4.4,0,0,0,.1-.215c0-.1-.049-.1-.1-.157v-.107a.645.645,0,0,0-.054-.313.2.2,0,0,1,.054-.161.112.112,0,0,0,.1-.107c.054-.049.107-.1.21-.049s.157,0,.264-.054.1-.107,0-.21c0-.054.054-.054.054-.107s.049-.054.049-.107a1.115,1.115,0,0,1-.21-.582c.054,0,0-.049,0-.049s-.1-.107-.157-.054a.049.049,0,0,1-.049.054c-.107.049-.21,0-.21-.107s0-.21.157-.21c.054,0,.1-.054.21-.054s.1-.107.1-.21-.054-.107-.1-.215.049-.264.1-.372.107-.049.157-.049.054-.054.054-.107.054-.1,0-.21c-.054,0-.054-.054,0-.107s.054-.049.107-.049.049.049.1.049c.054-.1-.1-.157,0-.21a.188.188,0,0,0,.1.054.546.546,0,0,1,.21-.372c.107-.054.161-.1.161-.21a.112.112,0,0,1,.1-.107c.054.054.054.054.1,0s.054-.1.054-.21-.054-.1-.1-.157a.192.192,0,0,1,.049-.107c.107,0,.161,0,.107-.054s-.107-.157-.054-.21.054-.21.157-.318.21-.157.107-.264a.116.116,0,0,1,.094-.094c.054-.054.107-.054.107-.1a.242.242,0,0,1,.157-.264c.054-.054.054-.107.1-.107.054-.107,0-.264.161-.318V30.04c-.107-.1,0-.21.049-.264s.107-.1.054-.21.157-.161.107-.318c-.054,0,0-.054,0-.054.1-.054.1-.157.1-.318,0-.054,0-.054.054-.1a2.757,2.757,0,0,0,.157-.9.663.663,0,0,1,.054-.318.416.416,0,0,1,.049-.264.64.64,0,0,0,.21-.479c.054-.264.157-.528.21-.739a4.57,4.57,0,0,1,.264-.792v.792a.448.448,0,0,0,.054.264c.049.107-.054.21-.054.318s0,.054.054.054a1.209,1.209,0,0,1,0,.421c-.054.264-.054.533-.107.8a2.1,2.1,0,0,1,0,.582.9.9,0,0,1-.1.474l-.054.054c0,.157-.107.318.054.474a.188.188,0,0,0-.054.107c.054.1.054.264.1.367a.707.707,0,0,1-.049.318c.049,0,.049-.054.1-.054s.054.054.054.107-.054.054-.107.054a.048.048,0,0,1-.049-.054v-.107c-.054,0-.161.054-.107-.049a.054.054,0,0,0-.054-.054c-.049,0-.049,0-.049.054v.21a.354.354,0,0,1,0,.318c0,.054,0,.054.049.1s.054.054.054.161.054.107-.054.157,0,.161-.049.215.049.1.049.157l.107.107c.1.1.054.264.1.421v.054c-.1.054-.1.107-.1.21s0,.161-.107.215h-.1c-.1,0-.1.1-.054.157a.1.1,0,0,1,0,.157c-.049.161-.21.269-.157.479v.157a.4.4,0,0,0-.1.318v.157a2.686,2.686,0,0,0-.107.689v.107c-.1.1-.054.21-.1.372a.645.645,0,0,1-.054.313.366.366,0,0,0,.054.448.255.255,0,0,1,0,.264c0,.054-.054.107-.054.157a.5.5,0,0,0-.157.372c0,.107,0,.157.054.21s0,.161-.054.264c-.107.318-.054.479.21.8a.2.2,0,0,1,.049.157c0,.054,0,.107-.049.107s-.107,0-.107.054a.56.56,0,0,1-.116.228.054.054,0,0,0-.054.054c.054.049.054.21.157.21s.107.21.264.21v.1c-.054.054,0,.107.054.107H18c.161.107.161.107.054.264a.586.586,0,0,0-.157.372c0,.107.157.107.21.157s.054.054.1.054.107,0,.107.054.049.161-.054.21a.076.076,0,0,0,0,.107c.054.054.054.054,0,.107s-.1.264-.21.318c.107.1.157.21.264.264a.228.228,0,0,1,.049.157c0,.054-.049.107,0,.157s.107-.1.161-.1.049-.054.1,0v.1c-.054.054-.1.107-.1.161s-.161.264-.054.372a.645.645,0,0,1,.054.313c-.054.107-.107.215-.054.318a5.045,5.045,0,0,0,.157.743.237.237,0,0,1,0,.264c-.1.21-.054.264-.367.21l-.21-.054a.072.072,0,0,1,0-.1c0-.107.054-.161-.054-.161s-.1-.054-.157.054-.1.054-.157.107a.77.77,0,0,1-.367-.161c0-.21-.157-.21-.264-.21A.193.193,0,0,1,16.9,43.2a.394.394,0,0,1-.1-.264c-.054-.264-.054-.264-.318-.1l-.26-.107c-.054,0-.107-.054-.054-.161s-.054-.1-.107-.1a.282.282,0,0,1-.21-.161c-.049,0-.049.054-.049.054v.107c0,.054-.054.054-.107,0h-.1a.291.291,0,0,1-.157-.264c.049-.054,0-.107.049-.161.054.054.107.054.107.161s0,.049.1.049l.157-.21a.681.681,0,0,1-.206-.157.1.1,0,0,1-.054-.161c.1-.1.054-.21,0-.318s0-.049-.107-.1-.157.054-.157.1-.054.161,0,.269.157.157.107.264a.564.564,0,0,1-.264.21h-.054c-.049.054-.1.054-.1,0,.054-.21-.157-.372-.107-.582-.1-.107-.21-.054-.313,0s0,.107,0,.21.054.107.054.21a.282.282,0,0,0,.157.264c.1.054.1.107.054.215a.2.2,0,0,0,.049.157c.107.054.161.215.21.264a.236.236,0,0,1,.054.264c-.157.107-.1.264-.054.448.054.054.107.157.21.21a2.6,2.6,0,0,1,.474.582c.157.161.26.372.47.372a.188.188,0,0,1,.107.054c.049.157.21.157.313.21a1.877,1.877,0,0,1,.577.264.448.448,0,0,0,.264.054c.313-.107.68,0,1-.107.157,0,.367,0,.448-.157a.748.748,0,0,1,.318-.107h.313a.188.188,0,0,0,.157-.054.922.922,0,0,0,.264-.367c.054-.269.21-.479.26-.743a.564.564,0,0,1,.21-.264.4.4,0,0,0,.21-.21c.107-.107.161-.21.318-.264s.21-.107.157-.21a.136.136,0,0,1,.1-.215,1.84,1.84,0,0,0,.577-.528c.107-.107.107-.264.318-.264.049-.107.157-.107.21-.157.157-.054.157-.161.21-.269.1-.21.313-.367.26-.631,0-.054.054-.054.054-.107a.676.676,0,0,0,.21-.474.386.386,0,0,1,.264-.528,2.077,2.077,0,0,0,.313-.318.291.291,0,0,1,.264-.161c.049.054.206.054.206-.054s.21-.21.21-.318a.416.416,0,0,0-.049-.421.546.546,0,0,1,0-.689.448.448,0,0,0,.358.327c.054-.21.107-.367,0-.528-.054-.054-.054-.1,0-.1a.363.363,0,0,0,.157-.372c.054-.107.054-.215.107-.264.157-.054.157-.215.157-.318s.054-.107.1-.161c0-.157.161-.318-.049-.474v-.107a.054.054,0,0,0-.054.054c-.107.161-.107.161-.264.107s-.1-.107-.049-.264l.157-.21c.1-.054.21-.107.21-.215s.049-.049.1-.049c.21-.054.21-.161.157-.269s0-.21-.049-.318a.192.192,0,0,1,.049-.1c.054-.054.107,0,.107.054s.049,0,.049.049.107.054.161,0a.192.192,0,0,0-.054-.157c-.054-.054-.157,0-.21-.107.21-.1.264-.264.157-.421v-.107c0-.107-.054-.157-.157-.107h-.054c0-.157-.21-.1-.21-.21s.161,0,.107-.157a.054.054,0,0,1,.054-.054.7.7,0,0,0,.148-.56,1.052,1.052,0,0,1,.157-.582c0-.054-.054-.054-.107-.054a.143.143,0,0,1-.1-.157.166.166,0,0,0,.054-.107.8.8,0,0,0,.1-.443.318.318,0,0,1-.054-.21c.054-.054.054-.107,0-.107a.412.412,0,0,1-.206-.21c-.054,0-.054-.054,0-.054l.049-.054c.054,0,.054.054.107.107a.1.1,0,0,0,.157,0c0-.054.054-.054.054-.107l.1-.582a.184.184,0,0,0-.054-.157c-.1-.054-.1-.161-.157-.215-.1-.157-.054-.157.107-.21.049,0,.1.054.157,0a.627.627,0,0,0-.264-.264c.264-.157.264-.157.107-.474-.054,0-.107.049-.161.049-.049.107-.1.161-.157.054s-.049,0-.1,0a.1.1,0,0,1-.157,0c0-.157.1-.157.21-.157s.157-.054.157-.21-.054-.161.049-.161c.21-.054.21-.157.264-.318-.054-.054-.157-.054-.21-.157.054-.054.157.054.21,0,0-.161-.21-.21-.1-.372a.054.054,0,0,0-.054-.054c-.157-.054-.157-.157-.054-.264a.188.188,0,0,0-.054-.157.448.448,0,0,1,.107-.318c.054-.054.1-.054.157-.107V26.41a.237.237,0,0,1,0-.264v-.107c.054-.1,0-.157-.157-.1-.054.049-.107,0-.054-.054.054-.161,0-.318.054-.528a1.079,1.079,0,0,0,.1-.582c-.049-.215-.049-.479-.1-.743a.448.448,0,0,1,.1-.421c.054-.054.107-.107.054-.161s-.1.054-.157.054-.054.054-.107,0c.107-.107.107-.21.161-.318s.049-.054,0-.157a.6.6,0,0,1-.107-.318,2.341,2.341,0,0,1,.054-.582v-.054a.663.663,0,0,1-.054-.318.756.756,0,0,0-.054-.367,2.328,2.328,0,0,1,0-.586.9.9,0,0,0,0-.528.358.358,0,0,1,0-.318.837.837,0,0,0,0-.367.251.251,0,0,1,0-.264,3.093,3.093,0,0,1,.107-.743v-.054a.756.756,0,0,1,.157-.474.188.188,0,0,0,.054-.157c0-.054,0-.107.054-.107.1-.107.049-.264.157-.372v-.1c-.157-.107-.157-.264-.21-.372-.054-.21-.157-.372.054-.582v-.107c0-.1-.054-.21.049-.318s0-.1-.1-.157-.107.107-.157.107c-.107-.107-.107-.161,0-.264s.1-.054.1-.107a.1.1,0,0,0,0-.161c-.1-.049-.1-.157-.157-.264s-.107-.21-.054-.264V14.4c.054-.161-.054-.318-.054-.528a4,4,0,0,1,.054-.8,1.052,1.052,0,0,0-.1-.577,3,3,0,0,1-.054-.689,1.491,1.491,0,0,0,0-.689c-.054,0,0-.054,0-.054v-.421a.116.116,0,0,0-.1-.107c-.054-.054.049-.1,0-.157a.64.64,0,0,1,0-.689c-.054-.1-.161-.157-.21-.264V9.378a.542.542,0,0,0,.21-.264c.157.054.157-.1.206-.21a.243.243,0,0,1,.264-.161.544.544,0,0,0,.313-.1.188.188,0,0,0,.107-.054c.21.054.474-.054.68,0a.38.38,0,0,0,.318-.157.671.671,0,0,1,.47-.264c.161,0,.318,0,.421-.161.054,0,.107-.054.107,0,.1.054.21-.054.313-.054a1.316,1.316,0,0,0,.421-.1c0-.107.157-.161.21-.264,0-.264.21-.215.367-.264a.9.9,0,0,1,.367-.054h.054c.049-.054.1-.107.1-.161s-.054-.054-.054-.1-.1,0-.157-.107l.157-.161c.054-.049-.049-.1,0-.157H29.99c-.157.054-.367,0-.421.21,0,.054-.107.107-.107.107a.9.9,0,0,0-.367.054c-.1-.054-.049-.372.054-.372a.783.783,0,0,1,.367-.157c.054,0,.157.054.264,0,0,0,.1,0,.054-.054s0-.107,0-.161,0-.157.1-.157a.313.313,0,0,0,.21-.054c0-.054.054,0,.1,0V6.2c-.049.054-.1.107-.157.054s-.157.054-.157.107.1.054.157.157a.13.13,0,0,0,.21.054c.107-.1.157-.21.264-.264s.1-.107.157-.054c.157.107.264,0,.421-.054.054,0,.1,0,.1-.1s-.049-.054-.1-.054h-.157c-.264,0-.264,0-.264-.21,0-.054,0-.107.054-.107s.1.107.157.054c.157-.054.21,0,.264.107s.1,0,.157,0,.054-.072.054-.179a.251.251,0,0,1,.264-.264l.157-.107c0-.157.107-.157.21-.157.21-.054.367-.161.577-.21.107,0,.157-.107.264-.107H33.2c.107,0,.157-.054.21-.161s.107-.157-.054-.157" transform="translate(9.839 26.642)"/>
  </g>
</svg>
