<svg xmlns="http://www.w3.org/2000/svg" viewBox="0 0 90 78.971">
  <g id="logo_grau" data-name="logo grau" transform="translate(-832.838 -2482.642)">
    <path id="Pfad_1" data-name="Pfad 1" d="M67.668,107.026c.084,0,.128,0,.128.039a.134.134,0,0,1-.067.123H67.7a.106.106,0,0,0-.095-.039v-.123Zm-6.846.473c-.045-.056-.089-.067-.128-.045s-.106.095-.061.123h.123l.128-.039Zm17.875.117a1.5,1.5,0,0,0-.379-.078l-.557-.039a.513.513,0,0,0-.251.039h-.072c-.039,0-.061,0-.061-.039s-.045,0,0-.045a.507.507,0,0,0,.318-.2h.128l.379-.039a.362.362,0,0,0,.251,0,.713.713,0,0,1,.384.039l.318.162a.134.134,0,0,1-.067.123l-.128.078Zm-27.512-.24-.128-.078c-.045-.084-.128-.111-.256-.084a1.67,1.67,0,0,1-.379.162c-.039,0-.061,0-.061.078l.128.084.379.123.251.039c.128,0,.189-.039.189-.123s0-.039.067-.039l.128-.039a.362.362,0,0,0,.251,0l-.251-.084-.128-.039Zm2.028.078a.345.345,0,0,0-.162-.039.273.273,0,0,1-.156-.039,1.525,1.525,0,0,0-.223,0,.312.312,0,0,0-.223.1s0,.039.067.039a.24.24,0,0,1,.128.039.212.212,0,0,0,.123.039c.045,0,.067,0,.067.045v.078a2.05,2.05,0,0,0,.44-.039c.084-.056.128-.106.128-.162v-.084Zm9.509.162a.078.078,0,0,0,.095,0,.078.078,0,0,1,.095,0s-.05.045,0,.061a.067.067,0,0,1,0,.056l.067.123.061.078c.084-.05.128-.106.128-.156v-.123c.039,0,.061,0,.061.039s0,.039.067.039a.412.412,0,0,0,.189-.078.15.15,0,0,0,0-.245.418.418,0,0,0-.189-.039h-.557l-.256.084h.256Zm4.373.485c.045.028.078.033.095,0s.033,0,.033,0c.084,0,.128,0,.128-.039s.061,0,.061-.039v.033a.206.206,0,0,0-.156,0,.423.423,0,0,0-.162.061Zm-5.387-.123v.162q-.128.084,0,.084a.173.173,0,0,0,.128-.039c.045-.039.123-.072.123-.045.173.056.256,0,.256-.117a.167.167,0,0,1,0-.2.2.2,0,0,0,0-.206.139.139,0,0,0-.061-.117l-.128.117c0,.084-.067.084-.189,0s-.106,0-.189.084,0,.256-.067.279,0,.033.067,0h.061m6.127.206c.251-.056.379,0,.379.156l.067.045q.061.117.251,0a.176.176,0,0,0,.156-.1c.017-.039,0-.089-.156-.145a.435.435,0,0,1-.189-.078.367.367,0,0,0-.223,0,1.521,1.521,0,0,1-.223,0,.456.456,0,0,0-.189.078Zm-7.542.318a.139.139,0,0,0,.123,0,.345.345,0,0,1,.128,0,.657.657,0,0,0,.318-.117.128.128,0,0,0,.061-.123H60.8c-.128,0-.189,0-.189.123,0,0,0,.039-.067.039s-.061,0-.061-.039a.39.39,0,0,0-.189-.123.134.134,0,0,0-.067.123q0,.117.067.117m-.7,0a.106.106,0,0,0,.128,0,.128.128,0,0,0,.061-.117.758.758,0,0,1,.067-.362v-.084a.618.618,0,0,1-.162-.217.856.856,0,0,1,0-.145c-.045,0-.067,0-.067.039a.373.373,0,0,1-.156.123.479.479,0,0,1-.284,0,.233.233,0,0,0-.189.084c-.084.084-.045.067-.128.117,0,.084.039.123.128.123h.067l.061-.039a.379.379,0,0,1,.256,0,.117.117,0,0,1,.061.1.117.117,0,0,0,.067.1.1.1,0,0,0-.095.039h-.095a.39.39,0,0,0-.318.162.162.162,0,0,1,.095,0,.061.061,0,0,1,0,.056c0,.056.045.084.128.084l.256-.084Zm15.853-.078.379.123a.5.5,0,0,1,.251.039.98.98,0,0,0,.446-.039h.061V108.5c0-.05.045-.106.128-.162l-.061-.078-.379-.039a.223.223,0,0,0-.162,0,.206.206,0,0,1-.156,0s0-.039-.067,0-.061.033-.061.061-.15.095-.318.039l-.128.039a.134.134,0,0,0,.067.123m-2.094.123.318.117a.875.875,0,0,1,.446.084h.061l.128-.123c-.045,0-.067,0-.067-.039a.123.123,0,0,1-.061-.1.117.117,0,0,0-.061-.1.061.061,0,0,0-.033-.061h-.095a.111.111,0,0,1-.128,0,.674.674,0,0,0-.446,0c-.084,0-.123,0-.123.084v.078l.061.045m-14.834.24v-.084c0-.05-.045-.078-.128-.078a1.259,1.259,0,0,1-.507-.039H57.82a.931.931,0,0,1-.351,0,.491.491,0,0,0-.284,0,.134.134,0,0,1-.128,0,.111.111,0,0,0-.128,0,.217.217,0,0,0-.189,0l-.123.162a.24.24,0,0,0,.312.078.9.9,0,0,1,.507.123.4.4,0,0,0,.223,0,.217.217,0,0,1,.162,0h.123a.323.323,0,0,1,.318,0,.8.8,0,0,1,.223.061.424.424,0,0,0,.284,0l-.123-.078-.128-.2m24.916.4a.613.613,0,0,0,.318,0V109.1a.223.223,0,0,0-.162,0,.4.4,0,0,0-.156.061h0m-25.49.925a.557.557,0,0,1,.318-.078l-.061-.045c.045-.05,0-.078-.189-.078s-.189.039-.189.123-.045.045,0,.056h.061Zm30.637.078h-.251a2.126,2.126,0,0,0-.351.045,2.179,2.179,0,0,0-.345.078H87.5a10.587,10.587,0,0,0-1.075.039l-.7.045a1.27,1.27,0,0,1-.379-.045.351.351,0,0,0-.318,0,.858.858,0,0,1-.446.084.273.273,0,0,0-.156-.039.273.273,0,0,1-.156-.045h-.256a2.486,2.486,0,0,1-.507.123h-.223a.557.557,0,0,0-.284.078.251.251,0,0,1-.256,0,.217.217,0,0,0-.189,0,.963.963,0,0,0-.44.045.363.363,0,0,1-.195-.045.189.189,0,0,0-.251-.039.284.284,0,0,1-.189,0,.557.557,0,0,0-.256,0l-.44-.039a3.478,3.478,0,0,0-.557.039h-.345a1.141,1.141,0,0,0-.351.045.15.15,0,0,1-.128,0,.156.156,0,0,0-.128,0,13.818,13.818,0,0,0-1.454.039.44.44,0,0,1-.223.039.512.512,0,0,0-.223.039.857.857,0,0,0-.256.045.385.385,0,0,1-.251,0h-.128c-.039.078-.15.089-.317.039l-.251.039h-.189a.5.5,0,0,0-.384,0c-.039.056-.106.056-.189,0l-.318-.039-.318-.039a.3.3,0,0,1-.251.039,1.03,1.03,0,0,0-.318.039.557.557,0,0,0-.317,0l-.061-.039a.106.106,0,0,1-.128,0,.111.111,0,0,0-.128,0c-.045,0-.061,0-.061.078a.312.312,0,0,1-.256.084.557.557,0,0,1-.251-.039.475.475,0,0,0,.123,0c.045,0,.045-.05,0-.1a.206.206,0,0,1-.156,0,.613.613,0,0,0-.156,0c-.045,0-.045,0,0,.039s0,.039-.067.039a.217.217,0,0,0-.095,0,.1.1,0,0,1-.095,0,.228.228,0,0,0-.134.011H72.3a1.309,1.309,0,0,1-.379-.039c-.039,0-.061,0-.061.039a.156.156,0,0,1-.128,0,.134.134,0,0,0-.128,0c.045,0,.078.033.095,0s.056,0,.1,0l-.384.078v-.078h.128a.1.1,0,0,0-.061-.084c-.061-.028-.045-.05,0-.078l-.067.162a.39.39,0,0,1-.318.078.267.267,0,0,1-.156-.1.111.111,0,0,0-.095-.061l-.128.084-.128.078a.457.457,0,0,1-.223,0,.613.613,0,0,0-.156,0c-.045,0-.061,0-.061-.039a.479.479,0,0,1-.318.039.357.357,0,0,0-.189,0,.366.366,0,0,1-.128,0,.345.345,0,0,1-.189-.039.4.4,0,0,0-.189-.039h-.953l-.886.039h-.384a.618.618,0,0,1-.318,0H66.4a1.114,1.114,0,0,1-.473.061h-.351a.457.457,0,0,0-.223,0,.373.373,0,0,1-.217,0,.273.273,0,0,1-.195,0,1.893,1.893,0,0,0-.251,0,.5.5,0,0,1-.256,0,.557.557,0,0,0-.251,0,1.292,1.292,0,0,1-.507.078h-.318a1.231,1.231,0,0,0-.379,0,1.766,1.766,0,0,1-.763,0,.4.4,0,0,0-.156.045.167.167,0,0,1-.162,0c-.039,0-.061,0-.061.039a.24.24,0,0,1-.256,0h-.223a.713.713,0,0,1-.384.039.1.1,0,0,0-.123,0,.863.863,0,0,1-.507,0c-.045,0-.078-.033-.1,0s-.05,0-.095,0a.463.463,0,0,0-.123,0,.312.312,0,0,1-.195,0l-.379-.045H59.4a2.862,2.862,0,0,1-.557-.078.819.819,0,0,0-.557.039.284.284,0,0,0-.128.039.106.106,0,0,1-.128,0,.451.451,0,0,1-.379,0,1.037,1.037,0,0,0-.156,0,.4.4,0,0,1-.223,0,1.905,1.905,0,0,0-.763,0h0c0-.039-.033,0-.033,0a.5.5,0,0,1-.256,0,.557.557,0,0,0-.251,0,2.824,2.824,0,0,0-.379.061,3.06,3.06,0,0,0-.384.061.351.351,0,0,1-.189-.045,4.709,4.709,0,0,0-.886,0,1.393,1.393,0,0,1-.7,0h-.256a.451.451,0,0,1-.379,0,1.119,1.119,0,0,0-.162,0,.212.212,0,0,1-.156,0,.217.217,0,0,1-.189,0,.111.111,0,0,0-.128,0,.429.429,0,0,1-.507,0,.184.184,0,0,0-.189-.056h-.189l-.128.084a.15.15,0,0,1-.128,0,.156.156,0,0,0-.128,0c-.039,0-.039,0,0-.039s0-.045-.189-.045H50.64a2.857,2.857,0,0,1-.557.045,4.212,4.212,0,0,1-.947-.123,1.517,1.517,0,0,1-.223,0,.368.368,0,0,0-.223,0,2.9,2.9,0,0,1-.6,0h-.557a1.269,1.269,0,0,0-.251,0,.93.93,0,0,1-.318,0,.423.423,0,0,1-.318-.039.607.607,0,0,0-.318,0c-.084.05-.15.067-.189.039a2.005,2.005,0,0,0-.507-.039c-.045,0-.078.033-.095,0a.224.224,0,0,0-.095,0c-.045-.084-.189-.123-.446-.123H44.44a3.16,3.16,0,0,1-.351,0,.669.669,0,0,0-.412.1.841.841,0,0,1-.256-.039.63.63,0,0,0-.189-.039.662.662,0,0,0-.189.039.384.384,0,0,1-.251,0h-.323a.2.2,0,0,0-.162,0,1.717,1.717,0,0,1-.379.039H41.61a.173.173,0,0,1-.128-.078c-.039,0-.061,0-.061.039a1.521,1.521,0,0,0-.223,0,1.581,1.581,0,0,1-.412,0l-.251.039a.312.312,0,0,0-.256.084,2.056,2.056,0,0,0-.251-.061,1.321,1.321,0,0,1-.256-.061.512.512,0,0,1-.251-.039.223.223,0,0,0-.189,0,.117.117,0,0,1-.1-.039h-.095a1.978,1.978,0,0,1-.507.039.557.557,0,0,0-.318,0,.134.134,0,0,1,.067.123h-.318v.039H38l-.067-.039s0-.045.067-.045-.045-.106-.128-.078h-.189a1.276,1.276,0,0,0-.384,0,2.341,2.341,0,0,1-.318,0l-.44-.039a.44.44,0,0,0-.446.078h-.061a.713.713,0,0,0-.384-.039.351.351,0,0,0-.189,0,.317.317,0,0,1-.123,0H35.1a.111.111,0,0,0-.128,0,.106.106,0,0,1-.128,0,.117.117,0,0,0-.095.039.106.106,0,0,1-.095.039.434.434,0,0,0-.189-.078h-.061a.451.451,0,0,1-.379,0H32.987a2.918,2.918,0,0,1-.557-.039,3.715,3.715,0,0,0-.663,0,3.78,3.78,0,0,1-.668,0c-.3,0-.7-.045-1.2-.045h-.067c-.039-.05-.145-.05-.312,0H29.2a2.491,2.491,0,0,0-.507-.039H28.42l-.128-.039a1.933,1.933,0,0,0-.7-.084,9.528,9.528,0,0,1-1.2-.039,3.448,3.448,0,0,0-.557-.039l-1.526-.039-.758-.084a5.479,5.479,0,0,0-.7-.039,1.543,1.543,0,0,0-.446,0,1.231,1.231,0,0,1-.379,0,11.448,11.448,0,0,0-1.209-.078l-.557-.045a1.983,1.983,0,0,1-.256,0,.256.256,0,0,0-.189,0H19.7a.612.612,0,0,0-.318,0,1.381,1.381,0,0,1-.351-.039,1.382,1.382,0,0,0-.351-.039h-.061a.557.557,0,0,0-.507,0h-.273a7.9,7.9,0,0,0-.886-.084h-.189a.557.557,0,0,0-.318.084l.256.162c.084,0,.123,0,.123.078s0,.039.067.039a.223.223,0,0,1,.123.045.334.334,0,0,0,.256.078.284.284,0,0,1,.128.039q.061.039,0,.084a1.933,1.933,0,0,1-.384.162l-.123-.045a.24.24,0,0,0-.189-.078H16.51a2.967,2.967,0,0,1-.557-.084h-.379a.8.8,0,0,1-.256-.039.979.979,0,0,0-.251-.039h-.128a.356.356,0,0,0-.189-.039.3.3,0,0,1-.318-.123c-.084-.056-.084-.106,0-.162s.128-.095.128-.117a.468.468,0,0,1,.189-.245,1.253,1.253,0,0,1-.318-.1,1.363,1.363,0,0,1-.189-.1c-.084,0-.106-.078-.067-.162q.195-.072,0-.2l-.189-.2a.312.312,0,0,1-.128-.284s0-.039.067-.039a.267.267,0,0,0,.128-.24c-.089-.078-.067-.162.061-.24a.83.83,0,0,0,.251-.145.9.9,0,0,1,.256-.139l.061-.123a.457.457,0,0,0,.128-.362v-.1l-.061-.084c-.045,0-.045-.067,0-.117a.446.446,0,0,0,.189-.323.217.217,0,0,1,.128-.2,1.053,1.053,0,0,0,.44-.557c0-.084.045-.123.128-.123.167-.078.256-.173.256-.284s.039-.078.123-.078l.256-.084a.234.234,0,0,1,.156,0,.217.217,0,0,0,.162,0h.061c.045.056.128.056.256,0a.351.351,0,0,1,.318,0l.123.039a.947.947,0,0,1,.507.123l.195.084a1.32,1.32,0,0,1,.379.078l.251.039a.669.669,0,0,1,.351,0,.8.8,0,0,0,.223.061,2.011,2.011,0,0,0,.886.162,1.237,1.237,0,0,1,.891.162l.312.117.256.084.635-.045h.189a2.268,2.268,0,0,1,.557,0h.663c.128,0,.189,0,.189-.039a.318.318,0,0,1,.318,0l.635.123h.128a1.749,1.749,0,0,1,.379-.039h.318a1.081,1.081,0,0,1,.7.162.457.457,0,0,0,.189.078,1.52,1.52,0,0,1,.557-.078h.061l.446-.084h.156a.39.39,0,0,1,.223,0,1.67,1.67,0,0,1,.379.162.306.306,0,0,0,.384-.039l.061-.084.189.123a.351.351,0,0,1,.446,0l.251.123a.758.758,0,0,1,.384-.162.44.44,0,0,1,.379,0h.128a.556.556,0,0,1,.251,0,.674.674,0,0,0,.256,0,.312.312,0,0,1,.156.056.384.384,0,0,0,.223.061c.039,0,.061,0,.061.039s0,.056.067.084a.452.452,0,0,1,.251-.084v-.011c-.084.05-.061.078.067.078a3.55,3.55,0,0,0,.557-.039,3.5,3.5,0,0,1,.557-.039l.128-.045a.356.356,0,0,1,.446-.078s0,.039.061.039a.217.217,0,0,1,.256,0,.15.15,0,0,0,.128,0,.139.139,0,0,1,.123,0c0,.056.045.084.128.084l.128-.084c.039-.078.145-.106.318-.078a.59.59,0,0,0,.251-.039c.084,0,.128,0,.128.039a.262.262,0,0,0,.189.1.446.446,0,0,1,.189.061h.128a1.443,1.443,0,0,1,.446-.084l.507-.039H36.6a.284.284,0,0,0,.189,0h.189a.306.306,0,0,1,.256.045l.128.039a1.359,1.359,0,0,0,.189.1.752.752,0,0,0,.318.061.351.351,0,0,0,.189-.045s0,.045.061.045a.339.339,0,0,0,.189-.045.134.134,0,0,1,.128,0l.256.123c.039-.162.167-.2.379-.123.084,0,.128,0,.128-.039h.318c0,.056.039.056.128,0a.78.78,0,0,1,.44-.078.167.167,0,0,0,.128-.039.329.329,0,0,0,.156-.061c.067-.039.117-.05.162,0a.939.939,0,0,1,.189.039.9.9,0,0,1,.189.084,3.051,3.051,0,0,1,.507-.084h.318a1.715,1.715,0,0,0,.379-.039c.084-.056.128-.039.128.039l.061.084a.036.036,0,0,0-.028.061c.022.017.05,0,.095,0l.128-.039c.167-.084.251-.056.251.078s0,.084.067.084a.852.852,0,0,1,.345-.145,4.118,4.118,0,0,1,.412,0,.446.446,0,0,1,.318.117.117.117,0,0,0,.095-.039.5.5,0,0,1,.095-.078v-.022c0-.028.045-.067.128-.123a.206.206,0,0,1,.156,0,.223.223,0,0,0,.162,0l.061.039a.446.446,0,0,1,.061.279.607.607,0,0,0,.318,0c-.039-.05,0-.078.067-.078a.278.278,0,0,0,.189,0,.29.29,0,0,1,.189,0c.084.056.15.056.189,0a.345.345,0,0,1,.162-.039h.6c0-.028.039-.039.128-.039a.189.189,0,0,0,.251-.039.29.29,0,0,1,.256.039c0,.056.039.078.123.078a.1.1,0,0,0,.095-.039q.033-.045.1,0a.6.6,0,0,0,.557.039,1.343,1.343,0,0,1,.635,0,1.274,1.274,0,0,1,.251,0,.556.556,0,0,0,.256,0,.34.34,0,0,1,.189,0,.472.472,0,0,0,.128,0,1.22,1.22,0,0,0,.507-.117c.084,0,.123,0,.123-.045.128,0,.195,0,.195.084-.089.056-.089.078,0,.078s.123.056.123,0a.284.284,0,0,1,.195,0,.59.59,0,0,0,.312,0h.128a2.965,2.965,0,0,0,.557.084h.123q.318,0,.384.117c.084.056.145.056.189,0a3.45,3.45,0,0,1,.557-.039h.256a.557.557,0,0,0,.44,0h.067a.256.256,0,0,0,.223,0,.279.279,0,0,1,.156-.061c.045-.028.072-.033.095,0a.216.216,0,0,0,.095,0,.64.64,0,0,0,.223.061.668.668,0,0,1,.223.056.4.4,0,0,0,.189.084.379.379,0,0,0,.256,0,.663.663,0,0,1,.379-.123l.345-.078.29-.084a.117.117,0,0,0,.095-.039.1.1,0,0,1,.095-.039c.084,0,.128.039.128.117l.189.084.061.078c-.045,0-.05.067-.033.123a.089.089,0,0,1,0,.123s0,.039-.067.039a.1.1,0,0,0-.095,0h-.095a1.4,1.4,0,0,0-.7,0H55.48a1.638,1.638,0,0,0-.7.078l-.067.039c0,.056.045.084.128.084a1.114,1.114,0,0,1,.507.078.424.424,0,0,1,.156.045.2.2,0,0,0,.162,0l.128.039.061.078a.106.106,0,0,0,.128,0c.039,0,.061,0,.061-.039a.2.2,0,0,1,.189-.162.446.446,0,0,1,.256-.078l.061.117q.067.084.318.084h.061a.5.5,0,0,0,.256,0,.284.284,0,0,1,.189,0s0-.039-.061-.039a.267.267,0,0,1-.128-.039c.167-.111.212-.206.128-.284V107.5c.123-.056.212-.067.251-.045a.474.474,0,0,0,.189.061.245.245,0,0,1,.189.145c0,.05.045.05.128,0s.067,0,.067-.045a.193.193,0,0,1,.061-.162l.318-.117.061-.084c0-.05.033-.089.095-.117a.306.306,0,0,1,.223,0c.084.05.128.05.128,0a.184.184,0,0,1,.156-.084h.351a.351.351,0,0,1,.251.056c-.039,0-.05.05,0,.061s.05,0,.095,0a1.22,1.22,0,0,1,.507-.045l.635-.039.44.039h.195l.061.045h.123l.251-.084a2.022,2.022,0,0,1,.891-.162,1.565,1.565,0,0,1,.557.045.312.312,0,0,1,.156.056.184.184,0,0,0,.223,0,.847.847,0,0,1,.446.039.162.162,0,0,1,.095,0,.206.206,0,0,0,.095,0c.167,0,.212.039.128.123l.128.039c.039,0,.061,0,.061.039s.045,0,.128,0c.039.084.106.095.189.045s.128,0,.128-.045a.273.273,0,0,1,.189,0c.128.084.167.139.128.162a.06.06,0,0,1-.067,0h.067a.5.5,0,0,0,.284.084.267.267,0,0,0,.223-.084c.084-.05.123-.106.123-.156a.379.379,0,0,1,.256-.123.1.1,0,0,0,.095,0,.15.15,0,0,1,.095,0l.061-.123a.2.2,0,0,1,.256-.039.713.713,0,0,0,.318.039.413.413,0,0,1,.251.084c0,.078,0,.117-.061.117s-.128,0-.128.084.056.056.033.078,0,.039.033.039a.557.557,0,0,1,.189.061.306.306,0,0,0,.251,0H68.1a.367.367,0,0,0,.195.039.947.947,0,0,1,.507-.123h.189a.212.212,0,0,0,.251,0c.173-.106.256-.184.256-.24s.145-.134.318-.078a.1.1,0,0,0,.123,0c0-.056.045-.056.128,0l.067.117H70.2s0-.039.061-.039.045.072.128.139a.3.3,0,0,1,.128.223s0,.039-.067.039h-.312a2.969,2.969,0,0,1-.557.084.4.4,0,0,0-.189.039c0-.056,0-.078-.061-.078s-.106.05-.189,0c0,0,0-.045-.067-.045v.084c0,.028.045.039.128.039s.072-.033.095,0a.206.206,0,0,0,.095,0l.256.24c0,.028.028.05.095.061a.212.212,0,0,0,.156,0l.128.039c.084.05.145.05.189,0a.306.306,0,0,0,.223,0,.156.156,0,0,1,.156,0,.111.111,0,0,0,.128,0l.256-.084a.69.69,0,0,1,.379-.039.228.228,0,0,0,.223.039.49.49,0,0,1,.156-.039.106.106,0,0,0,.095-.039h.095a.306.306,0,0,0,.223,0l.156-.078a.339.339,0,0,0-.189-.045.741.741,0,0,1-.507-.162h-.123a1.264,1.264,0,0,0-.318-.039.34.34,0,0,1-.223-.078,1.112,1.112,0,0,1-.162-.162h.067a.262.262,0,0,1,.189-.1.29.29,0,0,1,.189,0,.4.4,0,0,0,.318-.039.134.134,0,0,1,.128,0,.061.061,0,0,1,.061.056.192.192,0,0,0,.128.123.942.942,0,0,1,.189.039.785.785,0,0,0,.251.039.312.312,0,0,0,.256-.078A.78.78,0,0,1,73,107.3a.418.418,0,0,0,.44-.084.436.436,0,0,1,.128-.117c.256-.028.4,0,.446.162l.061.039c-.039,0-.05.045,0,.061a.19.19,0,0,0,.095,0,.1.1,0,0,0,.123,0l.128-.078a.312.312,0,0,0,.256-.084s0-.045.061-.056a.134.134,0,0,1,.128,0,1.032,1.032,0,0,1,.189,0,.279.279,0,0,1,.189.1h.128c.212-.056.334,0,.379.078a.674.674,0,0,1,.284,0,.707.707,0,0,0,.29,0,.278.278,0,0,0,.217,0,1.113,1.113,0,0,1,.29-.039v.24c0,.056-.067.095-.195.123-.039,0-.061,0-.061.039-.084.056-.128.056-.128,0a.5.5,0,0,0-.251-.039.29.29,0,0,0-.162-.039.273.273,0,0,1-.156-.045.167.167,0,0,1-.189-.162.106.106,0,0,0-.095.045.117.117,0,0,1-.095.039.429.429,0,0,0-.318.123c0,.05-.067.078-.195.078a.217.217,0,0,0-.189,0,.139.139,0,0,1-.123,0,.368.368,0,0,0-.128,0,.713.713,0,0,0-.223-.078.3.3,0,0,0-.223,0,.708.708,0,0,1-.379-.045h-.189c-.045.056-.045.095,0,.123v.084a.557.557,0,0,0,.223.2.813.813,0,0,0,.351.078h.123a.613.613,0,0,1,.446,0h.189a2.4,2.4,0,0,1,.507-.123.34.34,0,0,1,.189.045.2.2,0,0,1,.195,0,.162.162,0,0,0,.123.061c.045,0,.067,0,.067-.039v.061l-.067-.084c0-.078.067-.106.189-.078l.128.039a.78.78,0,0,0,.446.039h.128a.608.608,0,0,1,.251.039c.084.056.15.056.189,0a1.417,1.417,0,0,1,.189-.078.406.406,0,0,0,.195-.123l.123.045c.045,0,.056,0,.033-.045s0-.039.033-.039.061.084.189.084a2.491,2.491,0,0,1,.507.039l.318.039a.4.4,0,0,1,.284,0,.73.73,0,0,0,.223.056c.084.056.145.056.189,0l.446-.156a.475.475,0,0,0,.123,0h.067a.824.824,0,0,0,.44.117.512.512,0,0,0,.29,0,.935.935,0,0,1,.217-.039.139.139,0,0,0,.095,0h.1c.045,0,0,.039.061.039s.061,0,.061-.039a.318.318,0,0,1,.318,0h.178a.969.969,0,0,0,.223-.039.49.49,0,0,1,.284,0,.256.256,0,0,0,.189,0,.279.279,0,0,1,.189,0l.067-.078h.061c.212.111.357.189.446.245a.73.73,0,0,1-.635.117.379.379,0,0,0-.256,0l-.312.245a.362.362,0,0,1-.195-.045.5.5,0,0,0-.379-.078.49.49,0,0,1-.156-.039.167.167,0,0,0-.162,0,.362.362,0,0,0-.223,0,1.809,1.809,0,0,1-.284,0,.267.267,0,0,1-.189,0,.663.663,0,0,0-.189-.039,1.448,1.448,0,0,0-.557-.045,1.342,1.342,0,0,1-.384.045.958.958,0,0,0-.345.056,2.009,2.009,0,0,1-.29.1.256.256,0,0,0,.128.045c.045,0,.045,0,0,.039a.39.39,0,0,1-.379.039.284.284,0,0,0-.256-.039c-.039,0-.061,0-.061-.039s0-.045-.061-.045l-.128.045-.128-.045a.485.485,0,0,0-.318-.056h-.251l-.128.039a.462.462,0,0,0-.067.284,2.446,2.446,0,0,1,1.142.039,2.489,2.489,0,0,0,.507.039h.256a2.417,2.417,0,0,1,.557,0c.212.056.34.045.384-.039a.329.329,0,0,1,.189-.039c.084.056.145.056.189,0a1.587,1.587,0,0,0,.223,0,.368.368,0,0,1,.223,0,.155.155,0,0,0,.123-.039.524.524,0,0,1,.446-.162,6.166,6.166,0,0,0,.763-.039.262.262,0,0,0,.123.039.228.228,0,0,1,.128.039h.05c.045-.056.089-.067.128-.039a.229.229,0,0,0,.128.039h.128c.067,0,.123-.078.251-.078a1.744,1.744,0,0,1,.256.117.5.5,0,0,0,.379.084c.045,0,.072-.033.095,0a.217.217,0,0,0,.095,0,1.114,1.114,0,0,0,.557,0l.318.039a.64.64,0,0,1,.251.162.612.612,0,0,0,.156,0,.251.251,0,0,0,.162-.1.088.088,0,0,1,.061-.078.228.228,0,0,1,.128-.039l.189.039.189.039c-.084.056-.084.095,0,.123l.128.078c.045,0,.045.056,0,.078s0,.056-.061.084a.111.111,0,0,1-.128,0,.556.556,0,0,1-.156,0,.217.217,0,0,0-.162,0,.423.423,0,0,1-.318-.039l-.189-.045c-.084,0-.128,0-.128.045s-.039.078-.123.078-.128-.028-.128-.078a.061.061,0,0,0-.033-.061H84.53l-.635.162c-.084.056-.061.111.067.162h.123a6.717,6.717,0,0,1,.824.039,4.018,4.018,0,0,0,.635-.039.346.346,0,0,1,.128,0,.156.156,0,0,0,.128,0,.189.189,0,0,1,.251-.039,2.613,2.613,0,0,1,.953.2c-.045.084-.15.123-.318.123a.457.457,0,0,1-.223,0,.612.612,0,0,0-.156,0l-.318.078a3.254,3.254,0,0,1-.8,0l-.724-.1a.757.757,0,0,0-.557.039c-.039.028-.061.028-.061,0-.128,0-.189,0-.189.039a.379.379,0,0,0-.256,0,.674.674,0,0,1-.284,0,1.809,1.809,0,0,0-.284,0l-.128.039H82.58a1.031,1.031,0,0,0-.318-.039h-.44a10.479,10.479,0,0,1-1.209-.039,1.308,1.308,0,0,0-.379.039,1.343,1.343,0,0,1-.379.084h-.351a2.323,2.323,0,0,0-.557,0h-.123l-.256-.045a1.164,1.164,0,0,0-.44,0,2.858,2.858,0,0,1-.446.045h-.128a1.671,1.671,0,0,1-.886,0h-.128a3.05,3.05,0,0,1-.507-.084h-.128a.167.167,0,0,0-.123.084h-.067a.19.19,0,0,1-.156,0h-.412a.334.334,0,0,0-.256.061l-.24.011a1.715,1.715,0,0,0-.635.123.34.34,0,0,1-.189-.045.223.223,0,0,0-.162,0h-.156c-.045,0-.067,0-.067.045s-.039.039-.123.039a1.448,1.448,0,0,0-.557-.039.718.718,0,0,1-.318-.045.3.3,0,0,0-.251.045.7.7,0,0,1-.379.039H71.69a1.548,1.548,0,0,0-.351-.061.724.724,0,0,1-.345-.1h-.128c-.045,0-.067.028-.067.078a.212.212,0,0,1-.123-.039.106.106,0,0,0-.128,0h-.095a.117.117,0,0,0-.095-.039H70.2c-.045.056-.167.078-.379.078H69.69a.813.813,0,0,1-.557-.039.4.4,0,0,0-.256,0,.4.4,0,0,1-.256,0,.273.273,0,0,1-.156.039.273.273,0,0,0-.156.045.368.368,0,0,0-.223,0h-.223l-.128.039a.747.747,0,0,1-.318.039.557.557,0,0,0-.318,0,.557.557,0,0,1-.251,0,1.326,1.326,0,0,0-.256,0H66.37a1.342,1.342,0,0,0-.412,0,.612.612,0,0,0-.156,0,.462.462,0,0,1-.223,0,2.919,2.919,0,0,0-.557.039c-.084,0-.128,0-.128-.039a.913.913,0,0,0-.446.039,1.343,1.343,0,0,1-.379.084h-.379l-.128-.039H63.53a.24.24,0,0,1-.256,0,.228.228,0,0,0-.128-.039.178.178,0,0,1-.123.039.557.557,0,0,0-.412-.084,2.306,2.306,0,0,1-.29.045.786.786,0,0,0-.251.039.5.5,0,0,1-.256,0,.635.635,0,0,1-.507.039,3.343,3.343,0,0,0-.629.078h-.067a.184.184,0,0,1-.156,0,.278.278,0,0,1-.162-.1c-.039-.056-.128-.078-.251-.078h-.067a.423.423,0,0,0-.284,0,.841.841,0,0,1-.284.061c-.084,0-.128,0-.128.078a.763.763,0,0,0,.635.245h.128a2.885,2.885,0,0,1,.557-.039.485.485,0,0,0,.379,0h.128a.485.485,0,0,0,.379,0,.262.262,0,0,1,.195,0,.284.284,0,0,0,.189,0,.117.117,0,0,1,.095.045h0s.067-.039.067,0,0,0,.061,0,.15.05.189,0a.524.524,0,0,1,.256-.045c.084.056.128.067.128.045s.072-.028.095,0,.05,0,.095,0l.128-.045a2.011,2.011,0,0,0,.758-.078h.128a.969.969,0,0,0,.446-.039c.123,0,.189,0,.189.039s0,.045.095.061.072.033,0,.061,0,.039.067.039h.061c.045,0,.067,0,.067-.061s0-.05.061,0c.212,0,.34.028.379.084s.084.078.256.078a8.868,8.868,0,0,0,.947-.078,9.761,9.761,0,0,0,1.588-.123h.156a.2.2,0,0,1,.162,0,.457.457,0,0,0,.223,0,.613.613,0,0,1,.156,0c.128-.056.212-.067.256-.039a.513.513,0,0,0,.251.039,1.3,1.3,0,0,0,.223,0,.39.39,0,0,1,.223,0c.084.056.145.056.189,0a.512.512,0,0,1,.446-.039,1.761,1.761,0,0,0,.44,0,2.964,2.964,0,0,1,.384,0,5.744,5.744,0,0,1,.824-.039h.217a.373.373,0,0,0,.223,0,.847.847,0,0,1,.446.039l.128-.039a.128.128,0,0,1,.123,0,.368.368,0,0,0,.128,0h.256a.117.117,0,0,0,.095-.045h.095c.045,0,.061,0,.061-.039s0-.039.067-.039a.44.44,0,0,1,.379,0,.1.1,0,0,0,.095,0,.161.161,0,0,1,.095,0l.318-.039a.345.345,0,0,1,.189-.039,3.175,3.175,0,0,0,.824.078,3.476,3.476,0,0,0,.557-.039,1.331,1.331,0,0,1,.379.039.635.635,0,0,0,.507-.039.245.245,0,0,1,.317-.084.5.5,0,0,0,.251.045.9.9,0,0,1,.384,0,1.081,1.081,0,0,0,.379,0c.039,0,.072-.039.095,0a.2.2,0,0,0,.095,0c.084.05.15.05.189,0a2.312,2.312,0,0,1,.557,0h.412a.351.351,0,0,0,.189-.045,6.4,6.4,0,0,1,.886-.039h.318a2.949,2.949,0,0,0,.557-.039,1.975,1.975,0,0,1,.507,0H83.1a1.6,1.6,0,0,0,.44.078.506.506,0,0,0,.128,0,.3.3,0,0,1,.189,0l.557-.039a1.075,1.075,0,0,1,.318.039.312.312,0,0,1,.217,0,.707.707,0,0,0,.29,0l1.014-.039H86.5l.446-.039q.061-.084.318,0a.222.222,0,0,1,.095,0h.095a1.241,1.241,0,0,1,.379,0,.8.8,0,0,0,.317,0l.067.045.379.039a.434.434,0,0,1,.251.078v.084a.278.278,0,0,0-.156.061l-.095.056Z" transform="translate(826.7 2435.859)"/>
    <path id="Pfad_2" data-name="Pfad 2" d="M87.148,134.948H88.6v-7.241H90v-1.276H85.744v1.276h1.4Zm-5.069,0h1.476v-7.241h1.4v-1.276H80.7v1.276h1.409Zm-2.278,0v-1.27H77.2V131.2h1.9v-1.276H77.222v-2.189h2.434v-1.276h-3.9v8.512Zm-8.222,0v-3.019l.512-.941h0l1.181,3.96h1.476l-1.766-5.336,1.565-3.175H73.1l-1.521,3.147h0v-3.147H70.125v8.511Zm-5.91-3.487a5.874,5.874,0,0,0,.746-.039l1.031,3.526h1.476l-1.231-3.855c.5-.223,1.019-.774,1.019-2.145,0-1.816-.83-2.512-2.457-2.512H64.215v8.511h1.454Zm0-3.821h.512c.785,0,1.081.3,1.081,1.309s-.3,1.309-1.081,1.309h-.512Zm-5.793,5.42h1.593l.256,1.888h1.4l-1.56-8.511h-1.8l-1.554,8.511H59.6Zm.785-4.924h0l.557,3.654h-1.17Zm-5.932,6.813v-3.487h.629c1.788,0,2.624-.7,2.624-2.512s-.836-2.512-2.624-2.512H53.275v8.511Zm0-7.308h.557c.953,0,1.242.3,1.242,1.309s-.29,1.309-1.242,1.309h-.557Zm-7.292-1.2-1.031,4.974h0l-1.031-4.974H43.449v8.511h1.259V128.3h0l1.309,6.645h.7l1.309-6.645h0v6.645h1.264v-8.511Zm-5.442,0H40.547v8.511h1.448ZM33.35,131.45a6.023,6.023,0,0,0,.752-.039l1.025,3.526H36.6l-1.225-3.855c.49-.223,1.014-.774,1.014-2.145,0-1.816-.83-2.512-2.457-2.512H31.9v8.511H33.35Zm0-3.821h.512c.785,0,1.081.3,1.081,1.309s-.3,1.309-1.081,1.309H33.35Zm-2.685,7.308v-1.27h-2.6V131.2h1.872v-1.276H28.069v-2.189H30.5v-1.276H26.6v8.512Zm-7.993,0h1.454V127.7h1.4V126.42H21.268V127.7h1.4Zm-4.807-1.888h1.593l.256,1.888h1.4l-1.554-8.511h-1.8L16.2,134.937h1.4Zm.785-4.924h0l.557,3.654h-1.17Zm-3.4,6.813v-1.27h-2.6V131.2h1.872v-1.276H12.65v-2.189h2.434v-1.276h-3.9v8.512Zm-8.45,0V131.2h1.56v3.771H9.8v-8.534H8.356V129.9H6.8v-3.465H5.348v8.511Zm-5.392,0H2.858V127.7h1.4V126.42H0V127.7H1.4Z" transform="translate(832.838 2426.642)"/>
    <path id="Pfad_3" data-name="Pfad 3" d="M62.876,31.924a.557.557,0,0,1-.134-.791c.067-.067,0-.134,0-.2a.208.208,0,0,1,.195-.195.228.228,0,0,0,.195-.067s-.061-.134.067-.067,0,.067-.067.134c-.195.4-.195.462.2.724v.067c-.4.195-.4.195-.457.4m2.785-6.584a.067.067,0,0,1-.067-.067v-.134c-.262-.061-.128-.262-.195-.39a1.9,1.9,0,0,0-.262-.791A.379.379,0,0,1,65.2,23.7l.39-.4.195-.2c.067-.262.2-.329.4-.462a1.671,1.671,0,0,0,.39-.323,2.267,2.267,0,0,1,.652-.462,2.752,2.752,0,0,0,.524-.4c.067-.134.262-.2.457-.262a2,2,0,0,0,.4-.2c.134-.067.195-.262.323-.195.262-.134.462-.134.59-.4.067-.067.067-.134.128-.134a1.532,1.532,0,0,1,.524-.128.512.512,0,0,0,.524-.134.557.557,0,0,1,.457-.067c0,.067.067,0,.134,0,.39-.134.78-.329,1.242-.462.061,0,.061,0,.128.067h-.067a3.549,3.549,0,0,0-.524.791c-.061.067-.195.067-.195.134a.34.34,0,0,0-.128.262c-.067.067-.195.134-.195.195a.507.507,0,0,0-.134.267c-.067.195-.195.262-.323.39a9.9,9.9,0,0,0-.785.858c0,.067-.067.134-.067.262v.067c-.262.067-.195.4-.39.529s0,.128,0,.195.061.067.128.134c-.067.128-.195.067-.262.128s-.128-.061-.195,0c-.067.2-.262.2-.329.329s-.262.134-.39.2a1.064,1.064,0,0,1-.329.262,1.61,1.61,0,0,1-.914.4c-.067,0-.128,0-.128.067a.261.261,0,0,1-.329.195,1.738,1.738,0,0,1-1.047-.067.1.1,0,0,0-.128,0c-.067.067-.067.134-.134.134s-.061.067-.128.067M74.7,3.092c-.2-.067-.134-.262-.134-.4s0-.061.067-.128c0,.067.067.067.128.067a.3.3,0,0,1,.067.39.212.212,0,0,0-.128.067M63.857,21.585a.24.24,0,0,1-.134-.061.557.557,0,0,1,.134-.462c.061,0,.061,0,.128-.067s-.128-.195,0-.262.128-.134.195-.2a.24.24,0,0,0-.067-.195c-.061-.067,0-.195-.061-.329a.641.641,0,0,1,.128-.557c.067-.061.134-.128.067-.195,0-.262,0-.262.262-.4,0-.262-.329-.195-.4-.4a.067.067,0,0,1,.067-.067h.195c0-.067.067-.195,0-.262v-.128a.323.323,0,0,1,.067-.462c.067-.067.067-.134.067-.267-.067,0-.067-.128-.067-.128a.217.217,0,0,1,0-.329c.262-.067.195-.329.195-.462a1.741,1.741,0,0,0,0-.59A.067.067,0,0,0,64.7,15.7a.557.557,0,0,0,.128-.462v-.329c0-.262.2-.329.262-.524,0,.061.067.061.067-.067.134-.329.134-.657.262-.986,0-.134.067-.267-.067-.4s0-.067,0-.134.134-.134.195-.134a.234.234,0,0,0,.262-.262c.067-.128.134-.262,0-.4s-.128-.262.067-.4a.613.613,0,0,0,.134-.457c0-.134,0-.2.061-.2s.2-.134.134-.195c-.134-.2-.067-.329,0-.529a5.013,5.013,0,0,0,.457-.791,2.4,2.4,0,0,0,.29-.535.206.206,0,0,1,.067-.134,7.746,7.746,0,0,0,.457-.719,4.8,4.8,0,0,1,.323-.6c.067-.128.067-.195.195-.262s.067-.2.134-.262a1.949,1.949,0,0,0,.128-.663c0-.128.2-.262.329-.329a.145.145,0,0,0,.134-.128.557.557,0,0,1,.195-.329.925.925,0,0,0,.323-.657c0-.067.067-.067.134-.134a.965.965,0,0,0,.195-.262.407.407,0,0,1,.262-.4c.067,0,.067-.2.195-.2.067-.195.262-.262.39-.4a.854.854,0,0,1,.329-.195V3.158a8.388,8.388,0,0,1,.852-.524c.061-.067.195-.134.195-.2s.067-.128.128-.195a2.585,2.585,0,0,1,.719,0c.134,0,.195.128.262.195s.134.2.195.134.134,0,.134.067c0,.262.262.329.39.457h.022l.195-.128c0,.061,0,.128.134.195s.128.134.195,0h.061a.234.234,0,0,0,.067.134l-.195.195c-.195.2-.195.2-.067.4a.067.067,0,0,0,.067.067c.262-.067.262-.462.524-.557.128.067.067.2.067.329a.83.83,0,0,0,0,.791c.061,0,.128,0,.128-.067s0-.128.067-.061l.128.128c-.195.067-.061.2-.061.329a.492.492,0,0,0,.128.329c.067.061.067.067,0,.067s-.067.267-.067.329-.061.2.067.262.128.134.067.267a.941.941,0,0,0,.128.4v.128a.557.557,0,0,0,0,.462v.162a.941.941,0,0,0,.067.457c.067.067.067.067.067.134s0,.2.061.2a1.158,1.158,0,0,1,.134.457c.067.134.128.2.067.329s0,.067,0,.134c.195.067.195.262.195.4s.128.329,0,.524a.557.557,0,0,0,0,.462c.067.134,0,.262-.067.4a.387.387,0,0,0-.067.262.485.485,0,0,0,.067.329.245.245,0,0,1,.067.2c0,.061,0,.128-.067.061a.382.382,0,0,0-.262-.061c-.067,0-.195,0-.195.128a.7.7,0,0,0,.067.329c-.067.067-.2,0-.2.067-.128.067-.128.2-.128.329s.262.329.262.529c-.134.067-.262,0-.195.195a.485.485,0,0,1-.134.329,1.008,1.008,0,0,0-.262.6c0,.195-.061.4-.061.59s-.2.262-.262.462a1.158,1.158,0,0,1,0,.462,5.013,5.013,0,0,1-.262.524c0,.067-.067.134,0,.195s0,.134-.067.134l-1.114.4a1.387,1.387,0,0,0-.719.262.206.206,0,0,1-.134.067c-.195,0-.323.134-.524.195a2.167,2.167,0,0,1-.914.4.6.6,0,0,0-.524.267c-.061.067-.061.067-.195.067a.925.925,0,0,0-.557.39c-.067.134-.262.2-.262.4s-.262.2-.262.4l-.067.067c-.128,0-.262.134-.39.195s-.067,0-.067-.061-.134-.134-.262-.067-.329,0-.457.128a5.57,5.57,0,0,0-.652.557c-.134.134-.262.195-.4.134a.479.479,0,0,0-.323.128c-.067.067-.134.2-.262.262a1.671,1.671,0,0,1-.462.267,2.5,2.5,0,0,0-.719.329c-.128.128-.323.128-.39.329,0,.067-.067.067-.128.067a1.356,1.356,0,0,0-.457.061m-5.3,30.642c.134,0,.262-.061.4,0s.128.067.128,0a.306.306,0,0,1,.195-.329.329.329,0,0,0,.134-.262.228.228,0,0,1,.067-.195c.256-.067.256-.067.39-.329.067-.067.195-.2.195-.267s.195-.061.195-.128v-.4a1.275,1.275,0,0,0,.067-.462c.195-.195.524-.329.59-.724,0-.067.061-.067.061-.134.2-.061.2-.061.067-.262.067,0,.134-.067.195-.067a.251.251,0,0,1,.2.067c.067.067,0,.067.061.067a1.114,1.114,0,0,1,.4-.4.195.195,0,0,0,.128-.262c0-.067.067-.067.067-.134.195-.128.128-.329.128-.524l.067-.267c0-.128.128-.329.067-.457a1.159,1.159,0,0,1-.067-.925c0-.195-.067-.262-.067-.4s.134-.195.134-.329v-.061a1.588,1.588,0,0,1,.195-1.32c0-.061.128-.195,0-.329a.234.234,0,0,1,.067-.195.557.557,0,0,0,.128-.329c.134-.134,0-.329.067-.462a.646.646,0,0,0,0-.6v-.195c.067-.262.067-.524.128-.791a.635.635,0,0,0-.195-.657c-.067-.067-.128-.128-.128-.195s.061-.067.128-.067h.134v-.067a1.019,1.019,0,0,1,.256-.457c.134-.134.329-.4.067-.6a.39.39,0,0,1,.067-.262.167.167,0,0,0,.067-.262.557.557,0,0,1-.2-.6c0-.128-.128-.262-.128-.457a.245.245,0,0,1-.067-.2c.067-.067.067-.067.134-.067s.061,0,.061.067.067.134.134.067a.34.34,0,0,0,.128-.262v-.267c-.061-.061-.195.067-.195,0-.067-.195-.262-.262-.195-.457v-.4c.067-.262.067-.6.329-.724.061,0,.061-.067.128-.134v-.067c-.128,0-.128-.061-.128-.061.061-.134,0-.2-.134-.2,0-.067-.067,0-.128-.067a.513.513,0,0,0,.061-.262l.134-.134c0-.061,0-.128.128-.128s.134,0,.134-.134a.953.953,0,0,0-.134-.4c-.128.134-.262.2-.323.329s-.134.067-.134,0-.195-.128-.195-.262v-.262a.418.418,0,0,1,0-.4c.067-.134.195-.2,0-.329a.067.067,0,0,1-.067-.067c.134-.134.067-.262.067-.4.067.067.195.067.262.134a1.253,1.253,0,0,1,.329.724c0,.067,0,.128.061.128s.134-.061.134-.195v-.134c0-.128-.067-.262.128-.329h.067c-.128-.128,0-.262-.195-.329a.067.067,0,0,1-.067-.067c.067-.128-.067-.262,0-.4a.239.239,0,0,1,.067-.195.68.68,0,0,0,.329-.524c-.067-.2,0-.267,0-.4s.128-.134.061-.2a.941.941,0,0,1-.457-.134c-.128-.061-.262-.061-.39.134,0-.262-.195-.462.128-.657a.362.362,0,0,0,.4.262c-.067-.128.128-.262.061-.4-.061,0-.061.067-.128.134s0,.067-.067,0-.067-.067,0-.134l.067-.061a.245.245,0,0,0,.067-.2l.061-.262c.067-.067.134.067.2,0,.061-.262.195-.4.061-.657a.4.4,0,0,1,.067-.267c.128.067.195,0,.262.067a.2.2,0,0,1,0,.262h.067a.473.473,0,0,0,.39.4.5.5,0,0,1,.524.329.145.145,0,0,0,.128.134.362.362,0,0,1,.329.2h.156a2.228,2.228,0,0,1,.785.457c.134.067.195.134.329.067s.128-.067.128.067.067.128.134.067.195,0,.262.061.195,0,.262-.061.195,0,.256-.067.2,0,.262-.067a.193.193,0,0,1,.262-.067c.128.067.262.134.4,0,.128.134.195,0,.323-.067a1.114,1.114,0,0,1,.59-.195.29.29,0,0,0,.329-.067,6.161,6.161,0,0,1,.914-.195c.195-.067.39-.067.557-.134a2.4,2.4,0,0,0,.59-.262.234.234,0,0,0,.195-.067,2.228,2.228,0,0,0,.914-.329,2.072,2.072,0,0,1,.457-.329,6.288,6.288,0,0,0,.59-.262c.195-.134.329-.329.59-.4s.323-.2.518-.2a4.217,4.217,0,0,0,1.114-.785,2.629,2.629,0,0,1,.78-.663c.2-.262.524-.4.719-.724,0-.067.134-.067.2-.128a.2.2,0,0,1,.128-.067,4,4,0,0,0,.657-.925l.195-.329c0-.061.061-.061.128-.128a.312.312,0,0,0,.262-.4c0-.134,0-.2.134-.2s.128-.061.128-.195a.657.657,0,0,1,.262-.462c0-.061.067-.061,0-.128a.557.557,0,0,1,.128-.462l.2-.59a1.3,1.3,0,0,1,.262-.724c-.134-.067.061-.134,0-.2a1.114,1.114,0,0,1,.195-.791l.128-.329c.067-.262.067-.524.134-.791a4.821,4.821,0,0,1,.128-.524c.067-.067,0-.134,0-.195,0-.4.134-.663.457-.724a.557.557,0,0,0,.524-.4c.067-.134.195-.2.128-.267-.061-.195,0-.262.134-.4a.212.212,0,0,0,.067-.128c-.2,0-.262-.134-.4-.262a.368.368,0,0,0-.323-.134h-.134c-.067.067-.128,0-.128-.134v-.657c.061-.195,0-.462.128-.657V13.82a2.156,2.156,0,0,1,0-.657.618.618,0,0,0,0-.59v-.2c0-.128.067-.329,0-.457s0-.334,0-.529-.128-.262-.067-.462a1.159,1.159,0,0,0-.195-.785.407.407,0,0,1,0-.462c0-.067,0-.067.067-.134s-.067-.329-.195-.4-.195-.128-.067-.195,0-.134.067-.2-.134-.061-.195-.128a.206.206,0,0,0,.061-.267c-.061-.262-.195-.524-.061-.785a.423.423,0,0,0-.067-.462c-.067-.067-.067-.134,0-.262s0-.2-.067-.329c-.195-.134-.262-.4-.39-.663.067-.323-.262-.59-.329-.919l-.128-.128a2.111,2.111,0,0,1-.59-.462c-.067-.2-.262-.4-.329-.6a2,2,0,0,0-.323-.39A3.927,3.927,0,0,0,78.49,2.8c-.067-.067-.067-.195-.195-.195a3.754,3.754,0,0,1-.758-.635,6.62,6.62,0,0,0-.652-.657c-.067,0-.134-.067-.195-.067-.2,0-.2,0-.329-.128a.345.345,0,0,1-.134-.262c-.061-.067-.128-.2-.256-.2s-.134-.128-.2-.195-.128-.134-.195-.134S75.448.4,75.382.4a.351.351,0,0,1-.524-.134C74.73.195,74.663.134,74.6.195a.485.485,0,0,1-.39-.128l-.067.067c-.067.061-.067-.067-.067-.067a.2.2,0,0,0-.128.067c-.067.067-.067,0-.134,0A1.487,1.487,0,0,0,73.293,0a5.615,5.615,0,0,0-1.047.134c-.195,0-.39-.067-.59.061a.434.434,0,0,1-.39.267c-.128.195-.39.262-.59.4a.2.2,0,0,1-.262.061c-.061-.061-.128,0-.128.067s-.128.134-.262.067a.234.234,0,0,0-.195.067,2.507,2.507,0,0,1-.719.329,2.4,2.4,0,0,0-.914.657,5.4,5.4,0,0,1-.785.557,2.942,2.942,0,0,0-.457.457,1.493,1.493,0,0,1-.195.329.345.345,0,0,0-.134.267.373.373,0,0,1-.195.329c-.128.061-.195.128-.128.195a.223.223,0,0,1,0,.329,1.849,1.849,0,0,0-.4,1.315v.4a.206.206,0,0,1-.067.134.306.306,0,0,0-.195.329h-.067c-.061,0-.061,0-.061-.067V6.612a1.916,1.916,0,0,0-.134-.858.212.212,0,0,1,0-.262c0-.134.067-.267-.061-.4-.067,0-.067-.067-.067-.134.128-.128.067-.128,0-.195-.262-.2-.457-.4-.652-.557l-.2-.134c-.061-.061,0-.195-.195-.195s-.128-.195-.262-.195-.061,0-.061-.067a.067.067,0,0,0-.067-.067.1.1,0,0,1-.134,0,.24.24,0,0,0-.262-.195l-.39-.2c-.128,0-.262-.195-.39-.262l-.524-.2a2.044,2.044,0,0,0-.59-.128.379.379,0,0,1-.457-.067c-.128,0-.195-.067-.262-.067a.9.9,0,0,1-.557-.067.351.351,0,0,0-.2-.061.245.245,0,0,0-.061.195c-.134,0-.2-.134-.262-.134H59.6c0-.195-.195-.195-.262-.262a6.684,6.684,0,0,0-1.632-.4,1.114,1.114,0,0,1-.785-.195c-.061-.134-.195-.067-.256-.067a3.119,3.119,0,0,1-.847-.067.306.306,0,0,0-.4.067c0,.067-.061.067-.128.067a1.415,1.415,0,0,0-.39.128.362.362,0,0,0-.262.4l-.067.267c0,.128.067.262,0,.39a.206.206,0,0,0,.067.134v.134c-.134.128,0,.262.061.329s.067.329.2.4a.351.351,0,0,1,.356.212,3.181,3.181,0,0,0,.195.724,1.4,1.4,0,0,1,0,.557,1.186,1.186,0,0,0-.128.919c0,.134.067.195.067.262a.262.262,0,0,0,.128.4c-.067.067-.195.134-.195.262s.067.2-.067.334-.195.128-.067.262.134.262,0,.329a.256.256,0,0,0-.061.195.379.379,0,0,1-.067.262c-.067.067-.067.134-.067.267a1.209,1.209,0,0,1-.061.657c0,.134-.067.329.128.4a.234.234,0,0,1,.067.195c0,.134-.134.2-.067.267.128.195.067.262-.067.39v.2a10.7,10.7,0,0,0-.195,1.381v.1a.7.7,0,0,0,0,.524c.067.134.134.329-.067.462-.061,0-.061.067-.061.134l.061.457c0,.2.134.4-.061.557v.724a1.147,1.147,0,0,0,.262.657c-.067.067-.2.128-.2.262.067.262-.128.4-.195.529a.234.234,0,0,0-.067.195c.134.134.067.329,0,.462a.579.579,0,0,0-.061.329v1.114a.9.9,0,0,0,.061.4c.067,0,.134.128-.061.195-.067,0-.067.067,0,.067s0,.134,0,.262v.329a.273.273,0,0,0,.128.267c.067,0,.067.128,0,.195,0,.195-.067.329-.067.557a1.114,1.114,0,0,1,.067.457.557.557,0,0,1-.128.462.306.306,0,0,0-.067.4c.067.195.067.195,0,.329a.2.2,0,0,0,0,.262c.067.262-.067.462,0,.724-.128.067,0,.2,0,.262a.618.618,0,0,0,0,.663c.067.061.067.061,0,.128v.2a.217.217,0,0,1,0,.329.39.39,0,0,0,0,.457.206.206,0,0,1,0,.267c-.067,0-.067.061-.067.128.134.067.067.2.067.329a.2.2,0,0,0,0,.267v.128c-.067.2,0,.4-.128.6,0,.061-.067.061,0,.061a.262.262,0,0,1,.061.2.312.312,0,0,0,0,.329c.134.134,0,.262.067.329s0,.067-.067.134-.061.128,0,.262.134.134,0,.195c0,.067.134.067.134.134s0,.4-.067.4c-.195.067-.067.134-.128.195-.067.2.061.329,0,.462,0,.262.061.59.061.925.067.128,0,.195-.061.262a.49.49,0,0,0,0,.657.223.223,0,0,1,0,.329.3.3,0,0,0,.061.329c.067.067.134.134.134.195a1.816,1.816,0,0,1-.067.6.5.5,0,0,0,0,.59c.067.2-.067.2-.128.262s-.134.067-.067.267v.067c-.134.262-.067.524-.134.785.134-.067.2-.067.262-.128s0-.134.067-.067a.139.139,0,0,1,.128.128c0,.134.067.2.067.334v.128a.123.123,0,0,1-.195,0c-.067,0-.128-.128-.195-.067a.345.345,0,0,0-.134.267v.657c.067.128.067.262.2.4a.24.24,0,0,1,.061.128,1.972,1.972,0,0,1-.061.6.9.9,0,0,0,0,.59.524.524,0,0,1,.061.262c-.061.067,0,.134,0,.2a.49.49,0,0,1,.134.262c-.195.067-.262.134-.134.262a.746.746,0,0,1-.061.4c-.067.134-.2.329-.134.462.134.262,0,.59.134.919-.134.2,0,.462-.067.724,0,.067-.067.134,0,.134.128.128.067.262-.067.329a.234.234,0,0,0-.067.195c0,.2.134.329.134.557.067.067.067,0,.128,0a.234.234,0,0,1,.195.128c-.195.2,0,.334,0,.462s.134.4-.128.4a.067.067,0,0,0-.067.067c-.128.134,0,.262-.061.4s.128.128.195.195a.24.24,0,0,1,.061.2c0,.195.134.262.262.329s.067.067.067.128a1.443,1.443,0,0,1-.1.44,1.337,1.337,0,0,1-.518.262c-.067.067-.134.067-.134.134h.134c.061-.067.128,0,.195.067s.128.195.262.262.061.134.061.195v.134a3.56,3.56,0,0,0,.4.524c.061.067.061.134.061.267a.507.507,0,0,0-.061.657.212.212,0,0,1,0,.262.39.39,0,0,0-.067.262c.067.134,0,.134,0,.2-.128.524.128.791.524.791a.128.128,0,0,0,.195-.067c0-.134.067-.2.067-.329s-.134-.134,0-.134.067.067.128.134a.234.234,0,0,1,.067.128.373.373,0,0,0,.39.4c.067.067.134.134.134.2a2.785,2.785,0,0,1,.323.791c0,.061,0,.128.067.128s.067.134.134,0v-.067c.128,0,.128.2.323.134,0-.067.134.067.134.195v.2a.624.624,0,0,0,.39.657l.067.067a1.51,1.51,0,0,0,.585.128m-14.661-4.8h.067c.128-.067.262-.067.329-.134s0-.128.061,0a.067.067,0,0,0,.067.067l.256-.039a.067.067,0,0,0,.067-.067l-.067-.089-.557-.2c-.061,0-.061-.067-.128,0a.284.284,0,0,0-.067.462M43,42.585a.067.067,0,0,1-.067-.067v-.134c.067.067.134.067.134.134s0,.067-.067.067m-.089-1.365a.59.59,0,0,1-.195-.4.245.245,0,0,0-.067-.2c0-.128-.061-.195.067-.262-.067-.2.134-.2.195-.329-.128-.067-.195-.134-.195-.262s-.067-.329.195-.4c.067,0,.134.128.134.262v.067c.067.134,0,.195-.134.262v.067c.134.067,0,.262.2.262.061.067.061.2.195.262s.061.067,0,.134a.234.234,0,0,0-.067.134.668.668,0,0,0-.329.4m9-4.233a.145.145,0,0,0-.134-.128c-.195,0-.128-.134-.128-.267a.3.3,0,0,0,.39.067c0-.067.067-.067.067,0a.128.128,0,0,1,0,.2c-.067.067-.067.195-.195.128m-9.782-.724c-.2.067-.2-.061-.329-.128.067,0,.128-.2.195-.2ZM43,33.1a.407.407,0,0,1-.128-.462.641.641,0,0,1,.061-.329c.134.067.2.2.329.2s.195.128.195.262a.067.067,0,0,0-.067.067c-.061,0-.061,0-.061-.067-.134-.067-.262-.067-.262.067v.134c0,.061,0,.128-.067.128m.134-1.315a.847.847,0,0,1-.329-.724c0-.195.067-.329.067-.557a.128.128,0,0,1,.195,0c0,.067.067.134.067.2s.061.195.061.262.067.067.134.067.195,0,.195.067a.557.557,0,0,1-.156.646c-.061.134-.128.134-.256.067m.518-1.448c-.128-.067-.195-.262-.128-.262.262-.2.195-.4.195-.6V29.45a.067.067,0,0,1,.067-.067,1,1,0,0,1,.067.852c-.067.067-.067.2-.2.134M42.517,50.378a.8.8,0,0,1,.39-.067.93.93,0,0,0,.4-.134c.128-.061.262.067.39,0a5.57,5.57,0,0,0,1.771-.6c.128-.134.262-.262.39-.262l.134-.134c.128-.262.39-.4.518-.59s.462-.2.59-.4c0-.067.067-.067.128-.067.262-.067.4-.4.657-.524.067-.067.067-.2.128-.267s.067-.262.195-.262a.969.969,0,0,0,.2-.284c.128-.4.557-.724.78-1.114.067,0,.067,0,.134-.067a.836.836,0,0,0,.457-.657c0-.134.128-.2.195-.329s.067-.134.134-.262a.518.518,0,0,0,.195-.557.663.663,0,0,0,.061-.195c.067,0,.067-.067.134-.134.128-.195.195-.462.329-.657,0-.067,0-.067.061-.134.195-.128.195-.4.262-.59a.557.557,0,0,1,.067-.329.5.5,0,0,1,.128-.262.953.953,0,0,0,.134-.4c-.067-.134.128-.2.128-.267V40.78a.29.29,0,0,1,.067-.329c.067-.134.195-.267.067-.462l.061-.067.134-.195c.128-.2.128-.4.262-.6a.557.557,0,0,1,.195-.59.067.067,0,0,0,.067-.067c-.134-.262.061-.462.128-.657.067-.067.134-.067.134-.134a.629.629,0,0,1,.195-.524.4.4,0,0,0,0-.462.067.067,0,0,1-.067-.067.418.418,0,0,0,0-.4c-.067-.128.067-.195,0-.329a.407.407,0,0,1,.134-.524c.061,0,.061-.067.061-.134.067-.195-.061-.4-.195-.59.134-.067.195,0,.262,0a1.042,1.042,0,0,1,.329-.262.245.245,0,0,0,.067-.2c-.134-.195,0-.195.128-.195s.128-.067.067-.134a.245.245,0,0,1,.061-.195c.134-.134.067-.2,0-.267l-.128-.128a.719.719,0,0,1,0-.529c.067-.134.128-.134.195-.262a.345.345,0,0,0,.134-.262c0-.134,0-.329.128-.4s.067,0,.067-.067-.067-.134-.067-.2.134-.128.067-.262a.089.089,0,0,0-.011-.106.418.418,0,0,0-.329-.329c-.128-.067-.195-.134-.323-.067s-.067.067-.067,0-.195-.134-.329-.2-.128,0-.262.067h-.067a.2.2,0,0,0-.195-.195.507.507,0,0,0-.195.457.4.4,0,0,1-.067.267,2.952,2.952,0,0,0-.128.724c.067.061,0,.128,0,.195a.707.707,0,0,0-.067.724c.134.134.067.329-.195.4-.134.067-.195.195-.262.4v.195c0,.067.067.067.128.067s.134.067.067.134.067.195.134.195.128.067.128,0c.134-.067.195-.262.329-.329s-.067-.195,0-.262a.234.234,0,0,0-.067-.134c-.067-.134.067-.262.067-.4s.128-.067.195-.067a.78.78,0,0,0,.329-.329c.128.134,0,.267,0,.4v.4a1.058,1.058,0,0,1-.134.329v.067a.306.306,0,0,1-.195.329.245.245,0,0,0-.067.2c.067.061.134.128.067.195s-.067.195-.067.4c.067.067,0,.195,0,.329s-.067.195-.128.195l-.195.2c0-.2,0-.2-.2-.262a.178.178,0,0,1-.195-.2v-.134c0-.128-.067-.128-.195-.128a.4.4,0,0,0-.39.262c0,.067-.067.134-.134.262s-.067.2-.195.267a.462.462,0,0,0-.128.262v.462c.061.061.061.128,0,.262s-.067.195-.134.329a.329.329,0,0,0,0,.462c.067.128,0,.195.067.329s-.134.128-.195.262-.134.329,0,.462c0,.128-.067.262.061.262s0-.134.067-.195a.234.234,0,0,0,.134-.067c.061-.067.195-.2.128-.267-.128-.195-.067-.329-.067-.524a.206.206,0,0,1,.067-.134c.128-.067.329-.262.524-.128l.067-.067c0-.134,0-.2.128-.2a.178.178,0,0,1,.195.2.49.49,0,0,1-.067.262,2.083,2.083,0,0,0-.128.59c0,.067.067.067,0,.134l-.251-.061c-.128.067-.067.2-.128.267l-.2.128c0,.134-.128.2,0,.329a.262.262,0,0,1-.061.2,1.532,1.532,0,0,0-.457.262c0-.195.128-.329,0-.529-.134.134-.329.067-.457.134s-.134.329-.262.462a.234.234,0,0,1-.067.134c.128.195-.134.262-.134.39-.323-.067-.39.329-.652.4-.128.329-.39.6-.323,1.053v.067c.061,0,.061.128.128.067a.123.123,0,0,1,.195,0c.067.061.134.128.262.061s.195-.061.262-.195a1.718,1.718,0,0,1,.329-.4A.061.061,0,0,1,49.9,41.2c.067.061.134.061.067.128v.329l.067.067c.067,0,.128,0,.128-.067s.067-.128.134-.067.128.067.128.2-.262.329-.39.262a.323.323,0,0,0-.4.195c-.061.134-.256.267-.128.462v.134a.68.68,0,0,1-.329.4c-.061,0-.128-.134-.262-.134s-.128-.067-.256,0c-.262-.262-.462-.067-.657.134l-.128.195c-.067.067-.067.134-.067.267a.964.964,0,0,1-.195.262c-.134.067-.195.067-.329-.067-.067.134-.323.134-.323.262s0,.134-.067.134c-.195-.067-.329,0-.329.195-.067.067-.067.134-.128.134a.473.473,0,0,0-.134.4v.128c-.262.329-.323.791-.652,1.114,0,.067-.067.134-.067.2,0,.195-.061.329-.262.329s-.262.195-.195.262.067.262.262.329.134.4,0,.462a2.039,2.039,0,0,1-.59.195c-.195,0-.323,0-.323.2,0,.061-.067.061-.134.061s-.128,0-.128-.061a1.111,1.111,0,0,0-.134-.329c-.061.067-.061.195-.195.128s-.262.067-.323.2a.145.145,0,0,1-.134.128l-.195-.195c-.128,0-.128-.067-.067-.195a1.22,1.22,0,0,0-.128-.629v-.067c0-.128-.067-.128-.134-.195s-.195-.134-.195-.195a.6.6,0,0,0,.067-.329.245.245,0,0,0,.067-.2,2.228,2.228,0,0,0-.134-.919c0-.2-.067-.4.134-.557.061,0,.128-.067.128-.195s0-.2.134-.2c0-.128.195-.195,0-.329,0-.128-.134-.329.061-.457.067-.067-.061-.2,0-.267s0-.128-.195-.067-.195-.061-.262-.195a.284.284,0,0,1,.067-.329c.067,0,.128-.067.128,0,0,.195.134.195.262.195,0-.195.195-.262.329-.457,0-.067.067-.134,0-.267v-.262a.6.6,0,0,0,.067-.329c0-.134-.067-.262.128-.329a.251.251,0,0,0,.067-.4.518.518,0,0,1-.067-.524.557.557,0,0,0-.067-.462.5.5,0,0,1,.067-.59,2.072,2.072,0,0,0,.195-.6c0-.067.067-.128.067-.195a1.76,1.76,0,0,0,.457-.724.557.557,0,0,0-.067-.462c0-.067-.323-.134-.39-.134a.5.5,0,0,0-.128.4.557.557,0,0,0,.061.267.206.206,0,0,1-.061.128c-.134.067-.2.2-.262.262-.134.2-.134.2-.262.067a.3.3,0,0,1,0-.329c0-.067.061-.067.061-.128a.457.457,0,0,0-.39.195c-.262.134-.59,0-.59-.262a.485.485,0,0,1,.134-.329c.128-.134.195,0,.262.061h.067v-.128c.061-.262.061-.262-.134-.329s-.195,0-.195-.262c.067-.067.067-.067,0-.134a.423.423,0,0,1-.134-.557.4.4,0,0,1,.2-.4c.195-.061.195-.262.128-.457a.245.245,0,0,1,.067-.2.418.418,0,0,0,0-.4,2.629,2.629,0,0,1,0-.724c.128.067.128.2.195.334s.195.061.262.128c-.067.134-.262.262-.067.462-.128.128-.061.262.067.4,0,.067-.067.195.067.195s.061,0,.061.067-.128.134-.128.195-.195.267-.067.462a.964.964,0,0,1-.061.6c-.067.128-.067.195,0,.39,0,.067.061.134.128.067h.195c.134.067.262,0,.262-.128s.195-.2.262-.329.195-.134.329-.267a.991.991,0,0,0,.195-.262c.067-.134.067-.262.195-.4s.067-.4-.128-.59c-.067-.067-.2-.067-.262-.134.128-.067.128-.195.195-.329s0-.262-.134-.262-.061-.067-.061-.134l.39-.4v.329c0,.067.067.067.128.067s.134-.128.067-.262,0-.2.067-.329.128-.067.195-.067a.234.234,0,0,0,.067-.134c-.067-.128,0-.329,0-.457a.357.357,0,0,0-.134-.267c-.067-.067-.061,0-.128.067s-.067-.067-.134-.067-.128,0-.061-.061.128-.134.061-.2c-.128-.195-.061-.262.067-.4,0-.067.067-.128.067-.195a1.359,1.359,0,0,1,.262-.724c.067-.134.067-.2.195-.262a.128.128,0,0,0,0-.2c-.195-.067-.262-.262-.39-.462,0-.061-.067-.262.061-.329s.134-.195.2-.262a1.192,1.192,0,0,0,.061-1.053c-.061-.067-.061-.067,0-.134a.724.724,0,0,0,.067-.524v-.134c.067-.067.067-.128-.067-.195a.162.162,0,0,1-.061-.262c.061-.134.128-.2,0-.267s-.067-.067,0-.128.061-.067.061-.134c-.061-.195,0-.4-.061-.59a.29.29,0,0,1,0-.329.808.808,0,0,0-.067-.557v-.134a.557.557,0,0,0,.067-.457v-.2a.234.234,0,0,0-.067-.195,6.083,6.083,0,0,0-.785-1.448l-.195-.2a3.125,3.125,0,0,0-.59-.4,2.083,2.083,0,0,1-.557-.262.356.356,0,0,0-.262-.128c-.067,0-.134,0-.134-.067a.557.557,0,0,0-.457-.2c-.061.067-.128-.128-.195.067-.067.067-.195-.067-.262-.128s-.128-.067-.195-.134-.195-.2-.329-.2a3.075,3.075,0,0,1-.78-.061.067.067,0,0,1-.067-.067.24.24,0,0,0-.195-.067c-.134.067-.262,0-.457-.067a2.228,2.228,0,0,0-.657-.067h-.128c-.067-.195-.195-.128-.329-.128a3.47,3.47,0,0,0-1.175,0,1.8,1.8,0,0,0-.847.128.652.652,0,0,0-.329.267c0,.128-.067.329.067.457s.061.2.128.267a1.671,1.671,0,0,1,.134.457v.329c.061.2-.067.462,0,.663.061.061,0,.195.061.262a.128.128,0,0,0,0,.195c.067.134.195.267.134.329a1.443,1.443,0,0,0-.262.657.5.5,0,0,0,.067.334.312.312,0,0,1,0,.329.618.618,0,0,0,0,.59c0,.067.061.134,0,.2a1.058,1.058,0,0,0-.134.657c0,.061-.067.195,0,.262s0,.134-.067.134-.089.262-.089.318a2.373,2.373,0,0,1,.061.657c0,.134-.061.195-.128.329s.128.262.067.4,0,.134-.067.195c.128,0,.067.067.128.2a.189.189,0,0,0,.067.128.128.128,0,0,1,0,.2.891.891,0,0,0-.128.4c0,.128-.067.195.061.195s0,.067,0,.067a.262.262,0,0,0-.061.2v.39c0,.134-.067.134-.2.2a.607.607,0,0,1,.067.59c-.067.067-.067.134-.067.262a.4.4,0,0,0,.067.267.123.123,0,0,1,0,.195c-.067.067-.128.2,0,.262s.067.267,0,.267c-.195.128-.128.262-.128.4a1.114,1.114,0,0,1-.067.457v.2c.128.128,0,.329,0,.457v.724a2.027,2.027,0,0,0-.067.668v.657c0,.128-.128.195-.128.329s.067.262.067.4-.134.262-.067.4.067.262-.067.329v.061c.134.134.067.334.067.557v1.448a1.582,1.582,0,0,1-.067.524v.134a.707.707,0,0,1,.067.329,5.726,5.726,0,0,0,.128,1.114c.134.134,0,.329.067.462a1.1,1.1,0,0,1,.067.457,1.131,1.131,0,0,0,.128.6c.128.2-.067.4,0,.59a6.466,6.466,0,0,1,.195,1.053,5.843,5.843,0,0,1,.2,1.053A8.355,8.355,0,0,0,37.1,47.8c.134.2.329.329.457.524a1.03,1.03,0,0,0,.462.462c.061.134.195.134.195.2a.356.356,0,0,0,.262.195c.061,0,.128.067.195.134a3.727,3.727,0,0,0,.847.524,1.253,1.253,0,0,0,.852.2,1.114,1.114,0,0,1,.457.067c.128.128.329.128.524.195A.754.754,0,0,0,42,50.239c.195-.134.262-.067.329.067a.228.228,0,0,0,.195.067M44.288,12.99c-.134-.267.128-.329.262-.4a.4.4,0,0,1,.39,0,2.785,2.785,0,0,1,.067.329h-.134c-.195-.134-.39,0-.524.067Zm.914-.557c-.067-.195-.262-.195-.4-.262a1.214,1.214,0,0,1-.323-.262l-.067-.067c.067-.067.067-.267.195-.329.195.061.195.195.195.4,0,.061,0,.128.067.061a1.938,1.938,0,0,1,.59-.061v.061c-.067.134.067.2,0,.267s-.134.067-.134.195Zm-.529-1.181s-.067,0-.067-.061.067-.067.134-.134.061.067.061.067c0,.128-.061.128-.128.128m.557-1.643c-.067,0-.134-.067-.195-.067s0-.128,0-.195a.26.26,0,0,1,.061-.2.067.067,0,0,1,.067.067c.067.134.195.2.195.329s-.061.134-.128.067m-3.342,6.779a1.22,1.22,0,0,1,.518-.067.245.245,0,0,1,.2-.067,1.816,1.816,0,0,0,.953-.262c.061-.067.061-.067.128,0s.134.067.262,0,.128-.195.262-.262.128-.134.128-.195a.145.145,0,0,1,.134-.134c.067,0,.195.067.262,0a1.56,1.56,0,0,0,.39-.529c0-.128-.067-.195-.128-.329s0-.128-.067-.128c0,.457-.067.524-.524.457,0-.128.067-.262.067-.4s-.134-.128-.134-.061-.061.061-.128.061-.134.134-.195.134a.145.145,0,0,1-.123-.128c.134-.128.195-.262.329-.329a1.409,1.409,0,0,1-.329-.262c-.128-.134-.323-.067-.39-.262h.262a.368.368,0,0,0,.39-.329c.067-.067,0-.067.067-.134a.089.089,0,0,1,.128,0c0,.134.134.2.329.262.067,0,.128,0,.128.134s0,.067.067.067a.975.975,0,0,0,.457.195.485.485,0,0,1,.134-.4c.067-.061.067-.195.067-.329l.061-.457c0-.134.195-.134.134-.267s0-.128.061-.128.134-.134.134-.2a.123.123,0,0,0,0-.195.145.145,0,0,1-.134-.156c.134-.134,0-.329.134-.462.195-.4.195-.59-.067-.785,0,.128-.067.128-.128.195V10.45c-.067-.267.061-.462.323-.4a.234.234,0,0,0,.134-.067,1.114,1.114,0,0,0,0-.791c0-.067-.067-.128-.067-.262s-.067-.2-.128-.329-.329,0-.457-.134c-.2.067-.134-.067-.067-.195V8.211c.067-.134.067-.134,0-.195s-.134-.2-.195-.2c-.067-.134-.134-.195-.134-.329-.067-.262-.067-.262-.329-.329-.128,0-.323.067-.39-.134-.067-.067-.128-.128-.195-.128s-.262,0-.262-.134-.128-.195-.262-.262a1.415,1.415,0,0,0-.524-.067.557.557,0,0,1-.557-.2c0-.061-.067-.061-.134-.128-.262-.067-.457-.267-.785-.267a.468.468,0,0,1-.256-.128.145.145,0,0,0-.134-.134c-.195.067-.457-.061-.719-.061a1.6,1.6,0,0,1-.524-.067h-.351a2.785,2.785,0,0,1-1.047.128,1.159,1.159,0,0,0-.457.134l-.657.195c-.061.067-.195.067-.256.134-.2.134-.2.262-.067.4s.128.134.128.195,0,.267.067.329a.245.245,0,0,1,.067.2,7.8,7.8,0,0,1-.061,1.264.206.206,0,0,0-.067.134c0,.59-.061,1.114-.061,1.71v1.911a6.183,6.183,0,0,1,.128,1.114v.4c0,.262.128.39.128.657.262,0,.067.195.134.262a.24.24,0,0,1,.067.195c0,.067.061.067.128.067s.134-.128.067.067a.067.067,0,0,0,.067.067c.39.262.78.724,1.37.724,0,.067.067.067.128.067a1.114,1.114,0,0,0,.785.128c.067,0,.134.067.067.134a.067.067,0,0,0,.067.067c.128-.067.195,0,.323.067s.262-.067.329.061c.262.067.524,0,.785.134M17.99,51.927V51.47h-.056c-.134,0-.195,0-.262.128a.145.145,0,0,0,.128.134c.067.067.067.195.2.195m-1.571-3.092a1.548,1.548,0,0,1-.195-.329.206.206,0,0,1,.067-.134c.061,0,.128,0,.128.067a.418.418,0,0,1,0,.4m.067-.724s.067.067-.067.067a.139.139,0,0,1-.128-.134c.061-.061.061-.061.128-.061s.067.061.067.128m11.3-.59c-.128.067-.128.128-.067.195s-.061.067-.128.067a.228.228,0,0,1-.195-.067c-.067-.067-.134-.128-.2-.067a.089.089,0,0,1-.128,0c0-.061.067-.061.067-.128h.061c.2-.067.262-.134.2-.329a.061.061,0,0,1,.061-.067c.134,0,.134-.134.2-.2H27.8v.067a.418.418,0,0,0,0,.4.1.1,0,0,1,0,.134m-11.447-.657h.067c-.067.128.067.195.067.329s-.067.195-.134.195a.437.437,0,0,1-.323-.195.8.8,0,0,1,.323-.329m3.855.128c-.061.067-.128,0-.128-.067-.134,0-.067-.061-.067-.128s0-.067.067-.134c0,.067.067.067.067.134s.128.128.061.195m-3.593-.986a.145.145,0,0,0,.134.134c.195-.067.457-.334.39-.557s-.128-.195-.128-.329a.473.473,0,0,0-.2-.4l-.195.557a.128.128,0,0,0,0,.195.1.1,0,0,1,0,.134c-.061.061,0,.128,0,.262M28.05,44.953c-.134-.134-.262-.262-.195-.462,0-.067,0-.128.061-.067s.134,0,.134.067ZM16.353,43.9c.134.134,0,.262.134.462a.145.145,0,0,1-.134.128c-.128.134-.195.067-.262-.067-.061,0-.061-.061,0-.061s.134-.2.134-.329V43.9a.067.067,0,0,1,.067-.067c.061,0,.061,0,.061.067m12.483-.329c-.134,0-.134,0-.195.067s-.134.128-.2.067a.2.2,0,0,1-.061-.267.49.49,0,0,0,.128-.4.067.067,0,0,1,.067-.067c.067,0,.067,0,.067.067s-.067.134,0,.2c.128-.067.128-.067.195.067s.061.195.128.262c-.067.067-.128.067-.128,0M26.741,41.9c-.128.134-.128.134-.128.267,0-.134-.134-.267-.134-.462a.189.189,0,0,1,.262.067c.067,0,.134.061,0,.128m1.437.329-.061.462a.178.178,0,0,1-.2.2.228.228,0,0,1,.067.195c.067.134,0,.262-.067.262a.284.284,0,0,1-.323-.061c-.067-.134-.134-.267-.067-.4a2.5,2.5,0,0,0,.067-.992c-.067-.067-.067-.067,0-.128a.468.468,0,0,1,.39-.134c.134,0,.134,0,.134-.128a.061.061,0,0,1,.061-.067c.067,0,.067,0,.067.067a2.618,2.618,0,0,1-.067.719m-1.565-1.114c.067.067.128,0,.128.128s0,.134-.128.134-.067-.067-.067-.134,0-.128.067-.128m1.175-.6c-.067-.061-.128-.061-.128-.195s.061-.2.256-.262c.067.061,0,.128,0,.262s0,.195-.128.195m.524-.969c0,.134-.134.067-.195.067s-.067.134-.2.067c0-.134.067-.262-.061-.4,0-.067.061-.134.128-.2.195,0,.262.134.329.267ZM20.926,38.1c0,.067-.061.067-.128.067H20.72a.145.145,0,0,1,.134-.134c0-.061,0-.061.061-.061Zm8.433-.195c0-.2.061-.267.128-.267s.329.067.329.134-.067.262-.134.2-.195.061-.323,0Zm-1.9.329a2.089,2.089,0,0,1,.2-.6c.128-.061.128-.262.061-.39s-.061-.067,0-.134a.791.791,0,0,0,.134-.557.061.061,0,0,1,.061-.061c.067,0,.067,0,.067.061a.9.9,0,0,0,.134.4v.2c-.067.195,0,.195.195.329s.262.128.195.4c0,.067-.067.128,0,.195a.176.176,0,0,1-.128.262c-.128,0-.134,0-.134.067v.329a.145.145,0,0,1-.128.134c-.067.067-.067,0-.134-.067s0-.128-.067-.067-.128,0-.195.134a.245.245,0,0,1-.061.195c-.2-.195-.134-.457-.262-.657a.251.251,0,0,1,.061-.195m.2-2.106c0-.134.061-.267,0-.4s.128-.134.195-.134a.235.235,0,0,0,.195-.067c.067-.067.067,0,.128.067a3.453,3.453,0,0,1,.2.6c-.067,0-.134-.067-.262,0,0,0-.067,0-.067.061-.134.134-.195.2-.262.134a.178.178,0,0,1-.128-.262m.652-2.83c-.067.128-.195.195-.195.4,0,.061-.067.061-.134.061a.195.195,0,0,1-.128-.329l.195-.329a.123.123,0,0,1,.195,0,.245.245,0,0,1,.067.2m-.59-2.044c.134-.061.134-.195.195-.195.262.262.262.4,0,.791-.128,0-.128-.067-.128-.134v-.262c.067-.067-.195-.134-.067-.2m-.557-.524c.061,0,.061.067.061.067s0,.067-.061.067a.067.067,0,0,1-.067-.067c0-.067,0-.067.067-.067m.78-.462a.964.964,0,0,1,.134-.462c0-.061.067-.061.128-.061s.2.195.4.195c.067.067.067.067.067.195s0,.134-.067.2-.195.067-.134.195a.139.139,0,0,1-.128.134c-.067.067-.134,0-.195.067s-.067.134-.134.067a.245.245,0,0,1-.067-.2.3.3,0,0,0,0-.329M39.286,5.659a.457.457,0,0,1-.323-.262c0-.134.128-.067.195-.2-.067-.061-.128-.128-.128-.195a4.9,4.9,0,0,1,.585-.59.7.7,0,0,0-.39-.462.067.067,0,0,1-.067-.05c-.128-.134-.128-.195-.067-.329s.134-.134,0-.195l-.128-.134.195-.2-.128-.128a1.749,1.749,0,0,0-.59,0c-.39,0-.719.128-1.047.128a.768.768,0,0,1-.557-.128c-.067,0-.067-.067-.134-.067a1.25,1.25,0,0,0-.457.067c-.134.067-.323,0-.39.128s-.262-.128-.4-.061c0,.061-.061,0-.128.061a2.267,2.267,0,0,0-.685.117c-.134.067-.2-.067-.262,0a.262.262,0,0,1-.262.134c-.195,0-.329-.067-.457,0a8.439,8.439,0,0,1-1.8.195h-.128a.418.418,0,0,1-.4,0,.373.373,0,0,0-.256.067,3.225,3.225,0,0,1-.785.134.24.24,0,0,0-.329.128,1.5,1.5,0,0,1-.785.134c-.061,0-.061,0-.128-.067-.134-.262-.39-.4-.524-.657a.434.434,0,0,0-.39-.262h-.262c-.134,0-.195-.134-.329-.2H27.46l-.719-.195a1.565,1.565,0,0,1-.518-.067l-.59-.195A4.456,4.456,0,0,0,24,1.972a2.044,2.044,0,0,0-.59-.128,4.863,4.863,0,0,0-.914.195c-.134,0-.195.134-.39,0,0-.067-.067,0-.134,0a1.047,1.047,0,0,0-.457.462,2.163,2.163,0,0,0-.195.841V3.4c-.067.134-.134.267.067.4v.613a.234.234,0,0,1-.067.128c-.195-.128-.4.067-.524,0h-.39a.245.245,0,0,0-.2.067c-.128,0-.262-.067-.323,0-.134-.067-.195,0-.329.067s-.128,0-.128.067h-.2a4.256,4.256,0,0,1-1.565.128c-.195,0-.329.067-.457.067s-.329,0-.329.2h-.056a3.342,3.342,0,0,1-.847.061,1.237,1.237,0,0,0-.457.067c-.134,0-.262.067-.329,0-.195,0-.262.134-.39.134a9.9,9.9,0,0,0-1.309.262c-.128,0-.262.067-.39.067a1.042,1.042,0,0,0-.457,0c-.067,0-.134.067-.262.067a3.9,3.9,0,0,0-.852.195.668.668,0,0,1-.518.067c-.2-.067-.462-.067-.724-.134a.59.59,0,0,0-.457.2l-.39.462a.178.178,0,0,0-.128.195v.134a.329.329,0,0,0-.134.262c.067.134,0,.262.067.4a.29.29,0,0,1,0,.329c-.195.134-.067.4-.195.59.195.134.128.329.195.462s.262.195,0,.262V9.28c.128.195.067.4.128.524a1.114,1.114,0,0,1,0,.663.763.763,0,0,0,.195.724,1,1,0,0,1,.4.524c.128.262.195.262.524.329a.061.061,0,0,1,.061.067c.067,0,.067,0,.067.067.067.329.067.329.262.524.067,0,.067,0,.067.067.067.2.195.262.262.4a3.041,3.041,0,0,0,.652.657.908.908,0,0,0,.785.2,1.487,1.487,0,0,0,.524,0l.262-.067a.9.9,0,0,0,.585-.067,1.242,1.242,0,0,1,.329-.195c.323-.134.719-.067,1.042-.2l.067-.067c.195,0,.262-.061.457-.061-.067-.134.067-.134.134-.134s.128-.067.262-.067A.24.24,0,0,0,16.5,13.1l.585-.195c.134-.067.329-.2.524-.134.195-.195.59,0,.719-.262l.067-.067c.195.067.329,0,.524.067a1.582,1.582,0,0,0,.785-.067,2.674,2.674,0,0,1,.719-.128l.195-.134c.128-.134.262-.262.39-.067.067.067.134,0,.195.067.134.195.262.462.134.657a.49.49,0,0,0-.067.262,4.891,4.891,0,0,1,.067.986,2.64,2.64,0,0,1-.067.724c0,.2.195.334.195.557s-.128.4-.128.59a3.02,3.02,0,0,1,.067.329,10.539,10.539,0,0,1,.061,1.448v.334a1.114,1.114,0,0,1,0,.657,6.468,6.468,0,0,1-.061,1.053v1.51c0,.067,0,.134.061.134a1.069,1.069,0,0,1,0,.462c-.061.262-.128.462.067.657s.128.4-.067.59v.067c-.128.067-.128.195,0,.329s.134.2-.061.329v.2c0,.262-.067.457-.067.724s-.134.262-.067.457c0,.067-.067,0-.067,0s-.128,0-.128.067-.134.134-.134.2a.68.68,0,0,1-.128.39c-.067.2-.195.334-.195.557,0,.067-.067.134-.134.262l-.195.2c-.128.128-.329.262-.329.524a2.228,2.228,0,0,1-.351.8c0,.067-.067.128-.134.262a3.6,3.6,0,0,1-.423.858.557.557,0,0,0-.195.4v.061c-.195.134-.128.329-.195.462,0,.262,0,.462-.262.6l-.067.061c.067.267-.067.4-.067.6a2.451,2.451,0,0,1-.329.724,2.067,2.067,0,0,0-.4.852c-.061.067-.061.2-.128.329-.067.267-.262.462-.329.724-.128.462-.323.858-.457,1.253l-.39,1.181a1.632,1.632,0,0,0-.067.557,1.482,1.482,0,0,1-.262.858c-.067.128-.195.262-.195.39a1.07,1.07,0,0,0,0,.462,4.206,4.206,0,0,1-.262.858,8.356,8.356,0,0,0-.262,1.181,1.816,1.816,0,0,1-.067.6.518.518,0,0,0-.061.329,3.771,3.771,0,0,1-.134.852v.663a.9.9,0,0,1-.061.4c0,.128.128.262,0,.39a1.025,1.025,0,0,1-.2.724,1.738,1.738,0,0,0-.128.986c0,.2.067.334.067.557a.24.24,0,0,0,.061.134c.134.128.262.195.134.329a.524.524,0,0,0,.128.262c0,.067.067.067.067.134a1.409,1.409,0,0,0,.262.791c0,.128.067.195,0,.262a.485.485,0,0,0,.067.59.6.6,0,0,1,0,.462c-.067.128-.134.262.061.329a.067.067,0,0,1,.067.067c-.067.195.134.329.067.524a.362.362,0,0,0,.128.267,1.025,1.025,0,0,1,.195.59c0,.128.067.128.2.067h.128c.067.061.067.128.195.195s.262.067.329-.195V51.13c-.067-.134,0-.2.128-.262a.191.191,0,0,0,.134-.2c0-.067,0-.262-.134-.329s-.195-.262-.256-.329c-.2-.262-.2-.4.061-.59.134-.134.134-.134.067-.4a.362.362,0,0,0-.128-.267c0-.067,0-.067.061-.128h.067a.145.145,0,0,0,.128.128c.134-.067.134,0,.134.134a2,2,0,0,0,.128.59c.061.128.262.2.4.267v.061l-.195.4c-.067.2-.067.267.128.334h.128l.067.061c-.195.134-.128.267-.067.329s.067.134.067.267a.2.2,0,0,0,.067.128c.067,0,.128-.067.195-.128a.4.4,0,0,0,.067-.4c-.067-.128-.134-.4,0-.529v-.139c-.067-.195-.067-.4-.195-.524a.44.44,0,0,1-.262-.329.629.629,0,0,0-.195-.6.379.379,0,0,1-.067-.457.2.2,0,0,0,.067-.262c-.067,0-.067-.067-.067-.134a.284.284,0,0,0-.262-.262c-.067-.067-.134,0-.134-.067s-.128-.2-.128-.329.195,0,.262,0a.524.524,0,0,0,.262.128c.128-.067.195-.067.195-.195s.067-.262-.067-.262-.128-.067-.128-.134c.128-.134.067-.134-.067-.262a.524.524,0,0,0-.457-.067c-.067.262-.128.262-.39.134h-.067a.123.123,0,0,1,0-.2c.067,0,.128-.067.195-.134H16.5c-.067-.061-.195-.061-.262-.128a.5.5,0,0,0,.128-.267c0-.128-.061-.128-.128-.195V45.46a.8.8,0,0,0-.067-.39.245.245,0,0,1,.067-.2.139.139,0,0,0,.128-.134c.067-.061.134-.128.262-.061s.195,0,.329-.067.128-.134,0-.262c0-.067.067-.067.067-.134s.061-.067.061-.134a1.387,1.387,0,0,1-.262-.724c.067,0,0-.061,0-.061s-.128-.134-.195-.067a.061.061,0,0,1-.061.067c-.134.061-.262,0-.262-.134s0-.262.195-.262c.067,0,.128-.067.262-.067s.128-.134.128-.262-.067-.134-.128-.267.061-.329.128-.462.134-.061.195-.061.067-.067.067-.134.067-.128,0-.262c-.067,0-.067-.067,0-.134s.067-.061.134-.061.061.061.128.061c.067-.128-.128-.195,0-.262a.234.234,0,0,0,.128.067.68.68,0,0,1,.262-.462c.134-.067.2-.128.2-.262a.139.139,0,0,1,.128-.134c.067.067.067.067.128,0s.067-.128.067-.262-.067-.128-.128-.195a.24.24,0,0,1,.061-.134c.134,0,.2,0,.134-.067s-.134-.195-.067-.262.067-.262.195-.4.262-.195.134-.329a.145.145,0,0,1,.117-.117c.067-.067.134-.067.134-.128a.3.3,0,0,1,.195-.329c.067-.067.067-.134.128-.134.067-.134,0-.329.2-.4v-.067c-.134-.128,0-.262.061-.329s.134-.128.067-.262.195-.2.134-.4c-.067,0,0-.067,0-.067.128-.067.128-.195.128-.4,0-.067,0-.067.067-.128a3.431,3.431,0,0,0,.195-1.114.824.824,0,0,1,.067-.4.518.518,0,0,1,.061-.329.8.8,0,0,0,.262-.6c.067-.329.195-.657.262-.919a5.688,5.688,0,0,1,.329-.986v.986a.557.557,0,0,0,.067.329c.061.134-.067.262-.067.4s0,.067.067.067a1.5,1.5,0,0,1,0,.524c-.067.329-.067.663-.134.992a2.618,2.618,0,0,1,0,.724,1.114,1.114,0,0,1-.128.59l-.067.067c0,.195-.134.4.067.59a.234.234,0,0,0-.067.134c.067.128.067.329.128.457a.88.88,0,0,1-.061.4c.061,0,.061-.067.128-.067s.067.067.067.134-.067.067-.134.067a.06.06,0,0,1-.061-.067V37.65c-.067,0-.2.067-.134-.061a.067.067,0,0,0-.067-.067c-.061,0-.061,0-.061.067v.262a.44.44,0,0,1,0,.4c0,.067,0,.067.061.128s.067.067.067.2.067.134-.067.195,0,.2-.061.267.061.128.061.195l.134.134c.128.128.067.329.128.524v.067c-.128.067-.128.134-.128.262s0,.2-.134.267h-.128c-.128,0-.128.128-.067.195a.123.123,0,0,1,0,.195c-.061.2-.262.334-.195.6v.195a.5.5,0,0,0-.128.4v.195a3.342,3.342,0,0,0-.134.858v.134c-.128.128-.067.262-.128.462a.8.8,0,0,1-.067.39.455.455,0,0,0,.067.557.318.318,0,0,1,0,.329c0,.067-.067.134-.067.195a.618.618,0,0,0-.195.462c0,.134,0,.195.067.262s0,.2-.067.329c-.134.4-.067.6.262.992a.245.245,0,0,1,.061.195c0,.067,0,.134-.061.134s-.134,0-.134.067a.7.7,0,0,1-.145.284.067.067,0,0,0-.067.067c.067.061.067.262.195.262s.134.262.329.262v.128c-.067.067,0,.134.067.134h.061c.2.134.2.134.067.329a.73.73,0,0,0-.195.462c0,.134.195.134.262.195s.067.067.128.067.134,0,.134.067.061.2-.067.262a.1.1,0,0,0,0,.134c.067.067.067.067,0,.134s-.128.329-.262.4c.134.128.195.262.329.329a.284.284,0,0,1,.061.195c0,.067-.061.134,0,.195s.134-.128.2-.128.061-.067.128,0v.128c-.067.067-.128.134-.128.2s-.2.329-.067.462a.8.8,0,0,1,.067.39c-.067.134-.134.267-.067.4a6.279,6.279,0,0,0,.195.925.3.3,0,0,1,0,.329c-.128.262-.067.329-.457.262l-.262-.067a.089.089,0,0,1,0-.128c0-.134.067-.2-.067-.2s-.128-.067-.195.067-.128.067-.195.134a.958.958,0,0,1-.457-.2c0-.262-.195-.262-.329-.262a.24.24,0,0,1-.195-.067.49.49,0,0,1-.128-.329c-.067-.329-.067-.329-.4-.128l-.323-.134c-.067,0-.134-.067-.067-.2s-.067-.128-.134-.128a.351.351,0,0,1-.262-.2c-.061,0-.061.067-.061.067v.134c0,.067-.067.067-.134,0h-.128a.362.362,0,0,1-.195-.329c.061-.067,0-.134.061-.2.067.067.134.067.134.2s0,.061.128.061l.195-.262a.847.847,0,0,1-.256-.195.128.128,0,0,1-.067-.2c.128-.128.067-.262,0-.4s0-.061-.134-.128-.195.067-.195.128-.067.2,0,.334.195.195.134.329a.7.7,0,0,1-.329.262H16.6c-.061.067-.128.067-.128,0,.067-.262-.195-.462-.134-.724-.128-.134-.262-.067-.39,0s0,.134,0,.262.067.134.067.262a.351.351,0,0,0,.195.329c.128.067.128.134.067.267a.251.251,0,0,0,.061.195c.134.067.2.267.262.329a.294.294,0,0,1,.067.329c-.195.134-.128.329-.067.557.067.067.134.195.262.262a3.231,3.231,0,0,1,.59.724c.195.2.323.462.585.462a.234.234,0,0,1,.134.067c.061.195.262.195.39.262a2.336,2.336,0,0,1,.719.329.557.557,0,0,0,.329.067c.39-.134.847,0,1.242-.134.195,0,.457,0,.557-.195a.93.93,0,0,1,.4-.134h.39a.234.234,0,0,0,.195-.067,1.147,1.147,0,0,0,.329-.457c.067-.334.262-.6.323-.925a.7.7,0,0,1,.262-.329.5.5,0,0,0,.262-.262c.134-.134.2-.262.4-.329s.262-.134.195-.262a.17.17,0,0,1,.128-.267A2.29,2.29,0,0,0,25,52.406c.134-.134.134-.329.4-.329.061-.134.195-.134.262-.195.195-.067.195-.2.262-.334.128-.262.39-.457.323-.785,0-.067.067-.067.067-.134a.841.841,0,0,0,.262-.59.48.48,0,0,1,.329-.657,2.584,2.584,0,0,0,.39-.4.362.362,0,0,1,.329-.2c.061.067.256.067.256-.067s.262-.262.262-.4a.518.518,0,0,0-.061-.524.68.68,0,0,1,0-.858.557.557,0,0,0,.446.407c.067-.262.134-.457,0-.657-.067-.067-.067-.128,0-.128a.451.451,0,0,0,.195-.462c.067-.134.067-.267.134-.329.195-.067.195-.267.195-.4s.067-.134.128-.2c0-.195.2-.4-.061-.59v-.134a.067.067,0,0,0-.067.067c-.134.2-.134.2-.329.134s-.128-.134-.061-.329l.195-.262c.128-.067.262-.134.262-.267s.061-.061.128-.061c.262-.067.262-.2.195-.334s0-.262-.061-.4a.24.24,0,0,1,.061-.128c.067-.067.134,0,.134.067s.061,0,.061.061.134.067.2,0a.24.24,0,0,0-.067-.195c-.067-.067-.195,0-.262-.134.262-.128.329-.329.195-.524v-.134c0-.134-.067-.195-.195-.134h-.067c0-.195-.262-.128-.262-.262s.2,0,.134-.195a.067.067,0,0,1,.067-.067.869.869,0,0,0,.184-.7,1.309,1.309,0,0,1,.195-.724c0-.067-.067-.067-.134-.067a.178.178,0,0,1-.128-.195.206.206,0,0,0,.067-.134,1,1,0,0,0,.128-.551.4.4,0,0,1-.067-.262c.067-.067.067-.134,0-.134a.512.512,0,0,1-.256-.262c-.067,0-.067-.067,0-.067l.061-.067c.067,0,.067.067.134.134a.128.128,0,0,0,.195,0c0-.067.067-.067.067-.134l.128-.724a.228.228,0,0,0-.067-.195c-.128-.067-.128-.2-.195-.267-.128-.195-.067-.195.134-.262.061,0,.128.067.195,0a.78.78,0,0,0-.329-.329c.329-.195.329-.195.134-.59-.067,0-.134.061-.2.061-.061.134-.128.2-.195.067s-.061,0-.128,0a.123.123,0,0,1-.195,0c0-.195.128-.195.262-.195s.195-.067.195-.262-.067-.2.061-.2c.262-.067.262-.195.329-.4-.067-.067-.195-.067-.262-.195.067-.067.195.067.262,0,0-.2-.262-.262-.128-.462a.067.067,0,0,0-.067-.067c-.195-.067-.195-.195-.067-.329a.234.234,0,0,0-.067-.195.557.557,0,0,1,.134-.4c.067-.067.128-.067.195-.134v-.267a.3.3,0,0,1,0-.329V32.4c.067-.128,0-.195-.195-.128-.067.061-.134,0-.067-.067.067-.2,0-.4.067-.657a1.343,1.343,0,0,0,.128-.724c-.061-.267-.061-.6-.128-.925a.557.557,0,0,1,.128-.524c.067-.067.134-.134.067-.2s-.128.067-.195.067-.067.067-.134,0c.134-.134.134-.262.2-.4s.061-.067,0-.195a.742.742,0,0,1-.134-.4,2.913,2.913,0,0,1,.067-.724v-.067a.824.824,0,0,1-.067-.4.941.941,0,0,0-.067-.457,2.9,2.9,0,0,1,0-.73,1.114,1.114,0,0,0,0-.657.446.446,0,0,1,0-.4,1.042,1.042,0,0,0,0-.457.312.312,0,0,1,0-.329,3.849,3.849,0,0,1,.134-.925v-.067a.941.941,0,0,1,.195-.59.234.234,0,0,0,.067-.195c0-.067,0-.134.067-.134.128-.134.061-.329.195-.462v-.128c-.195-.134-.195-.329-.262-.462-.067-.262-.195-.462.067-.724v-.134c0-.128-.067-.262.061-.4s0-.128-.128-.195-.134.134-.195.134c-.134-.134-.134-.2,0-.329s.128-.067.128-.134a.123.123,0,0,0,0-.2c-.128-.061-.128-.195-.195-.329s-.134-.262-.067-.329v-.524c.067-.2-.067-.4-.067-.657a4.974,4.974,0,0,1,.067-.992,1.309,1.309,0,0,0-.128-.719,3.738,3.738,0,0,1-.067-.858,1.855,1.855,0,0,0,0-.858c-.067,0,0-.067,0-.067v-.524a.145.145,0,0,0-.128-.134c-.067-.067.061-.128,0-.195a.8.8,0,0,1,0-.858c-.067-.128-.2-.195-.262-.329V11.67a.674.674,0,0,0,.262-.329c.195.067.195-.128.256-.262a.3.3,0,0,1,.329-.2.678.678,0,0,0,.39-.128.234.234,0,0,0,.134-.067c.262.067.59-.067.847,0a.473.473,0,0,0,.4-.195.836.836,0,0,1,.585-.329c.2,0,.4,0,.524-.2.067,0,.134-.067.134,0,.128.067.262-.067.39-.067a1.638,1.638,0,0,0,.524-.128c0-.134.195-.2.262-.329,0-.329.262-.267.457-.329a1.114,1.114,0,0,1,.457-.067h.067c.061-.067.128-.134.128-.2s-.067-.067-.067-.128-.128,0-.195-.134l.195-.2c.067-.061-.061-.128,0-.195h-.061c-.195.067-.457,0-.524.262,0,.067-.134.134-.134.134a1.114,1.114,0,0,0-.457.067c-.128-.067-.061-.462.067-.462a.975.975,0,0,1,.457-.195c.067,0,.195.067.329,0,0,0,.128,0,.067-.067s0-.134,0-.2,0-.195.128-.195a.39.39,0,0,0,.262-.067c0-.067.067,0,.128,0V7.72c-.061.067-.128.134-.195.067s-.195.067-.195.134.128.067.195.195a.162.162,0,0,0,.262.067c.134-.128.195-.262.329-.329s.128-.134.195-.067c.195.134.329,0,.524-.067.067,0,.128,0,.128-.128s-.061-.067-.128-.067H36.35c-.329,0-.329,0-.329-.262,0-.067,0-.134.067-.134s.128.134.195.067c.195-.067.262,0,.329.134s.128,0,.195,0,.067-.089.067-.223a.312.312,0,0,1,.329-.329l.195-.134c0-.195.134-.195.262-.195.262-.067.457-.2.719-.262.134,0,.195-.134.329-.134h.4c.134,0,.195-.067.262-.2s.134-.195-.067-.195" transform="translate(828.83 2482.642)"/>
  </g>
</svg>
